<?xml version="1.0" encoding="UTF-8" standalone="no"?>
<!DOCTYPE svg PUBLIC "-//W3C//DTD SVG 1.1//EN" "http://www.w3.org/Graphics/SVG/1.1/DTD/svg11.dtd">
<svg xmlns="http://www.w3.org/2000/svg" version="1.1" viewBox="0.00 0.00 424.00 156.00">
<g stroke-width="2.00" fill="none" stroke-linecap="butt">
<path stroke="#dda485" vector-effect="non-scaling-stroke" d="
  M 199.58 13.00
  Q 197.56 12.75 197.11 14.28
  A 1.16 1.16 0.0 0 0 197.50 15.50
  C 201.26 18.51 204.32 24.31 206.87 28.20
  A 1.59 1.59 0.0 0 1 206.88 29.91
  Q 202.63 36.73 199.20 41.78
  C 198.42 42.92 196.66 43.80 196.56 45.61
  Q 196.52 46.18 197.02 46.45
  Q 198.18 47.09 199.02 46.92"
/>
<path stroke="#808080" vector-effect="non-scaling-stroke" d="
  M 199.02 46.92
  Q 200.57 47.05 201.80 46.70"
/>
<path stroke="#89b5e2" vector-effect="non-scaling-stroke" d="
  M 201.80 46.70
  Q 203.62 46.06 205.07 43.99
  Q 208.15 39.57 209.61 35.22"
/>
<path stroke="#808080" vector-effect="non-scaling-stroke" d="
  M 209.61 35.22
  Q 209.72 33.51 211.61 33.51"
/>
<path stroke="#dda485" vector-effect="non-scaling-stroke" d="
  M 211.61 33.51
  Q 214.08 40.97 219.73 46.80"
/>
<path stroke="#808080" vector-effect="non-scaling-stroke" d="
  M 219.73 46.80
  Q 221.20 47.17 223.66 46.72"
/>
<path stroke="#89b5e2" vector-effect="non-scaling-stroke" d="
  M 223.66 46.72
  Q 225.14 46.63 225.66 45.26
  A 0.77 0.77 0.0 0 0 225.43 44.40
  C 221.37 41.02 219.20 35.86 216.05 31.62
  C 215.59 31.01 215.50 30.42 215.09 29.74
  Q 214.85 29.33 215.00 28.87
  Q 215.58 27.04 216.70 25.51
  C 219.37 21.88 221.71 18.18 224.77 14.81
  A 0.85 0.84 55.7 0 0 224.93 13.95
  Q 224.53 12.95 223.03 12.92"
/>
<path stroke="#808080" vector-effect="non-scaling-stroke" d="
  M 223.03 12.92
  Q 219.20 11.76 217.07 14.87
  Q 213.88 19.53 211.18 24.19
  A 0.60 0.60 0.0 0 1 210.13 24.17
  C 209.03 22.11 208.45 20.19 207.16 18.10
  C 205.24 14.99 204.70 11.56 199.58 13.00"
/>
<path stroke="#093562" vector-effect="non-scaling-stroke" d="
  M 223.03 12.92
  Q 222.16 15.19 220.39 17.24
  C 219.00 18.85 218.19 20.60 216.83 22.21
  Q 216.08 23.11 215.03 24.79
  Q 214.21 26.10 212.95 27.32
  A 1.79 1.79 0.0 0 0 212.90 29.83
  C 215.02 32.08 216.05 35.13 218.02 37.53
  Q 221.41 41.68 223.66 46.72"
/>
<path stroke="#5d2505" vector-effect="non-scaling-stroke" d="
  M 219.73 46.80
  Q 217.19 38.84 211.61 33.51"
/>
<path stroke="#093562" vector-effect="non-scaling-stroke" d="
  M 209.61 35.22
  Q 206.47 37.68 205.74 39.00
  Q 204.00 42.17 202.14 45.26
  Q 201.70 46.00 201.80 46.70"
/>
<path stroke="#5d2505" vector-effect="non-scaling-stroke" d="
  M 199.02 46.92
  Q 199.45 44.56 200.38 42.37
  Q 201.04 40.80 202.35 39.73
  A 2.19 2.12 83.6 0 0 202.94 38.97
  C 204.08 36.58 205.76 34.84 206.90 32.56
  C 208.14 30.06 209.70 29.23 207.75 26.25
  Q 206.15 23.78 204.55 22.29
  Q 204.17 21.94 204.02 21.46
  Q 203.21 18.96 201.91 17.61
  Q 199.85 15.46 199.58 13.00"
/>
<path stroke="#808080" vector-effect="non-scaling-stroke" d="
  M 57.33 67.29
  Q 56.91 67.18 56.66 67.53
  Q 56.38 67.91 56.35 68.75
  Q 56.17 73.13 56.31 77.76
  A 0.98 0.97 82.3 0 0 57.51 78.68
  Q 58.97 78.33 60.75 78.33
  Q 210.00 78.15 359.25 78.38
  Q 360.78 78.38 362.26 78.77
  A 0.90 0.89 -82.4 0 0 363.39 77.90
  L 363.35 67.96
  A 0.81 0.81 0.0 0 0 362.34 67.18
  C 361.28 67.45 360.35 67.77 359.21 67.77
  Q 209.41 67.74 59.60 67.77
  C 58.91 67.77 58.08 67.50 57.33 67.29"
/>
<path stroke="#dda485" vector-effect="non-scaling-stroke" d="
  M 218.49 106.26
  Q 214.22 111.13 211.50 117.22"
/>
<path stroke="#808080" vector-effect="non-scaling-stroke" d="
  M 211.50 117.22
  Q 210.47 117.50 210.38 117.22"
/>
<path stroke="#89b5e2" vector-effect="non-scaling-stroke" d="
  M 210.38 117.22
  Q 207.83 111.56 204.28 106.45
  Q 203.88 105.86 203.19 106.08"
/>
<path stroke="#808080" vector-effect="non-scaling-stroke" d="
  M 203.19 106.08
  L 199.25 106.18"
/>
<path stroke="#dda485" vector-effect="non-scaling-stroke" d="
  M 199.25 106.18
  Q 198.07 106.05 197.37 106.81
  A 1.16 1.15 44.8 0 0 197.38 108.39
  C 201.22 112.41 204.03 117.20 207.01 121.76
  A 0.99 0.98 44.7 0 1 207.02 122.80
  C 203.90 127.88 200.94 133.00 196.94 137.49
  Q 196.60 137.87 196.57 138.37
  Q 196.49 139.63 197.55 139.75"
/>
<path stroke="#808080" vector-effect="non-scaling-stroke" d="
  M 197.55 139.75
  Q 199.79 140.77 201.73 139.70"
/>
<path stroke="#89b5e2" vector-effect="non-scaling-stroke" d="
  M 201.73 139.70
  Q 203.75 139.30 204.62 137.85
  Q 207.55 132.97 210.77 128.27
  Q 211.16 127.70 211.01 126.72"
/>
<path stroke="#808080" vector-effect="non-scaling-stroke" d="
  M 211.01 126.72
  L 211.65 126.87"
/>
<path stroke="#dda485" vector-effect="non-scaling-stroke" d="
  M 211.65 126.87
  C 213.03 131.44 215.77 134.97 218.32 138.93
  Q 219.03 140.03 220.44 139.97"
/>
<path stroke="#808080" vector-effect="non-scaling-stroke" d="
  M 220.44 139.97
  Q 221.79 140.38 223.03 140.04"
/>
<path stroke="#89b5e2" vector-effect="non-scaling-stroke" d="
  M 223.03 140.04
  Q 224.88 140.12 225.63 138.63
  A 0.97 0.97 0.0 0 0 225.34 137.40
  C 224.18 136.56 223.21 135.90 222.44 134.65
  Q 218.95 128.93 215.42 123.62
  A 2.78 2.76 -43.8 0 1 215.50 120.46
  C 218.66 116.14 221.29 111.59 224.94 107.78
  A 0.84 0.84 0.0 0 0 224.73 106.45
  Q 223.83 105.97 223.23 106.28"
/>
<path stroke="#808080" vector-effect="non-scaling-stroke" d="
  M 223.23 106.28
  Q 220.90 105.42 218.49 106.26"
/>
<path stroke="#093562" vector-effect="non-scaling-stroke" d="
  M 223.23 106.28
  Q 223.37 107.13 223.12 107.50
  C 221.89 109.40 220.02 110.86 218.70 112.88
  Q 216.76 115.86 213.01 120.27
  C 211.27 122.31 213.74 123.84 214.56 125.26
  Q 218.02 131.23 219.77 133.48
  C 221.18 135.30 221.81 137.10 223.10 138.63
  Q 223.42 139.01 223.25 139.48
  L 223.03 140.04"
/>
<path stroke="#5d2505" vector-effect="non-scaling-stroke" d="
  M 220.44 139.97
  C 219.58 138.78 219.28 136.83 218.21 135.98
  Q 217.86 135.70 217.70 135.28
  C 216.50 132.21 213.95 129.29 212.53 126.99
  Q 212.23 126.51 211.65 126.87"
/>
<path stroke="#093562" vector-effect="non-scaling-stroke" d="
  M 211.01 126.72
  Q 209.45 127.08 208.98 128.51
  Q 208.82 128.97 208.46 129.29
  Q 203.66 133.60 201.73 139.70"
/>
<path stroke="#5d2505" vector-effect="non-scaling-stroke" d="
  M 197.55 139.75
  L 197.68 138.85
  Q 197.76 138.29 198.32 138.42
  Q 198.84 138.54 199.28 138.24
  Q 199.62 138.01 199.84 137.42
  Q 200.46 135.72 201.24 134.10
  C 202.03 132.49 203.69 131.70 204.34 129.71
  Q 204.48 129.29 204.79 128.99
  Q 206.02 127.83 206.58 126.18
  Q 206.73 125.75 207.08 125.48
  Q 209.32 123.70 208.15 120.61
  C 207.12 117.90 205.13 116.04 204.08 114.33
  Q 201.63 110.31 199.25 106.18"
/>
<path stroke="#093562" vector-effect="non-scaling-stroke" d="
  M 203.19 106.08
  C 202.87 107.87 204.40 109.88 205.17 111.43
  Q 205.40 111.88 205.84 112.12
  Q 206.83 112.66 207.18 113.72
  A 0.52 0.40 -82.4 0 0 207.26 113.86
  Q 208.52 115.38 209.50 117.12
  Q 209.71 117.50 210.14 117.38
  Q 210.28 117.34 210.38 117.22"
/>
<path stroke="#5d2505" vector-effect="non-scaling-stroke" d="
  M 211.50 117.22
  Q 213.96 114.82 215.85 112.04
  C 217.17 110.11 218.64 108.84 218.49 106.26"
/>
</g>
<path fill="#ffffff" d="
  M 0.00 0.00
  L 424.00 0.00
  L 424.00 156.00
  L 0.00 156.00
  L 0.00 0.00
  Z
  M 199.58 13.00
  Q 197.56 12.75 197.11 14.28
  A 1.16 1.16 0.0 0 0 197.50 15.50
  C 201.26 18.51 204.32 24.31 206.87 28.20
  A 1.59 1.59 0.0 0 1 206.88 29.91
  Q 202.63 36.73 199.20 41.78
  C 198.42 42.92 196.66 43.80 196.56 45.61
  Q 196.52 46.18 197.02 46.45
  Q 198.18 47.09 199.02 46.92
  Q 200.57 47.05 201.80 46.70
  Q 203.62 46.06 205.07 43.99
  Q 208.15 39.57 209.61 35.22
  Q 209.72 33.51 211.61 33.51
  Q 214.08 40.97 219.73 46.80
  Q 221.20 47.17 223.66 46.72
  Q 225.14 46.63 225.66 45.26
  A 0.77 0.77 0.0 0 0 225.43 44.40
  C 221.37 41.02 219.20 35.86 216.05 31.62
  C 215.59 31.01 215.50 30.42 215.09 29.74
  Q 214.85 29.33 215.00 28.87
  Q 215.58 27.04 216.70 25.51
  C 219.37 21.88 221.71 18.18 224.77 14.81
  A 0.85 0.84 55.7 0 0 224.93 13.95
  Q 224.53 12.95 223.03 12.92
  Q 219.20 11.76 217.07 14.87
  Q 213.88 19.53 211.18 24.19
  A 0.60 0.60 0.0 0 1 210.13 24.17
  C 209.03 22.11 208.45 20.19 207.16 18.10
  C 205.24 14.99 204.70 11.56 199.58 13.00
  Z
  M 57.33 67.29
  Q 56.91 67.18 56.66 67.53
  Q 56.38 67.91 56.35 68.75
  Q 56.17 73.13 56.31 77.76
  A 0.98 0.97 82.3 0 0 57.51 78.68
  Q 58.97 78.33 60.75 78.33
  Q 210.00 78.15 359.25 78.38
  Q 360.78 78.38 362.26 78.77
  A 0.90 0.89 -82.4 0 0 363.39 77.90
  L 363.35 67.96
  A 0.81 0.81 0.0 0 0 362.34 67.18
  C 361.28 67.45 360.35 67.77 359.21 67.77
  Q 209.41 67.74 59.60 67.77
  C 58.91 67.77 58.08 67.50 57.33 67.29
  Z
  M 218.49 106.26
  Q 214.22 111.13 211.50 117.22
  Q 210.47 117.50 210.38 117.22
  Q 207.83 111.56 204.28 106.45
  Q 203.88 105.86 203.19 106.08
  L 199.25 106.18
  Q 198.07 106.05 197.37 106.81
  A 1.16 1.15 44.8 0 0 197.38 108.39
  C 201.22 112.41 204.03 117.20 207.01 121.76
  A 0.99 0.98 44.7 0 1 207.02 122.80
  C 203.90 127.88 200.94 133.00 196.94 137.49
  Q 196.60 137.87 196.57 138.37
  Q 196.49 139.63 197.55 139.75
  Q 199.79 140.77 201.73 139.70
  Q 203.75 139.30 204.62 137.85
  Q 207.55 132.97 210.77 128.27
  Q 211.16 127.70 211.01 126.72
  L 211.65 126.87
  C 213.03 131.44 215.77 134.97 218.32 138.93
  Q 219.03 140.03 220.44 139.97
  Q 221.79 140.38 223.03 140.04
  Q 224.88 140.12 225.63 138.63
  A 0.97 0.97 0.0 0 0 225.34 137.40
  C 224.18 136.56 223.21 135.90 222.44 134.65
  Q 218.95 128.93 215.42 123.62
  A 2.78 2.76 -43.8 0 1 215.50 120.46
  C 218.66 116.14 221.29 111.59 224.94 107.78
  A 0.84 0.84 0.0 0 0 224.73 106.45
  Q 223.83 105.97 223.23 106.28
  Q 220.90 105.42 218.49 106.26
  Z"
/>
<path fill="#000000" d="
  M 223.03 12.92
  Q 222.16 15.19 220.39 17.24
  C 219.00 18.85 218.19 20.60 216.83 22.21
  Q 216.08 23.11 215.03 24.79
  Q 214.21 26.10 212.95 27.32
  A 1.79 1.79 0.0 0 0 212.90 29.83
  C 215.02 32.08 216.05 35.13 218.02 37.53
  Q 221.41 41.68 223.66 46.72
  Q 221.20 47.17 219.73 46.80
  Q 217.19 38.84 211.61 33.51
  Q 209.72 33.51 209.61 35.22
  Q 206.47 37.68 205.74 39.00
  Q 204.00 42.17 202.14 45.26
  Q 201.70 46.00 201.80 46.70
  Q 200.57 47.05 199.02 46.92
  Q 199.45 44.56 200.38 42.37
  Q 201.04 40.80 202.35 39.73
  A 2.19 2.12 83.6 0 0 202.94 38.97
  C 204.08 36.58 205.76 34.84 206.90 32.56
  C 208.14 30.06 209.70 29.23 207.75 26.25
  Q 206.15 23.78 204.55 22.29
  Q 204.17 21.94 204.02 21.46
  Q 203.21 18.96 201.91 17.61
  Q 199.85 15.46 199.58 13.00
  C 204.70 11.56 205.24 14.99 207.16 18.10
  C 208.45 20.19 209.03 22.11 210.13 24.17
  A 0.60 0.60 0.0 0 0 211.18 24.19
  Q 213.88 19.53 217.07 14.87
  Q 219.20 11.76 223.03 12.92
  Z"
/>
<path fill="#126ac4" d="
  M 223.03 12.92
  Q 224.53 12.95 224.93 13.95
  A 0.85 0.84 55.7 0 1 224.77 14.81
  C 221.71 18.18 219.37 21.88 216.70 25.51
  Q 215.58 27.04 215.00 28.87
  Q 214.85 29.33 215.09 29.74
  C 215.50 30.42 215.59 31.01 216.05 31.62
  C 219.20 35.86 221.37 41.02 225.43 44.40
  A 0.77 0.77 0.0 0 1 225.66 45.26
  Q 225.14 46.63 223.66 46.72
  Q 221.41 41.68 218.02 37.53
  C 216.05 35.13 215.02 32.08 212.90 29.83
  A 1.79 1.79 0.0 0 1 212.95 27.32
  Q 214.21 26.10 215.03 24.79
  Q 216.08 23.11 216.83 22.21
  C 218.19 20.60 219.00 18.85 220.39 17.24
  Q 222.16 15.19 223.03 12.92
  Z"
/>
<path fill="#ba490a" d="
  M 199.58 13.00
  Q 199.85 15.46 201.91 17.61
  Q 203.21 18.96 204.02 21.46
  Q 204.17 21.94 204.55 22.29
  Q 206.15 23.78 207.75 26.25
  C 209.70 29.23 208.14 30.06 206.90 32.56
  C 205.76 34.84 204.08 36.58 202.94 38.97
  A 2.19 2.12 83.6 0 1 202.35 39.73
  Q 201.04 40.80 200.38 42.37
  Q 199.45 44.56 199.02 46.92
  Q 198.18 47.09 197.02 46.45
  Q 196.52 46.18 196.56 45.61
  C 196.66 43.80 198.42 42.92 199.20 41.78
  Q 202.63 36.73 206.88 29.91
  A 1.59 1.59 0.0 0 0 206.87 28.20
  C 204.32 24.31 201.26 18.51 197.50 15.50
  A 1.16 1.16 0.0 0 1 197.11 14.28
  Q 197.56 12.75 199.58 13.00
  Z"
/>
<path fill="#ba490a" d="
  M 211.61 33.51
  Q 217.19 38.84 219.73 46.80
  Q 214.08 40.97 211.61 33.51
  Z"
/>
<path fill="#126ac4" d="
  M 209.61 35.22
  Q 208.15 39.57 205.07 43.99
  Q 203.62 46.06 201.80 46.70
  Q 201.70 46.00 202.14 45.26
  Q 204.00 42.17 205.74 39.00
  Q 206.47 37.68 209.61 35.22
  Z"
/>
<path fill="#000000" d="
  M 57.33 67.29
  C 58.08 67.50 58.91 67.77 59.60 67.77
  Q 209.41 67.74 359.21 67.77
  C 360.35 67.77 361.28 67.45 362.34 67.18
  A 0.81 0.81 0.0 0 1 363.35 67.96
  L 363.39 77.90
  A 0.90 0.89 -82.4 0 1 362.26 78.77
  Q 360.78 78.38 359.25 78.38
  Q 210.00 78.15 60.75 78.33
  Q 58.97 78.33 57.51 78.68
  A 0.98 0.97 82.3 0 1 56.31 77.76
  Q 56.17 73.13 56.35 68.75
  Q 56.38 67.91 56.66 67.53
  Q 56.91 67.18 57.33 67.29
  Z"
/>
<path fill="#000000" d="
  M 223.23 106.28
  Q 223.37 107.13 223.12 107.50
  C 221.89 109.40 220.02 110.86 218.70 112.88
  Q 216.76 115.86 213.01 120.27
  C 211.27 122.31 213.74 123.84 214.56 125.26
  Q 218.02 131.23 219.77 133.48
  C 221.18 135.30 221.81 137.10 223.10 138.63
  Q 223.42 139.01 223.25 139.48
  L 223.03 140.04
  Q 221.79 140.38 220.44 139.97
  C 219.58 138.78 219.28 136.83 218.21 135.98
  Q 217.86 135.70 217.70 135.28
  C 216.50 132.21 213.95 129.29 212.53 126.99
  Q 212.23 126.51 211.65 126.87
  L 211.01 126.72
  Q 209.45 127.08 208.98 128.51
  Q 208.82 128.97 208.46 129.29
  Q 203.66 133.60 201.73 139.70
  Q 199.79 140.77 197.55 139.75
  L 197.68 138.85
  Q 197.76 138.29 198.32 138.42
  Q 198.84 138.54 199.28 138.24
  Q 199.62 138.01 199.84 137.42
  Q 200.46 135.72 201.24 134.10
  C 202.03 132.49 203.69 131.70 204.34 129.71
  Q 204.48 129.29 204.79 128.99
  Q 206.02 127.83 206.58 126.18
  Q 206.73 125.75 207.08 125.48
  Q 209.32 123.70 208.15 120.61
  C 207.12 117.90 205.13 116.04 204.08 114.33
  Q 201.63 110.31 199.25 106.18
  L 203.19 106.08
  C 202.87 107.87 204.40 109.88 205.17 111.43
  Q 205.40 111.88 205.84 112.12
  Q 206.83 112.66 207.18 113.72
  A 0.52 0.40 -82.4 0 0 207.26 113.86
  Q 208.52 115.38 209.50 117.12
  Q 209.71 117.50 210.14 117.38
  Q 210.28 117.34 210.38 117.22
  Q 210.47 117.50 211.50 117.22
  Q 213.96 114.82 215.85 112.04
  C 217.17 110.11 218.64 108.84 218.49 106.26
  Q 220.90 105.42 223.23 106.28
  Z"
/>
<path fill="#ba490a" d="
  M 199.25 106.18
  Q 201.63 110.31 204.08 114.33
  C 205.13 116.04 207.12 117.90 208.15 120.61
  Q 209.32 123.70 207.08 125.48
  Q 206.73 125.75 206.58 126.18
  Q 206.02 127.83 204.79 128.99
  Q 204.48 129.29 204.34 129.71
  C 203.69 131.70 202.03 132.49 201.24 134.10
  Q 200.46 135.72 199.84 137.42
  Q 199.62 138.01 199.28 138.24
  Q 198.84 138.54 198.32 138.42
  Q 197.76 138.29 197.68 138.85
  L 197.55 139.75
  Q 196.49 139.63 196.57 138.37
  Q 196.60 137.87 196.94 137.49
  C 200.94 133.00 203.90 127.88 207.02 122.80
  A 0.99 0.98 44.7 0 0 207.01 121.76
  C 204.03 117.20 201.22 112.41 197.38 108.39
  A 1.16 1.15 44.8 0 1 197.37 106.81
  Q 198.07 106.05 199.25 106.18
  Z"
/>
<path fill="#126ac4" d="
  M 203.19 106.08
  Q 203.88 105.86 204.28 106.45
  Q 207.83 111.56 210.38 117.22
  Q 210.28 117.34 210.14 117.38
  Q 209.71 117.50 209.50 117.12
  Q 208.52 115.38 207.26 113.86
  A 0.52 0.40 -82.4 0 1 207.18 113.72
  Q 206.83 112.66 205.84 112.12
  Q 205.40 111.88 205.17 111.43
  C 204.40 109.88 202.87 107.87 203.19 106.08
  Z"
/>
<path fill="#126ac4" d="
  M 223.23 106.28
  Q 223.83 105.97 224.73 106.45
  A 0.84 0.84 0.0 0 1 224.94 107.78
  C 221.29 111.59 218.66 116.14 215.50 120.46
  A 2.78 2.76 -43.8 0 0 215.42 123.62
  Q 218.95 128.93 222.44 134.65
  C 223.21 135.90 224.18 136.56 225.34 137.40
  A 0.97 0.97 0.0 0 1 225.63 138.63
  Q 224.88 140.12 223.03 140.04
  L 223.25 139.48
  Q 223.42 139.01 223.10 138.63
  C 221.81 137.10 221.18 135.30 219.77 133.48
  Q 218.02 131.23 214.56 125.26
  C 213.74 123.84 211.27 122.31 213.01 120.27
  Q 216.76 115.86 218.70 112.88
  C 220.02 110.86 221.89 109.40 223.12 107.50
  Q 223.37 107.13 223.23 106.28
  Z"
/>
<path fill="#ba490a" d="
  M 218.49 106.26
  C 218.64 108.84 217.17 110.11 215.85 112.04
  Q 213.96 114.82 211.50 117.22
  Q 214.22 111.13 218.49 106.26
  Z"
/>
<path fill="#126ac4" d="
  M 211.01 126.72
  Q 211.16 127.70 210.77 128.27
  Q 207.55 132.97 204.62 137.85
  Q 203.75 139.30 201.73 139.70
  Q 203.66 133.60 208.46 129.29
  Q 208.82 128.97 208.98 128.51
  Q 209.45 127.08 211.01 126.72
  Z"
/>
<path fill="#ba490a" d="
  M 211.65 126.87
  Q 212.23 126.51 212.53 126.99
  C 213.95 129.29 216.50 132.21 217.70 135.28
  Q 217.86 135.70 218.21 135.98
  C 219.28 136.83 219.58 138.78 220.44 139.97
  Q 219.03 140.03 218.32 138.93
  C 215.77 134.97 213.03 131.44 211.65 126.87
  Z"
/>
</svg>
