<?xml version="1.0" encoding="UTF-8" standalone="no"?>
<!DOCTYPE svg PUBLIC "-//W3C//DTD SVG 1.1//EN" "http://www.w3.org/Graphics/SVG/1.1/DTD/svg11.dtd">
<svg xmlns="http://www.w3.org/2000/svg" version="1.1" viewBox="0.00 0.00 279.00 104.00">
<g stroke-width="2.00" fill="none" stroke-linecap="butt">
<path stroke="#e5e4e5" vector-effect="non-scaling-stroke" d="
  M 40.70 0.00
  L 40.77 43.70
  Q 40.77 44.26 41.25 43.97
  Q 42.06 43.48 42.05 42.25
  Q 41.99 21.11 41.59 0.00"
/>
<path stroke="#e5e4e5" vector-effect="non-scaling-stroke" d="
  M 249.25 0.66
  A 0.26 0.26 0.0 0 0 248.99 0.40
  L 248.43 0.40
  A 0.26 0.26 0.0 0 0 248.17 0.66
  L 248.17 43.74
  A 0.26 0.26 0.0 0 0 248.43 44.00
  L 248.99 44.00
  A 0.26 0.26 0.0 0 0 249.25 43.74
  L 249.25 0.66"
/>
<path stroke="#808080" vector-effect="non-scaling-stroke" d="
  M 41.06 53.75
  L 249.37 53.75
  A 0.58 0.57 -0.5 0 0 249.95 53.17
  L 249.88 47.04
  A 0.68 0.68 0.0 0 0 249.20 46.37
  C 248.31 46.36 247.26 46.72 246.28 46.72
  Q 144.89 46.70 43.50 46.72
  Q 42.52 46.72 41.17 46.37
  A 0.87 0.86 7.4 0 0 40.09 47.20
  L 40.01 52.69
  Q 39.99 53.75 41.06 53.75"
/>
<path stroke="#e5e4e5" vector-effect="non-scaling-stroke" d="
  M 249.2099 57.1491
  A 0.45 0.45 0.0 0 0 248.7591 56.6999
  L 248.5591 56.7002
  A 0.45 0.45 0.0 0 0 248.1099 57.1510
  L 248.1901 103.1509
  A 0.45 0.45 0.0 0 0 248.6409 103.6001
  L 248.8409 103.5998
  A 0.45 0.45 0.0 0 0 249.2901 103.1490
  L 249.2099 57.1491"
/>
<path stroke="#e5e4e5" vector-effect="non-scaling-stroke" d="
  M 41.8799 57.6409
  A 0.27 0.27 0.0 0 0 41.6104 57.3705
  L 41.1104 57.3696
  A 0.27 0.27 0.0 0 0 40.8399 57.6391
  L 40.7601 103.3991
  A 0.27 0.27 0.0 0 0 41.0296 103.6695
  L 41.5296 103.6704
  A 0.27 0.27 0.0 0 0 41.8001 103.4009
  L 41.8799 57.6409"
/>
<path stroke="#e5e4e5" vector-effect="non-scaling-stroke" d="
  M 137.20 72.97
  Q 136.78 72.84 136.74 72.87
  A 1.20 1.19 48.9 0 0 136.64 74.45
  L 141.05 80.17"
/>
<path stroke="#808080" vector-effect="non-scaling-stroke" d="
  M 141.05 80.17
  L 141.78 81.14"
/>
<path stroke="#e5e4e5" vector-effect="non-scaling-stroke" d="
  M 141.78 81.14
  Q 141.99 82.11 142.66 82.83
  Q 143.00 83.19 142.92 83.68
  Q 142.73 84.83 142.02 86.13"
/>
<path stroke="#808080" vector-effect="non-scaling-stroke" d="
  M 142.02 86.13
  L 136.55 94.41
  Q 135.58 95.88 137.34 96.00
  L 138.07 96.04
  Q 139.95 96.17 140.94 94.57
  L 145.16 87.73
  A 0.76 0.76 0.0 0 1 146.45 87.73
  L 150.82 94.87
  Q 151.65 96.23 153.23 96.02
  L 154.53 95.85
  Q 155.98 95.66 155.15 94.45
  L 148.36 84.57"
/>
<path stroke="#e5e4e5" vector-effect="non-scaling-stroke" d="
  M 148.36 84.57
  Q 148.65 82.39 150.87 79.33"
/>
<path stroke="#808080" vector-effect="non-scaling-stroke" d="
  M 150.87 79.33
  L 155.13 73.77
  A 0.32 0.32 0.0 0 0 155.02 73.30
  Q 151.58 71.46 149.80 74.40"
/>
<path stroke="#e5e4e5" vector-effect="non-scaling-stroke" d="
  M 149.80 74.40
  Q 148.03 75.97 147.47 77.99"
/>
<path stroke="#808080" vector-effect="non-scaling-stroke" d="
  M 147.47 77.99
  Q 146.52 78.98 146.14 80.30
  A 0.43 0.43 0.0 0 1 145.36 80.40
  L 141.24 73.42
  Q 140.98 72.99 140.49 72.86
  Q 138.88 72.46 137.20 72.97"
/>
<path stroke="#656565" vector-effect="non-scaling-stroke" d="
  M 147.47 77.99
  Q 149.34 76.67 149.80 74.40"
/>
<path stroke="#656565" vector-effect="non-scaling-stroke" d="
  M 150.87 79.33
  L 147.44 82.70
  Q 147.07 83.07 147.09 83.59
  Q 147.14 84.94 148.36 84.57"
/>
<path stroke="#656565" vector-effect="non-scaling-stroke" d="
  M 142.02 86.13
  C 143.72 85.46 144.56 83.77 143.16 82.32
  Q 142.53 81.67 141.78 81.14"
/>
<path stroke="#656565" vector-effect="non-scaling-stroke" d="
  M 141.05 80.17
  Q 139.95 76.12 137.39 73.61
  Q 137.04 73.27 137.20 72.97"
/>
</g>
<path fill="#ffffff" d="
  M 0.00 0.00
  L 40.70 0.00
  L 40.77 43.70
  Q 40.77 44.26 41.25 43.97
  Q 42.06 43.48 42.05 42.25
  Q 41.99 21.11 41.59 0.00
  L 279.00 0.00
  L 279.00 104.00
  L 0.00 104.00
  L 0.00 0.00
  Z
  M 249.25 0.66
  A 0.26 0.26 0.0 0 0 248.99 0.40
  L 248.43 0.40
  A 0.26 0.26 0.0 0 0 248.17 0.66
  L 248.17 43.74
  A 0.26 0.26 0.0 0 0 248.43 44.00
  L 248.99 44.00
  A 0.26 0.26 0.0 0 0 249.25 43.74
  L 249.25 0.66
  Z
  M 41.06 53.75
  L 249.37 53.75
  A 0.58 0.57 -0.5 0 0 249.95 53.17
  L 249.88 47.04
  A 0.68 0.68 0.0 0 0 249.20 46.37
  C 248.31 46.36 247.26 46.72 246.28 46.72
  Q 144.89 46.70 43.50 46.72
  Q 42.52 46.72 41.17 46.37
  A 0.87 0.86 7.4 0 0 40.09 47.20
  L 40.01 52.69
  Q 39.99 53.75 41.06 53.75
  Z
  M 249.2099 57.1491
  A 0.45 0.45 0.0 0 0 248.7591 56.6999
  L 248.5591 56.7002
  A 0.45 0.45 0.0 0 0 248.1099 57.1510
  L 248.1901 103.1509
  A 0.45 0.45 0.0 0 0 248.6409 103.6001
  L 248.8409 103.5998
  A 0.45 0.45 0.0 0 0 249.2901 103.1490
  L 249.2099 57.1491
  Z
  M 41.8799 57.6409
  A 0.27 0.27 0.0 0 0 41.6104 57.3705
  L 41.1104 57.3696
  A 0.27 0.27 0.0 0 0 40.8399 57.6391
  L 40.7601 103.3991
  A 0.27 0.27 0.0 0 0 41.0296 103.6695
  L 41.5296 103.6704
  A 0.27 0.27 0.0 0 0 41.8001 103.4009
  L 41.8799 57.6409
  Z
  M 137.20 72.97
  Q 136.78 72.84 136.74 72.87
  A 1.20 1.19 48.9 0 0 136.64 74.45
  L 141.05 80.17
  L 141.78 81.14
  Q 141.99 82.11 142.66 82.83
  Q 143.00 83.19 142.92 83.68
  Q 142.73 84.83 142.02 86.13
  L 136.55 94.41
  Q 135.58 95.88 137.34 96.00
  L 138.07 96.04
  Q 139.95 96.17 140.94 94.57
  L 145.16 87.73
  A 0.76 0.76 0.0 0 1 146.45 87.73
  L 150.82 94.87
  Q 151.65 96.23 153.23 96.02
  L 154.53 95.85
  Q 155.98 95.66 155.15 94.45
  L 148.36 84.57
  Q 148.65 82.39 150.87 79.33
  L 155.13 73.77
  A 0.32 0.32 0.0 0 0 155.02 73.30
  Q 151.58 71.46 149.80 74.40
  Q 148.03 75.97 147.47 77.99
  Q 146.52 78.98 146.14 80.30
  A 0.43 0.43 0.0 0 1 145.36 80.40
  L 141.24 73.42
  Q 140.98 72.99 140.49 72.86
  Q 138.88 72.46 137.20 72.97
  Z"
/>
<path fill="#cac9ca" d="
  M 40.70 0.00
  Q 41.14 0.00 41.59 0.00
  Q 41.99 21.11 42.05 42.25
  Q 42.06 43.48 41.25 43.97
  Q 40.77 44.26 40.77 43.70
  L 40.70 0.00
  Z"
/>
<rect fill="#cac9ca" x="248.17" y="0.40" width="1.08" height="43.60" rx="0.26"/>
<path fill="#000000" d="
  M 41.06 53.75
  Q 39.99 53.75 40.01 52.69
  L 40.09 47.20
  A 0.87 0.86 7.4 0 1 41.17 46.37
  Q 42.52 46.72 43.50 46.72
  Q 144.89 46.70 246.28 46.72
  C 247.26 46.72 248.31 46.36 249.20 46.37
  A 0.68 0.68 0.0 0 1 249.88 47.04
  L 249.95 53.17
  A 0.58 0.57 -0.5 0 1 249.37 53.75
  L 41.06 53.75
  Z"
/>
<rect fill="#cac9ca" x="-0.55" y="-23.45" transform="translate(248.70,80.15) rotate(-0.1)" width="1.10" height="46.90" rx="0.45"/>
<rect fill="#cac9ca" x="-0.52" y="-23.15" transform="translate(41.32,80.52) rotate(0.1)" width="1.04" height="46.30" rx="0.27"/>
<path fill="#000000" d="
  M 147.47 77.99
  Q 149.34 76.67 149.80 74.40
  Q 151.58 71.46 155.02 73.30
  A 0.32 0.32 0.0 0 1 155.13 73.77
  L 150.87 79.33
  L 147.44 82.70
  Q 147.07 83.07 147.09 83.59
  Q 147.14 84.94 148.36 84.57
  L 155.15 94.45
  Q 155.98 95.66 154.53 95.85
  L 153.23 96.02
  Q 151.65 96.23 150.82 94.87
  L 146.45 87.73
  A 0.76 0.76 0.0 0 0 145.16 87.73
  L 140.94 94.57
  Q 139.95 96.17 138.07 96.04
  L 137.34 96.00
  Q 135.58 95.88 136.55 94.41
  L 142.02 86.13
  C 143.72 85.46 144.56 83.77 143.16 82.32
  Q 142.53 81.67 141.78 81.14
  L 141.05 80.17
  Q 139.95 76.12 137.39 73.61
  Q 137.04 73.27 137.20 72.97
  Q 138.88 72.46 140.49 72.86
  Q 140.98 72.99 141.24 73.42
  L 145.36 80.40
  A 0.43 0.43 0.0 0 0 146.14 80.30
  Q 146.52 78.98 147.47 77.99
  Z"
/>
<path fill="#cac9ca" d="
  M 137.20 72.97
  Q 137.04 73.27 137.39 73.61
  Q 139.95 76.12 141.05 80.17
  L 136.64 74.45
  A 1.20 1.19 48.9 0 1 136.74 72.87
  Q 136.78 72.84 137.20 72.97
  Z"
/>
<path fill="#cac9ca" d="
  M 149.80 74.40
  Q 149.34 76.67 147.47 77.99
  Q 148.03 75.97 149.80 74.40
  Z"
/>
<path fill="#cac9ca" d="
  M 150.87 79.33
  Q 148.65 82.39 148.36 84.57
  Q 147.14 84.94 147.09 83.59
  Q 147.07 83.07 147.44 82.70
  L 150.87 79.33
  Z"
/>
<path fill="#cac9ca" d="
  M 141.78 81.14
  Q 142.53 81.67 143.16 82.32
  C 144.56 83.77 143.72 85.46 142.02 86.13
  Q 142.73 84.83 142.92 83.68
  Q 143.00 83.19 142.66 82.83
  Q 141.99 82.11 141.78 81.14
  Z"
/>
</svg>
