<?xml version="1.0" encoding="UTF-8" standalone="no"?>
<!DOCTYPE svg PUBLIC "-//W3C//DTD SVG 1.1//EN" "http://www.w3.org/Graphics/SVG/1.1/DTD/svg11.dtd">
<svg xmlns="http://www.w3.org/2000/svg" version="1.1" viewBox="0.00 0.00 384.00 138.00">
<g stroke-width="2.00" fill="none" stroke-linecap="butt">
<path stroke="#e6e5e5" vector-effect="non-scaling-stroke" d="
  M 73.20 0.73
  A 0.36 0.36 0.0 0 0 72.84 0.37
  L 72.30 0.37
  A 0.36 0.36 0.0 0 0 71.94 0.73
  L 71.94 58.19
  A 0.36 0.36 0.0 0 0 72.30 58.55
  L 72.84 58.55
  A 0.36 0.36 0.0 0 0 73.20 58.19
  L 73.20 0.73"
/>
<path stroke="#e6e5e5" vector-effect="non-scaling-stroke" d="
  M 325.0299 0.7190
  A 0.26 0.26 0.0 0 0 324.7694 0.4595
  L 324.1494 0.4606
  A 0.26 0.26 0.0 0 0 323.8899 0.7210
  L 323.9901 58.1610
  A 0.26 0.26 0.0 0 0 324.2506 58.4205
  L 324.8706 58.4194
  A 0.26 0.26 0.0 0 0 325.1301 58.1590
  L 325.0299 0.7190"
/>
<path stroke="#808080" vector-effect="non-scaling-stroke" d="
  M 36.67 85.56
  Q 36.12 86.38 36.50 86.75
  Q 38.00 88.22 40.36 87.60"
/>
<path stroke="#85aedb" vector-effect="non-scaling-stroke" d="
  M 40.36 87.60
  Q 41.65 87.91 42.46 86.69
  C 43.08 85.75 47.76 79.07 47.87 76.67"
/>
<path stroke="#808080" vector-effect="non-scaling-stroke" d="
  M 47.87 76.67
  Q 48.30 76.21 48.87 76.72"
/>
<path stroke="#eaad87" vector-effect="non-scaling-stroke" d="
  M 48.87 76.72
  C 49.77 79.24 53.45 88.10 56.74 87.62"
/>
<path stroke="#808080" vector-effect="non-scaling-stroke" d="
  M 56.74 87.62
  Q 57.66 87.80 58.28 87.54"
/>
<path stroke="#85aedb" vector-effect="non-scaling-stroke" d="
  M 58.28 87.54
  Q 59.59 87.53 60.05 86.89
  Q 60.33 86.50 60.06 86.09
  L 51.76 73.95
  A 1.91 1.90 -44.6 0 1 51.78 71.76
  L 59.65 60.64
  Q 59.93 60.24 59.63 59.86
  Q 59.25 59.38 58.45 59.37"
/>
<path stroke="#808080" vector-effect="non-scaling-stroke" d="
  M 58.45 59.37
  L 57.22 59.34"
/>
<path stroke="#85aedb" vector-effect="non-scaling-stroke" d="
  M 57.22 59.34
  L 55.20 59.36
  Q 54.64 59.37 54.32 59.83
  L 48.43 68.17
  A 0.34 0.33 -42.6 0 1 47.87 68.15
  L 42.93 60.07
  Q 42.65 59.61 42.14 59.42
  Q 41.75 59.28 41.46 59.28"
/>
<path stroke="#808080" vector-effect="non-scaling-stroke" d="
  M 41.46 59.28
  L 39.54 59.36"
/>
<path stroke="#eaad87" vector-effect="non-scaling-stroke" d="
  M 39.54 59.36
  Q 37.79 59.21 37.10 60.10
  Q 36.80 60.48 37.08 60.88
  L 44.90 72.20
  Q 45.23 72.69 44.91 73.18
  L 36.67 85.56"
/>
<path stroke="#6a2d08" vector-effect="non-scaling-stroke" d="
  M 39.54 59.36
  Q 38.89 60.25 39.13 60.74
  Q 40.69 63.91 43.74 67.79
  C 44.42 68.66 44.75 69.86 45.51 71.01
  C 47.12 73.45 45.27 74.98 44.33 76.73
  Q 43.53 78.23 42.24 79.37
  Q 42.12 79.47 42.12 79.62
  L 42.12 80.02
  Q 42.12 80.30 41.91 80.50
  Q 39.98 82.40 38.88 84.88
  Q 38.69 85.31 38.31 85.57
  Q 36.44 86.85 36.67 85.56"
/>
<path stroke="#062f5b" vector-effect="non-scaling-stroke" d="
  M 41.46 59.28
  Q 43.50 64.30 47.50 68.99
  A 0.92 0.92 0.0 0 0 48.94 68.94
  L 55.67 59.80
  Q 55.97 59.39 56.47 59.37
  L 57.22 59.34"
/>
<path stroke="#062f5b" vector-effect="non-scaling-stroke" d="
  M 58.45 59.37
  L 58.49 60.29
  A 0.88 0.88 0.0 0 1 58.13 61.02
  C 54.98 63.33 54.24 66.83 51.55 69.52
  A 1.55 1.53 74.4 0 0 51.14 70.26
  Q 50.98 71.01 50.27 71.16
  A 1.23 1.23 0.0 0 0 49.73 73.29
  Q 51.81 75.08 53.10 78.02
  Q 53.23 78.31 53.48 78.37
  Q 53.81 78.44 53.95 78.75
  Q 55.82 82.95 58.09 85.65
  Q 59.05 86.78 58.28 87.54"
/>
<path stroke="#6a2d08" vector-effect="non-scaling-stroke" d="
  M 56.74 87.62
  Q 55.50 87.35 55.18 85.84
  Q 55.07 85.34 54.75 84.94
  C 52.57 82.28 51.70 79.71 48.87 76.72"
/>
<path stroke="#062f5b" vector-effect="non-scaling-stroke" d="
  M 47.87 76.67
  Q 46.44 77.09 46.01 78.06
  Q 45.85 78.42 45.57 78.71
  Q 41.85 82.53 40.36 87.60"
/>
<path stroke="#808080" vector-effect="non-scaling-stroke" d="
  M 339.27 87.53
  L 342.60 87.87"
/>
<path stroke="#85aedb" vector-effect="non-scaling-stroke" d="
  M 342.60 87.87
  Q 346.54 83.47 348.97 77.70"
/>
<path stroke="#808080" vector-effect="non-scaling-stroke" d="
  M 348.97 77.70
  Q 349.26 77.10 349.71 76.87
  Q 350.23 76.60 350.57 77.08
  L 351.50 78.40"
/>
<path stroke="#eaad87" vector-effect="non-scaling-stroke" d="
  M 351.50 78.40
  Q 352.79 83.79 356.47 87.01"
/>
<path stroke="#808080" vector-effect="non-scaling-stroke" d="
  M 356.47 87.01
  Q 358.67 88.33 360.77 87.57"
/>
<path stroke="#85aedb" vector-effect="non-scaling-stroke" d="
  M 360.77 87.57
  Q 361.34 87.50 361.54 86.98
  Q 361.71 86.56 361.46 86.17
  L 353.31 73.75
  Q 352.73 72.86 353.34 71.98
  L 360.47 61.73"
/>
<path stroke="#808080" vector-effect="non-scaling-stroke" d="
  M 360.47 61.73
  Q 361.34 61.26 361.07 60.48
  Q 360.90 59.97 360.24 59.68
  Q 357.06 58.29 355.10 60.62
  Q 353.78 62.19 350.44 68.48
  Q 350.19 68.97 349.64 68.90
  Q 349.16 68.85 348.80 68.33"
/>
<path stroke="#85aedb" vector-effect="non-scaling-stroke" d="
  M 348.80 68.33
  L 344.50 60.02
  Q 344.31 59.63 343.88 59.57
  L 342.45 59.34"
/>
<path stroke="#808080" vector-effect="non-scaling-stroke" d="
  M 342.45 59.34
  Q 341.52 59.22 340.76 59.37"
/>
<path stroke="#eaad87" vector-effect="non-scaling-stroke" d="
  M 340.76 59.37
  Q 339.27 59.38 338.64 59.90
  A 0.72 0.71 53.2 0 0 338.51 60.85
  L 345.96 71.86
  A 1.89 1.87 43.3 0 1 346.03 73.87
  Q 342.65 79.64 338.22 85.47
  Q 337.19 86.83 339.27 87.53"
/>
<path stroke="#6a2d08" vector-effect="non-scaling-stroke" d="
  M 340.76 59.37
  Q 339.87 59.75 339.99 60.47
  Q 340.06 60.88 340.64 61.39
  C 342.62 63.09 344.57 67.28 345.78 69.68
  A 1.42 1.37 87.6 0 0 346.47 70.34
  Q 348.75 71.33 348.36 73.79
  Q 348.28 74.32 347.87 74.67
  L 345.83 76.44
  Q 345.49 76.74 345.31 77.14
  Q 344.44 79.03 343.07 80.59
  A 2.55 2.53 -15.7 0 0 342.57 81.47
  Q 341.83 83.81 339.43 85.66
  Q 338.63 86.27 339.27 87.53"
/>
<path stroke="#062f5b" vector-effect="non-scaling-stroke" d="
  M 342.45 59.34
  Q 342.93 59.61 342.99 59.76
  Q 345.02 65.08 348.80 68.33"
/>
<path stroke="#062f5b" vector-effect="non-scaling-stroke" d="
  M 360.47 61.73
  L 359.58 61.63
  Q 359.07 61.57 358.71 61.94
  Q 354.95 65.76 352.06 70.28
  C 350.94 72.03 351.06 73.48 352.41 75.16
  Q 355.46 78.95 356.21 80.40
  Q 358.85 85.47 360.77 87.57"
/>
<path stroke="#6a2d08" vector-effect="non-scaling-stroke" d="
  M 356.47 87.01
  Q 356.45 84.94 355.87 83.92
  Q 354.62 81.72 351.50 78.40"
/>
<path stroke="#062f5b" vector-effect="non-scaling-stroke" d="
  M 348.97 77.70
  Q 345.40 80.33 343.59 83.72
  Q 342.87 85.08 342.60 87.87"
/>
<path stroke="#808080" vector-effect="non-scaling-stroke" d="
  M 325.47 61.69
  Q 321.82 62.06 319.75 62.06
  Q 197.37 62.08 75.00 62.05
  C 73.97 62.05 73.01 61.72 71.94 61.54
  Q 71.30 61.44 71.29 62.09
  L 71.24 70.43
  A 0.76 0.75 -9.1 0 0 72.24 71.15
  Q 73.08 70.87 74.25 70.87
  Q 197.94 70.62 321.64 70.67
  C 322.84 70.67 323.78 70.91 325.00 71.13
  A 0.74 0.74 0.0 0 0 325.87 70.41
  L 325.91 62.08
  A 0.40 0.39 -2.7 0 0 325.47 61.69"
/>
<path stroke="#e6e5e5" vector-effect="non-scaling-stroke" d="
  M 325.1048 74.4110
  A 0.26 0.26 0.0 0 0 324.8453 74.1506
  L 324.2453 74.1495
  A 0.26 0.26 0.0 0 0 323.9848 74.4091
  L 323.8752 137.2090
  A 0.26 0.26 0.0 0 0 324.1347 137.4694
  L 324.7347 137.4705
  A 0.26 0.26 0.0 0 0 324.9952 137.2109
  L 325.1048 74.4110"
/>
<path stroke="#e6e5e5" vector-effect="non-scaling-stroke" d="
  M 73.15 74.95
  A 0.39 0.39 0.0 0 0 72.76 74.56
  L 72.42 74.56
  A 0.39 0.39 0.0 0 0 72.03 74.95
  L 72.03 137.07
  A 0.39 0.39 0.0 0 0 72.42 137.46
  L 72.76 137.46
  A 0.39 0.39 0.0 0 0 73.15 137.07
  L 73.15 74.95"
/>
<path stroke="#eaad87" vector-effect="non-scaling-stroke" d="
  M 189.09 94.02
  Q 188.08 94.15 188.13 95.08
  A 0.45 0.44 25.8 0 0 188.21 95.30
  L 196.09 106.38
  A 1.33 1.31 -46.9 0 1 196.13 107.86
  C 193.74 111.64 191.37 116.12 188.11 119.37
  Q 187.45 120.02 187.43 120.54
  Q 187.40 121.36 188.49 121.77"
/>
<path stroke="#808080" vector-effect="non-scaling-stroke" d="
  M 188.49 121.77
  Q 190.21 122.25 192.23 121.85"
/>
<path stroke="#85aedb" vector-effect="non-scaling-stroke" d="
  M 192.23 121.85
  Q 196.41 118.07 198.43 112.26"
/>
<path stroke="#808080" vector-effect="non-scaling-stroke" d="
  M 198.43 112.26
  Q 199.60 110.10 200.22 111.26"
/>
<path stroke="#eaad87" vector-effect="non-scaling-stroke" d="
  M 200.22 111.26
  Q 202.04 116.69 205.88 121.04"
/>
<path stroke="#808080" vector-effect="non-scaling-stroke" d="
  M 205.88 121.04
  Q 207.12 122.48 209.30 121.99"
/>
<path stroke="#85aedb" vector-effect="non-scaling-stroke" d="
  M 209.30 121.99
  Q 210.42 122.12 211.30 121.30
  A 0.85 0.84 48.3 0 0 211.36 120.13
  Q 206.52 114.45 202.97 107.86
  Q 202.72 107.39 202.88 106.87
  C 203.34 105.34 204.56 104.03 205.19 103.03
  Q 207.77 99.02 210.81 95.47
  A 0.91 0.90 -53.2 0 0 210.62 94.13
  Q 210.07 93.77 209.80 94.02"
/>
<path stroke="#808080" vector-effect="non-scaling-stroke" d="
  M 209.80 94.02
  C 205.23 92.26 203.75 96.91 201.82 99.71"
/>
<path stroke="#eaad87" vector-effect="non-scaling-stroke" d="
  M 201.82 99.71
  Q 200.45 100.91 200.01 103.06"
/>
<path stroke="#808080" vector-effect="non-scaling-stroke" d="
  M 200.01 103.06
  Q 199.05 103.36 198.31 102.25"
/>
<path stroke="#85aedb" vector-effect="non-scaling-stroke" d="
  M 198.31 102.25
  Q 196.50 96.00 192.29 93.51"
/>
<path stroke="#808080" vector-effect="non-scaling-stroke" d="
  M 192.29 93.51
  L 189.09 94.02"
/>
<path stroke="#062f5b" vector-effect="non-scaling-stroke" d="
  M 192.29 93.51
  Q 193.37 94.99 194.36 97.38
  Q 195.38 99.85 198.31 102.25"
/>
<path stroke="#6a2d08" vector-effect="non-scaling-stroke" d="
  M 200.01 103.06
  Q 201.99 101.72 201.82 99.71"
/>
<path stroke="#062f5b" vector-effect="non-scaling-stroke" d="
  M 209.80 94.02
  Q 209.45 95.14 208.60 95.88
  C 206.19 97.95 204.49 101.16 203.06 103.97
  Q 202.87 104.35 202.52 104.60
  L 201.13 105.59
  A 1.54 1.54 0.0 0 0 201.12 108.10
  L 202.54 109.12
  Q 202.93 109.40 203.13 109.84
  L 205.05 114.07
  Q 205.21 114.41 205.58 114.36
  Q 206.05 114.29 206.12 114.75
  Q 206.36 116.38 207.54 117.32
  Q 207.85 117.57 207.99 117.93
  C 208.49 119.18 209.65 120.39 209.30 121.99"
/>
<path stroke="#6a2d08" vector-effect="non-scaling-stroke" d="
  M 205.88 121.04
  Q 204.72 115.55 200.22 111.26"
/>
<path stroke="#062f5b" vector-effect="non-scaling-stroke" d="
  M 198.43 112.26
  Q 193.04 116.02 192.23 121.85"
/>
<path stroke="#6a2d08" vector-effect="non-scaling-stroke" d="
  M 188.49 121.77
  Q 189.13 120.40 190.26 119.49
  A 1.57 1.49 82.6 0 0 190.72 118.86
  C 192.02 115.46 195.01 111.99 197.15 109.01
  Q 197.80 108.12 197.49 106.36
  C 197.11 104.17 194.46 102.41 193.67 100.98
  Q 191.90 97.74 191.01 96.31
  A 1.16 1.14 77.2 0 0 190.19 95.78
  Q 189.07 95.64 189.09 94.02"
/>
</g>
<path fill="#ffffff" d="
  M 0.00 0.00
  L 384.00 0.00
  L 384.00 138.00
  L 0.00 138.00
  L 0.00 0.00
  Z
  M 73.20 0.73
  A 0.36 0.36 0.0 0 0 72.84 0.37
  L 72.30 0.37
  A 0.36 0.36 0.0 0 0 71.94 0.73
  L 71.94 58.19
  A 0.36 0.36 0.0 0 0 72.30 58.55
  L 72.84 58.55
  A 0.36 0.36 0.0 0 0 73.20 58.19
  L 73.20 0.73
  Z
  M 325.0299 0.7190
  A 0.26 0.26 0.0 0 0 324.7694 0.4595
  L 324.1494 0.4606
  A 0.26 0.26 0.0 0 0 323.8899 0.7210
  L 323.9901 58.1610
  A 0.26 0.26 0.0 0 0 324.2506 58.4205
  L 324.8706 58.4194
  A 0.26 0.26 0.0 0 0 325.1301 58.1590
  L 325.0299 0.7190
  Z
  M 36.67 85.56
  Q 36.12 86.38 36.50 86.75
  Q 38.00 88.22 40.36 87.60
  Q 41.65 87.91 42.46 86.69
  C 43.08 85.75 47.76 79.07 47.87 76.67
  Q 48.30 76.21 48.87 76.72
  C 49.77 79.24 53.45 88.10 56.74 87.62
  Q 57.66 87.80 58.28 87.54
  Q 59.59 87.53 60.05 86.89
  Q 60.33 86.50 60.06 86.09
  L 51.76 73.95
  A 1.91 1.90 -44.6 0 1 51.78 71.76
  L 59.65 60.64
  Q 59.93 60.24 59.63 59.86
  Q 59.25 59.38 58.45 59.37
  L 57.22 59.34
  L 55.20 59.36
  Q 54.64 59.37 54.32 59.83
  L 48.43 68.17
  A 0.34 0.33 -42.6 0 1 47.87 68.15
  L 42.93 60.07
  Q 42.65 59.61 42.14 59.42
  Q 41.75 59.28 41.46 59.28
  L 39.54 59.36
  Q 37.79 59.21 37.10 60.10
  Q 36.80 60.48 37.08 60.88
  L 44.90 72.20
  Q 45.23 72.69 44.91 73.18
  L 36.67 85.56
  Z
  M 339.27 87.53
  L 342.60 87.87
  Q 346.54 83.47 348.97 77.70
  Q 349.26 77.10 349.71 76.87
  Q 350.23 76.60 350.57 77.08
  L 351.50 78.40
  Q 352.79 83.79 356.47 87.01
  Q 358.67 88.33 360.77 87.57
  Q 361.34 87.50 361.54 86.98
  Q 361.71 86.56 361.46 86.17
  L 353.31 73.75
  Q 352.73 72.86 353.34 71.98
  L 360.47 61.73
  Q 361.34 61.26 361.07 60.48
  Q 360.90 59.97 360.24 59.68
  Q 357.06 58.29 355.10 60.62
  Q 353.78 62.19 350.44 68.48
  Q 350.19 68.97 349.64 68.90
  Q 349.16 68.85 348.80 68.33
  L 344.50 60.02
  Q 344.31 59.63 343.88 59.57
  L 342.45 59.34
  Q 341.52 59.22 340.76 59.37
  Q 339.27 59.38 338.64 59.90
  A 0.72 0.71 53.2 0 0 338.51 60.85
  L 345.96 71.86
  A 1.89 1.87 43.3 0 1 346.03 73.87
  Q 342.65 79.64 338.22 85.47
  Q 337.19 86.83 339.27 87.53
  Z
  M 325.47 61.69
  Q 321.82 62.06 319.75 62.06
  Q 197.37 62.08 75.00 62.05
  C 73.97 62.05 73.01 61.72 71.94 61.54
  Q 71.30 61.44 71.29 62.09
  L 71.24 70.43
  A 0.76 0.75 -9.1 0 0 72.24 71.15
  Q 73.08 70.87 74.25 70.87
  Q 197.94 70.62 321.64 70.67
  C 322.84 70.67 323.78 70.91 325.00 71.13
  A 0.74 0.74 0.0 0 0 325.87 70.41
  L 325.91 62.08
  A 0.40 0.39 -2.7 0 0 325.47 61.69
  Z
  M 325.1048 74.4110
  A 0.26 0.26 0.0 0 0 324.8453 74.1506
  L 324.2453 74.1495
  A 0.26 0.26 0.0 0 0 323.9848 74.4091
  L 323.8752 137.2090
  A 0.26 0.26 0.0 0 0 324.1347 137.4694
  L 324.7347 137.4705
  A 0.26 0.26 0.0 0 0 324.9952 137.2109
  L 325.1048 74.4110
  Z
  M 73.15 74.95
  A 0.39 0.39 0.0 0 0 72.76 74.56
  L 72.42 74.56
  A 0.39 0.39 0.0 0 0 72.03 74.95
  L 72.03 137.07
  A 0.39 0.39 0.0 0 0 72.42 137.46
  L 72.76 137.46
  A 0.39 0.39 0.0 0 0 73.15 137.07
  L 73.15 74.95
  Z
  M 189.09 94.02
  Q 188.08 94.15 188.13 95.08
  A 0.45 0.44 25.8 0 0 188.21 95.30
  L 196.09 106.38
  A 1.33 1.31 -46.9 0 1 196.13 107.86
  C 193.74 111.64 191.37 116.12 188.11 119.37
  Q 187.45 120.02 187.43 120.54
  Q 187.40 121.36 188.49 121.77
  Q 190.21 122.25 192.23 121.85
  Q 196.41 118.07 198.43 112.26
  Q 199.60 110.10 200.22 111.26
  Q 202.04 116.69 205.88 121.04
  Q 207.12 122.48 209.30 121.99
  Q 210.42 122.12 211.30 121.30
  A 0.85 0.84 48.3 0 0 211.36 120.13
  Q 206.52 114.45 202.97 107.86
  Q 202.72 107.39 202.88 106.87
  C 203.34 105.34 204.56 104.03 205.19 103.03
  Q 207.77 99.02 210.81 95.47
  A 0.91 0.90 -53.2 0 0 210.62 94.13
  Q 210.07 93.77 209.80 94.02
  C 205.23 92.26 203.75 96.91 201.82 99.71
  Q 200.45 100.91 200.01 103.06
  Q 199.05 103.36 198.31 102.25
  Q 196.50 96.00 192.29 93.51
  L 189.09 94.02
  Z"
/>
<rect fill="#cdcacb" x="71.94" y="0.37" width="1.26" height="58.18" rx="0.36"/>
<rect fill="#cdcacb" x="-0.57" y="-28.98" transform="translate(324.51,29.44) rotate(-0.1)" width="1.14" height="57.96" rx="0.26"/>
<path fill="#d45a0f" d="
  M 39.54 59.36
  Q 38.89 60.25 39.13 60.74
  Q 40.69 63.91 43.74 67.79
  C 44.42 68.66 44.75 69.86 45.51 71.01
  C 47.12 73.45 45.27 74.98 44.33 76.73
  Q 43.53 78.23 42.24 79.37
  Q 42.12 79.47 42.12 79.62
  L 42.12 80.02
  Q 42.12 80.30 41.91 80.50
  Q 39.98 82.40 38.88 84.88
  Q 38.69 85.31 38.31 85.57
  Q 36.44 86.85 36.67 85.56
  L 44.91 73.18
  Q 45.23 72.69 44.90 72.20
  L 37.08 60.88
  Q 36.80 60.48 37.10 60.10
  Q 37.79 59.21 39.54 59.36
  Z"
/>
<path fill="#000000" d="
  M 39.54 59.36
  L 41.46 59.28
  Q 43.50 64.30 47.50 68.99
  A 0.92 0.92 0.0 0 0 48.94 68.94
  L 55.67 59.80
  Q 55.97 59.39 56.47 59.37
  L 57.22 59.34
  L 58.45 59.37
  L 58.49 60.29
  A 0.88 0.88 0.0 0 1 58.13 61.02
  C 54.98 63.33 54.24 66.83 51.55 69.52
  A 1.55 1.53 74.4 0 0 51.14 70.26
  Q 50.98 71.01 50.27 71.16
  A 1.23 1.23 0.0 0 0 49.73 73.29
  Q 51.81 75.08 53.10 78.02
  Q 53.23 78.31 53.48 78.37
  Q 53.81 78.44 53.95 78.75
  Q 55.82 82.95 58.09 85.65
  Q 59.05 86.78 58.28 87.54
  Q 57.66 87.80 56.74 87.62
  Q 55.50 87.35 55.18 85.84
  Q 55.07 85.34 54.75 84.94
  C 52.57 82.28 51.70 79.71 48.87 76.72
  Q 48.30 76.21 47.87 76.67
  Q 46.44 77.09 46.01 78.06
  Q 45.85 78.42 45.57 78.71
  Q 41.85 82.53 40.36 87.60
  Q 38.00 88.22 36.50 86.75
  Q 36.12 86.38 36.67 85.56
  Q 36.44 86.85 38.31 85.57
  Q 38.69 85.31 38.88 84.88
  Q 39.98 82.40 41.91 80.50
  Q 42.12 80.30 42.12 80.02
  L 42.12 79.62
  Q 42.12 79.47 42.24 79.37
  Q 43.53 78.23 44.33 76.73
  C 45.27 74.98 47.12 73.45 45.51 71.01
  C 44.75 69.86 44.42 68.66 43.74 67.79
  Q 40.69 63.91 39.13 60.74
  Q 38.89 60.25 39.54 59.36
  Z"
/>
<path fill="#0b5db6" d="
  M 41.46 59.28
  Q 41.75 59.28 42.14 59.42
  Q 42.65 59.61 42.93 60.07
  L 47.87 68.15
  A 0.34 0.33 -42.6 0 0 48.43 68.17
  L 54.32 59.83
  Q 54.64 59.37 55.20 59.36
  L 57.22 59.34
  L 56.47 59.37
  Q 55.97 59.39 55.67 59.80
  L 48.94 68.94
  A 0.92 0.92 0.0 0 1 47.50 68.99
  Q 43.50 64.30 41.46 59.28
  Z"
/>
<path fill="#0b5db6" d="
  M 58.45 59.37
  Q 59.25 59.38 59.63 59.86
  Q 59.93 60.24 59.65 60.64
  L 51.78 71.76
  A 1.91 1.90 -44.6 0 0 51.76 73.95
  L 60.06 86.09
  Q 60.33 86.50 60.05 86.89
  Q 59.59 87.53 58.28 87.54
  Q 59.05 86.78 58.09 85.65
  Q 55.82 82.95 53.95 78.75
  Q 53.81 78.44 53.48 78.37
  Q 53.23 78.31 53.10 78.02
  Q 51.81 75.08 49.73 73.29
  A 1.23 1.23 0.0 0 1 50.27 71.16
  Q 50.98 71.01 51.14 70.26
  A 1.55 1.53 74.4 0 1 51.55 69.52
  C 54.24 66.83 54.98 63.33 58.13 61.02
  A 0.88 0.88 0.0 0 0 58.49 60.29
  L 58.45 59.37
  Z"
/>
<path fill="#d45a0f" d="
  M 340.76 59.37
  Q 339.87 59.75 339.99 60.47
  Q 340.06 60.88 340.64 61.39
  C 342.62 63.09 344.57 67.28 345.78 69.68
  A 1.42 1.37 87.6 0 0 346.47 70.34
  Q 348.75 71.33 348.36 73.79
  Q 348.28 74.32 347.87 74.67
  L 345.83 76.44
  Q 345.49 76.74 345.31 77.14
  Q 344.44 79.03 343.07 80.59
  A 2.55 2.53 -15.7 0 0 342.57 81.47
  Q 341.83 83.81 339.43 85.66
  Q 338.63 86.27 339.27 87.53
  Q 337.19 86.83 338.22 85.47
  Q 342.65 79.64 346.03 73.87
  A 1.89 1.87 43.3 0 0 345.96 71.86
  L 338.51 60.85
  A 0.72 0.71 53.2 0 1 338.64 59.90
  Q 339.27 59.38 340.76 59.37
  Z"
/>
<path fill="#000000" d="
  M 340.76 59.37
  Q 341.52 59.22 342.45 59.34
  Q 342.93 59.61 342.99 59.76
  Q 345.02 65.08 348.80 68.33
  Q 349.16 68.85 349.64 68.90
  Q 350.19 68.97 350.44 68.48
  Q 353.78 62.19 355.10 60.62
  Q 357.06 58.29 360.24 59.68
  Q 360.90 59.97 361.07 60.48
  Q 361.34 61.26 360.47 61.73
  L 359.58 61.63
  Q 359.07 61.57 358.71 61.94
  Q 354.95 65.76 352.06 70.28
  C 350.94 72.03 351.06 73.48 352.41 75.16
  Q 355.46 78.95 356.21 80.40
  Q 358.85 85.47 360.77 87.57
  Q 358.67 88.33 356.47 87.01
  Q 356.45 84.94 355.87 83.92
  Q 354.62 81.72 351.50 78.40
  L 350.57 77.08
  Q 350.23 76.60 349.71 76.87
  Q 349.26 77.10 348.97 77.70
  Q 345.40 80.33 343.59 83.72
  Q 342.87 85.08 342.60 87.87
  L 339.27 87.53
  Q 338.63 86.27 339.43 85.66
  Q 341.83 83.81 342.57 81.47
  A 2.55 2.53 -15.7 0 1 343.07 80.59
  Q 344.44 79.03 345.31 77.14
  Q 345.49 76.74 345.83 76.44
  L 347.87 74.67
  Q 348.28 74.32 348.36 73.79
  Q 348.75 71.33 346.47 70.34
  A 1.42 1.37 87.6 0 1 345.78 69.68
  C 344.57 67.28 342.62 63.09 340.64 61.39
  Q 340.06 60.88 339.99 60.47
  Q 339.87 59.75 340.76 59.37
  Z"
/>
<path fill="#0b5db6" d="
  M 342.45 59.34
  L 343.88 59.57
  Q 344.31 59.63 344.50 60.02
  L 348.80 68.33
  Q 345.02 65.08 342.99 59.76
  Q 342.93 59.61 342.45 59.34
  Z"
/>
<path fill="#000000" d="
  M 325.47 61.69
  A 0.40 0.39 -2.7 0 1 325.91 62.08
  L 325.87 70.41
  A 0.74 0.74 0.0 0 1 325.00 71.13
  C 323.78 70.91 322.84 70.67 321.64 70.67
  Q 197.94 70.62 74.25 70.87
  Q 73.08 70.87 72.24 71.15
  A 0.76 0.75 -9.1 0 1 71.24 70.43
  L 71.29 62.09
  Q 71.30 61.44 71.94 61.54
  C 73.01 61.72 73.97 62.05 75.00 62.05
  Q 197.37 62.08 319.75 62.06
  Q 321.82 62.06 325.47 61.69
  Z"
/>
<path fill="#0b5db6" d="
  M 360.47 61.73
  L 353.34 71.98
  Q 352.73 72.86 353.31 73.75
  L 361.46 86.17
  Q 361.71 86.56 361.54 86.98
  Q 361.34 87.50 360.77 87.57
  Q 358.85 85.47 356.21 80.40
  Q 355.46 78.95 352.41 75.16
  C 351.06 73.48 350.94 72.03 352.06 70.28
  Q 354.95 65.76 358.71 61.94
  Q 359.07 61.57 359.58 61.63
  L 360.47 61.73
  Z"
/>
<rect fill="#cdcacb" x="-0.56" y="-31.66" transform="translate(324.49,105.81) rotate(0.1)" width="1.12" height="63.32" rx="0.26"/>
<rect fill="#cdcacb" x="72.03" y="74.56" width="1.12" height="62.90" rx="0.39"/>
<path fill="#0b5db6" d="
  M 47.87 76.67
  C 47.76 79.07 43.08 85.75 42.46 86.69
  Q 41.65 87.91 40.36 87.60
  Q 41.85 82.53 45.57 78.71
  Q 45.85 78.42 46.01 78.06
  Q 46.44 77.09 47.87 76.67
  Z"
/>
<path fill="#d45a0f" d="
  M 48.87 76.72
  C 51.70 79.71 52.57 82.28 54.75 84.94
  Q 55.07 85.34 55.18 85.84
  Q 55.50 87.35 56.74 87.62
  C 53.45 88.10 49.77 79.24 48.87 76.72
  Z"
/>
<path fill="#0b5db6" d="
  M 348.97 77.70
  Q 346.54 83.47 342.60 87.87
  Q 342.87 85.08 343.59 83.72
  Q 345.40 80.33 348.97 77.70
  Z"
/>
<path fill="#d45a0f" d="
  M 351.50 78.40
  Q 354.62 81.72 355.87 83.92
  Q 356.45 84.94 356.47 87.01
  Q 352.79 83.79 351.50 78.40
  Z"
/>
<path fill="#000000" d="
  M 192.29 93.51
  Q 193.37 94.99 194.36 97.38
  Q 195.38 99.85 198.31 102.25
  Q 199.05 103.36 200.01 103.06
  Q 201.99 101.72 201.82 99.71
  C 203.75 96.91 205.23 92.26 209.80 94.02
  Q 209.45 95.14 208.60 95.88
  C 206.19 97.95 204.49 101.16 203.06 103.97
  Q 202.87 104.35 202.52 104.60
  L 201.13 105.59
  A 1.54 1.54 0.0 0 0 201.12 108.10
  L 202.54 109.12
  Q 202.93 109.40 203.13 109.84
  L 205.05 114.07
  Q 205.21 114.41 205.58 114.36
  Q 206.05 114.29 206.12 114.75
  Q 206.36 116.38 207.54 117.32
  Q 207.85 117.57 207.99 117.93
  C 208.49 119.18 209.65 120.39 209.30 121.99
  Q 207.12 122.48 205.88 121.04
  Q 204.72 115.55 200.22 111.26
  Q 199.60 110.10 198.43 112.26
  Q 193.04 116.02 192.23 121.85
  Q 190.21 122.25 188.49 121.77
  Q 189.13 120.40 190.26 119.49
  A 1.57 1.49 82.6 0 0 190.72 118.86
  C 192.02 115.46 195.01 111.99 197.15 109.01
  Q 197.80 108.12 197.49 106.36
  C 197.11 104.17 194.46 102.41 193.67 100.98
  Q 191.90 97.74 191.01 96.31
  A 1.16 1.14 77.2 0 0 190.19 95.78
  Q 189.07 95.64 189.09 94.02
  L 192.29 93.51
  Z"
/>
<path fill="#0b5db6" d="
  M 192.29 93.51
  Q 196.50 96.00 198.31 102.25
  Q 195.38 99.85 194.36 97.38
  Q 193.37 94.99 192.29 93.51
  Z"
/>
<path fill="#d45a0f" d="
  M 189.09 94.02
  Q 189.07 95.64 190.19 95.78
  A 1.16 1.14 77.2 0 1 191.01 96.31
  Q 191.90 97.74 193.67 100.98
  C 194.46 102.41 197.11 104.17 197.49 106.36
  Q 197.80 108.12 197.15 109.01
  C 195.01 111.99 192.02 115.46 190.72 118.86
  A 1.57 1.49 82.6 0 1 190.26 119.49
  Q 189.13 120.40 188.49 121.77
  Q 187.40 121.36 187.43 120.54
  Q 187.45 120.02 188.11 119.37
  C 191.37 116.12 193.74 111.64 196.13 107.86
  A 1.33 1.31 -46.9 0 0 196.09 106.38
  L 188.21 95.30
  A 0.45 0.44 25.8 0 1 188.13 95.08
  Q 188.08 94.15 189.09 94.02
  Z"
/>
<path fill="#0b5db6" d="
  M 209.80 94.02
  Q 210.07 93.77 210.62 94.13
  A 0.91 0.90 -53.2 0 1 210.81 95.47
  Q 207.77 99.02 205.19 103.03
  C 204.56 104.03 203.34 105.34 202.88 106.87
  Q 202.72 107.39 202.97 107.86
  Q 206.52 114.45 211.36 120.13
  A 0.85 0.84 48.3 0 1 211.30 121.30
  Q 210.42 122.12 209.30 121.99
  C 209.65 120.39 208.49 119.18 207.99 117.93
  Q 207.85 117.57 207.54 117.32
  Q 206.36 116.38 206.12 114.75
  Q 206.05 114.29 205.58 114.36
  Q 205.21 114.41 205.05 114.07
  L 203.13 109.84
  Q 202.93 109.40 202.54 109.12
  L 201.12 108.10
  A 1.54 1.54 0.0 0 1 201.13 105.59
  L 202.52 104.60
  Q 202.87 104.35 203.06 103.97
  C 204.49 101.16 206.19 97.95 208.60 95.88
  Q 209.45 95.14 209.80 94.02
  Z"
/>
<path fill="#d45a0f" d="
  M 201.82 99.71
  Q 201.99 101.72 200.01 103.06
  Q 200.45 100.91 201.82 99.71
  Z"
/>
<path fill="#d45a0f" d="
  M 200.22 111.26
  Q 204.72 115.55 205.88 121.04
  Q 202.04 116.69 200.22 111.26
  Z"
/>
<path fill="#0b5db6" d="
  M 198.43 112.26
  Q 196.41 118.07 192.23 121.85
  Q 193.04 116.02 198.43 112.26
  Z"
/>
</svg>
