<?xml version="1.0" encoding="UTF-8" standalone="no"?>
<!DOCTYPE svg PUBLIC "-//W3C//DTD SVG 1.1//EN" "http://www.w3.org/Graphics/SVG/1.1/DTD/svg11.dtd">
<svg xmlns="http://www.w3.org/2000/svg" version="1.1" viewBox="0.00 0.00 301.00 105.00">
<g stroke-width="2.00" fill="none" stroke-linecap="butt">
<path stroke="#e6b290" vector-effect="non-scaling-stroke" d="
  M 150.60 15.50
  Q 151.25 17.45 152.48 19.05
  C 154.51 21.71 152.09 22.92 151.48 25.30"
/>
<path stroke="#e6b290" vector-effect="non-scaling-stroke" d="
  M 151.48 25.30
  L 146.71 32.06"
/>
<path stroke="#808080" vector-effect="non-scaling-stroke" d="
  M 146.71 32.06
  Q 146.46 32.46 146.88 32.87
  C 148.17 34.12 150.81 32.73 151.54 31.60"
/>
<path stroke="#8bb5dc" vector-effect="non-scaling-stroke" d="
  M 151.54 31.60
  Q 152.47 30.71 152.67 29.67"
/>
<path stroke="#808080" vector-effect="non-scaling-stroke" d="
  M 152.67 29.67
  L 155.52 24.57
  A 0.55 0.55 0.0 0 1 156.45 24.51
  L 157.79 26.30"
/>
<path stroke="#e6b290" vector-effect="non-scaling-stroke" d="
  M 157.79 26.30
  Q 159.00 29.72 161.37 32.36"
/>
<path stroke="#808080" vector-effect="non-scaling-stroke" d="
  M 161.37 32.36
  Q 162.37 33.68 165.24 33.02
  A 0.87 0.87 0.0 0 0 165.75 31.65
  L 160.33 24.39"
/>
<path stroke="#8bb5dc" vector-effect="non-scaling-stroke" d="
  M 160.33 24.39
  C 159.93 22.88 158.13 21.13 159.10 19.71"
/>
<path stroke="#808080" vector-effect="non-scaling-stroke" d="
  M 159.10 19.71
  L 164.97 11.60
  Q 165.86 10.36 164.37 10.08
  L 163.60 9.93
  Q 161.76 9.58 160.70 11.13
  L 156.44 17.38
  A 0.47 0.47 0.0 0 1 155.67 17.38
  Q 153.82 14.70 152.20 11.70
  C 151.07 9.63 150.06 9.80 147.95 10.08
  A 0.91 0.91 0.0 0 0 147.49 11.69
  Q 149.23 13.13 150.60 15.50"
/>
<path stroke="#0b355c" vector-effect="non-scaling-stroke" d="
  M 159.10 19.71
  Q 157.97 19.64 157.43 20.40
  Q 157.14 20.79 157.41 21.21
  Q 158.61 23.11 160.33 24.39"
/>
<path stroke="#673211" vector-effect="non-scaling-stroke" d="
  M 161.37 32.36
  Q 160.88 28.63 157.79 26.30"
/>
<path stroke="#0b355c" vector-effect="non-scaling-stroke" d="
  M 152.67 29.67
  Q 151.77 29.41 151.47 30.26
  Q 151.24 30.90 151.54 31.60"
/>
<path stroke="#673211" vector-effect="non-scaling-stroke" d="
  M 146.71 32.06
  Q 149.63 29.66 151.58 25.93
  Q 151.67 25.76 151.64 25.61
  Q 151.61 25.39 151.48 25.30"
/>
<path stroke="#673211" vector-effect="non-scaling-stroke" d="
  M 151.48 25.30
  C 156.46 21.32 153.38 19.02 150.60 15.50"
/>
<path stroke="#e6b290" vector-effect="non-scaling-stroke" d="
  M 23.41 43.27
  Q 22.93 43.02 22.50 43.57
  A 0.75 0.73 46.2 0 0 22.49 44.45
  L 28.49 52.86
  A 1.96 1.95 -48.3 0 1 28.61 54.96
  L 26.16 59.32"
/>
<path stroke="#808080" vector-effect="non-scaling-stroke" d="
  M 26.16 59.32
  L 23.80 62.80
  Q 23.56 63.14 23.23 63.38
  Q 22.53 63.87 22.16 64.69
  A 1.05 1.05 0.0 0 0 23.02 66.18
  Q 25.65 66.42 26.56 65.36"
/>
<path stroke="#8bb5dc" vector-effect="non-scaling-stroke" d="
  M 26.56 65.36
  L 29.30 60.72"
/>
<path stroke="#808080" vector-effect="non-scaling-stroke" d="
  M 29.30 60.72
  L 31.43 57.42
  Q 31.81 56.83 32.18 57.42
  L 33.49 59.46"
/>
<path stroke="#e6b290" vector-effect="non-scaling-stroke" d="
  M 33.49 59.46
  Q 34.74 64.60 38.15 66.43"
/>
<path stroke="#808080" vector-effect="non-scaling-stroke" d="
  M 38.15 66.43
  Q 39.59 65.92 41.60 66.00"
/>
<path stroke="#8bb5dc" vector-effect="non-scaling-stroke" d="
  M 41.60 66.00
  Q 39.69 61.86 36.36 58.32"
/>
<path stroke="#808080" vector-effect="non-scaling-stroke" d="
  M 36.36 58.32
  L 34.60 55.29"
/>
<path stroke="#8bb5dc" vector-effect="non-scaling-stroke" d="
  M 34.60 55.29
  L 34.25 54.13
  Q 34.09 53.62 34.39 53.19
  L 41.07 43.39"
/>
<path stroke="#808080" vector-effect="non-scaling-stroke" d="
  M 41.07 43.39
  Q 37.01 42.37 36.07 44.13"
/>
<path stroke="#e6b290" vector-effect="non-scaling-stroke" d="
  M 36.07 44.13
  Q 33.46 47.08 32.03 50.45"
/>
<path stroke="#808080" vector-effect="non-scaling-stroke" d="
  M 32.03 50.45
  Q 32.07 50.97 31.69 50.87
  Q 31.52 50.83 31.37 50.62
  Q 30.09 48.87 29.24 47.12"
/>
<path stroke="#8bb5dc" vector-effect="non-scaling-stroke" d="
  M 29.24 47.12
  L 27.49 44.22"
/>
<path stroke="#808080" vector-effect="non-scaling-stroke" d="
  M 27.49 44.22
  Q 26.44 42.30 23.41 43.27"
/>
<path stroke="#0b355c" vector-effect="non-scaling-stroke" d="
  M 27.49 44.22
  Q 26.82 46.31 29.24 47.12"
/>
<path stroke="#673211" vector-effect="non-scaling-stroke" d="
  M 32.03 50.45
  Q 33.66 49.51 34.34 47.70
  A 1.57 1.53 82.1 0 1 34.88 46.97
  Q 36.16 46.01 36.07 44.13"
/>
<path stroke="#0b355c" vector-effect="non-scaling-stroke" d="
  M 41.07 43.39
  Q 36.42 47.21 33.04 53.14
  A 1.12 1.11 43.3 0 0 33.08 54.32
  Q 33.60 55.07 34.60 55.29"
/>
<path stroke="#0b355c" vector-effect="non-scaling-stroke" d="
  M 36.36 58.32
  Q 37.56 63.24 41.60 66.00"
/>
<path stroke="#673211" vector-effect="non-scaling-stroke" d="
  M 38.15 66.43
  Q 36.25 62.18 33.49 59.46"
/>
<path stroke="#0b355c" vector-effect="non-scaling-stroke" d="
  M 29.30 60.72
  Q 26.19 61.80 26.56 65.36"
/>
<path stroke="#673211" vector-effect="non-scaling-stroke" d="
  M 26.16 59.32
  L 28.10 57.77
  A 1.09 1.09 0.0 0 0 28.52 56.93
  Q 28.53 55.99 29.32 55.43
  A 1.78 1.78 0.0 0 0 29.78 53.01
  L 23.41 43.27"
/>
<path stroke="#808080" vector-effect="non-scaling-stroke" d="
  M 271.18 65.93
  Q 273.78 66.78 274.74 65.56"
/>
<path stroke="#8bb5dc" vector-effect="non-scaling-stroke" d="
  M 274.74 65.56
  L 278.61 59.24"
/>
<path stroke="#808080" vector-effect="non-scaling-stroke" d="
  M 278.61 59.24
  Q 279.06 58.18 279.85 57.32
  Q 280.30 56.84 280.61 57.42
  L 281.91 59.82"
/>
<path stroke="#e6b290" vector-effect="non-scaling-stroke" d="
  M 281.91 59.82
  Q 282.97 63.52 285.58 65.83"
/>
<path stroke="#808080" vector-effect="non-scaling-stroke" d="
  M 285.58 65.83
  Q 287.08 66.44 289.05 66.11
  A 0.71 0.70 -21.9 0 0 289.52 65.02
  L 282.89 55.04"
/>
<path stroke="#8bb5dc" vector-effect="non-scaling-stroke" d="
  M 282.89 55.04
  L 282.60 54.11
  Q 282.45 53.62 282.74 53.19
  L 288.18 45.06"
/>
<path stroke="#808080" vector-effect="non-scaling-stroke" d="
  M 288.18 45.06
  Q 291.65 42.80 285.50 43.15"
/>
<path stroke="#e6b290" vector-effect="non-scaling-stroke" d="
  M 285.50 43.15
  Q 283.43 44.45 282.41 47.37"
/>
<path stroke="#808080" vector-effect="non-scaling-stroke" d="
  M 282.41 47.37
  Q 281.56 48.16 281.05 50.15
  A 0.81 0.81 0.0 0 1 279.74 50.57
  Q 279.26 50.16 279.03 49.57"
/>
<path stroke="#8bb5dc" vector-effect="non-scaling-stroke" d="
  M 279.03 49.57
  Q 277.69 45.67 274.75 43.05"
/>
<path stroke="#808080" vector-effect="non-scaling-stroke" d="
  M 274.75 43.05
  L 272.20 43.09"
/>
<path stroke="#e6b290" vector-effect="non-scaling-stroke" d="
  M 272.20 43.09
  Q 270.95 43.06 270.64 43.59
  Q 270.40 44.00 270.96 44.77
  Q 274.07 49.07 276.74 52.95
  Q 277.56 54.15 276.74 55.36
  L 270.27 64.83
  A 0.69 0.69 0.0 0 0 270.37 65.73
  Q 270.79 66.14 271.18 65.93"
/>
<path stroke="#673211" vector-effect="non-scaling-stroke" d="
  M 272.20 43.09
  Q 271.81 43.60 272.19 44.30
  C 272.59 45.05 273.48 45.18 273.92 46.13
  Q 275.61 49.83 278.35 52.80
  Q 278.67 53.15 278.72 53.63
  C 278.95 55.76 277.31 56.29 276.49 57.47
  Q 274.49 60.34 272.81 63.38
  A 1.96 1.91 -2.4 0 1 272.14 64.09
  Q 270.95 64.84 271.18 65.93"
/>
<path stroke="#0b355c" vector-effect="non-scaling-stroke" d="
  M 274.75 43.05
  Q 275.65 47.78 279.03 49.57"
/>
<path stroke="#673211" vector-effect="non-scaling-stroke" d="
  M 282.41 47.37
  Q 285.10 46.05 285.50 43.15"
/>
<path stroke="#0b355c" vector-effect="non-scaling-stroke" d="
  M 288.18 45.06
  Q 284.67 47.97 281.98 52.01
  Q 281.42 52.86 281.32 53.63
  Q 281.06 55.62 282.89 55.04"
/>
<path stroke="#673211" vector-effect="non-scaling-stroke" d="
  M 285.58 65.83
  Q 285.00 62.02 281.91 59.82"
/>
<path stroke="#0b355c" vector-effect="non-scaling-stroke" d="
  M 278.61 59.24
  C 276.58 60.11 274.29 63.17 274.74 65.56"
/>
<path stroke="#808080" vector-effect="non-scaling-stroke" d="
  M 258.50 54.99
  Q 259.10 54.99 259.49 55.00
  A 0.68 0.68 0.0 0 0 260.17 54.35
  Q 260.30 51.43 260.23 48.55
  Q 260.21 47.82 259.95 47.50
  Q 259.53 46.97 258.83 47.31
  Q 258.38 47.52 257.88 47.52
  Q 156.07 47.51 54.25 47.51
  Q 52.72 47.51 51.37 47.19
  A 0.64 0.63 6.9 0 0 50.59 47.80
  L 50.48 54.22
  A 0.78 0.78 0.0 0 0 51.46 54.98
  Q 52.38 54.73 53.50 54.73
  Q 156.00 54.53 258.50 54.99"
/>
<path stroke="#e6b290" vector-effect="non-scaling-stroke" d="
  M 147.60 73.94
  Q 147.22 73.64 146.94 74.20
  A 0.83 0.82 41.4 0 0 147.00 75.07
  L 153.43 83.91
  Q 153.88 84.55 153.47 85.21
  L 148.39 93.41"
/>
<path stroke="#808080" vector-effect="non-scaling-stroke" d="
  M 148.39 93.41
  L 146.89 95.40
  A 0.91 0.91 0.0 0 0 147.51 96.85
  C 149.74 97.13 150.69 96.56 151.87 94.63
  Q 153.73 91.57 155.46 88.43
  A 0.75 0.75 0.0 0 1 156.72 88.34
  L 158.96 91.33"
/>
<path stroke="#e6b290" vector-effect="non-scaling-stroke" d="
  M 158.96 91.33
  Q 159.35 93.79 161.32 95.85"
/>
<path stroke="#808080" vector-effect="non-scaling-stroke" d="
  M 161.32 95.85
  Q 162.42 97.56 165.43 96.61
  A 0.71 0.71 0.0 0 0 165.80 95.53
  L 159.82 87.07"
/>
<path stroke="#8bb5dc" vector-effect="non-scaling-stroke" d="
  M 159.82 87.07
  Q 159.09 85.83 158.87 84.80
  Q 158.76 84.29 159.01 83.84
  L 160.74 80.65"
/>
<path stroke="#808080" vector-effect="non-scaling-stroke" d="
  M 160.74 80.65
  L 165.40 74.87
  Q 165.74 74.44 165.28 74.14
  Q 163.16 72.76 161.23 74.11"
/>
<path stroke="#e6b290" vector-effect="non-scaling-stroke" d="
  M 161.23 74.11
  Q 159.10 75.96 158.43 78.35"
/>
<path stroke="#808080" vector-effect="non-scaling-stroke" d="
  M 158.43 78.35
  L 156.76 80.81
  A 0.74 0.74 0.0 0 1 155.55 80.83
  Q 153.52 77.98 151.88 74.58
  Q 151.01 72.76 147.60 73.94"
/>
<path stroke="#673211" vector-effect="non-scaling-stroke" d="
  M 158.43 78.35
  Q 160.57 76.84 161.23 74.11"
/>
<path stroke="#0b355c" vector-effect="non-scaling-stroke" d="
  M 160.74 80.65
  L 157.44 83.61
  A 0.96 0.96 0.0 0 0 157.46 85.06
  L 159.82 87.07"
/>
<path stroke="#673211" vector-effect="non-scaling-stroke" d="
  M 161.32 95.85
  Q 161.04 93.35 158.96 91.33"
/>
<path stroke="#673211" vector-effect="non-scaling-stroke" d="
  M 148.39 93.41
  Q 150.53 92.24 151.38 89.78
  Q 151.58 89.19 152.04 88.77
  Q 155.48 85.57 152.90 81.62
  A 0.28 0.27 58.8 0 0 152.54 81.53
  Q 152.39 81.61 152.31 81.47
  C 151.30 79.57 150.31 77.26 148.77 75.75
  Q 147.75 74.76 147.60 73.94"
/>
</g>
<path fill="#ffffff" d="
  M 0.00 0.00
  L 301.00 0.00
  L 301.00 105.00
  L 0.00 105.00
  L 0.00 0.00
  Z
  M 150.60 15.50
  Q 151.25 17.45 152.48 19.05
  C 154.51 21.71 152.09 22.92 151.48 25.30
  L 146.71 32.06
  Q 146.46 32.46 146.88 32.87
  C 148.17 34.12 150.81 32.73 151.54 31.60
  Q 152.47 30.71 152.67 29.67
  L 155.52 24.57
  A 0.55 0.55 0.0 0 1 156.45 24.51
  L 157.79 26.30
  Q 159.00 29.72 161.37 32.36
  Q 162.37 33.68 165.24 33.02
  A 0.87 0.87 0.0 0 0 165.75 31.65
  L 160.33 24.39
  C 159.93 22.88 158.13 21.13 159.10 19.71
  L 164.97 11.60
  Q 165.86 10.36 164.37 10.08
  L 163.60 9.93
  Q 161.76 9.58 160.70 11.13
  L 156.44 17.38
  A 0.47 0.47 0.0 0 1 155.67 17.38
  Q 153.82 14.70 152.20 11.70
  C 151.07 9.63 150.06 9.80 147.95 10.08
  A 0.91 0.91 0.0 0 0 147.49 11.69
  Q 149.23 13.13 150.60 15.50
  Z
  M 23.41 43.27
  Q 22.93 43.02 22.50 43.57
  A 0.75 0.73 46.2 0 0 22.49 44.45
  L 28.49 52.86
  A 1.96 1.95 -48.3 0 1 28.61 54.96
  L 26.16 59.32
  L 23.80 62.80
  Q 23.56 63.14 23.23 63.38
  Q 22.53 63.87 22.16 64.69
  A 1.05 1.05 0.0 0 0 23.02 66.18
  Q 25.65 66.42 26.56 65.36
  L 29.30 60.72
  L 31.43 57.42
  Q 31.81 56.83 32.18 57.42
  L 33.49 59.46
  Q 34.74 64.60 38.15 66.43
  Q 39.59 65.92 41.60 66.00
  Q 39.69 61.86 36.36 58.32
  L 34.60 55.29
  L 34.25 54.13
  Q 34.09 53.62 34.39 53.19
  L 41.07 43.39
  Q 37.01 42.37 36.07 44.13
  Q 33.46 47.08 32.03 50.45
  Q 32.07 50.97 31.69 50.87
  Q 31.52 50.83 31.37 50.62
  Q 30.09 48.87 29.24 47.12
  L 27.49 44.22
  Q 26.44 42.30 23.41 43.27
  Z
  M 271.18 65.93
  Q 273.78 66.78 274.74 65.56
  L 278.61 59.24
  Q 279.06 58.18 279.85 57.32
  Q 280.30 56.84 280.61 57.42
  L 281.91 59.82
  Q 282.97 63.52 285.58 65.83
  Q 287.08 66.44 289.05 66.11
  A 0.71 0.70 -21.9 0 0 289.52 65.02
  L 282.89 55.04
  L 282.60 54.11
  Q 282.45 53.62 282.74 53.19
  L 288.18 45.06
  Q 291.65 42.80 285.50 43.15
  Q 283.43 44.45 282.41 47.37
  Q 281.56 48.16 281.05 50.15
  A 0.81 0.81 0.0 0 1 279.74 50.57
  Q 279.26 50.16 279.03 49.57
  Q 277.69 45.67 274.75 43.05
  L 272.20 43.09
  Q 270.95 43.06 270.64 43.59
  Q 270.40 44.00 270.96 44.77
  Q 274.07 49.07 276.74 52.95
  Q 277.56 54.15 276.74 55.36
  L 270.27 64.83
  A 0.69 0.69 0.0 0 0 270.37 65.73
  Q 270.79 66.14 271.18 65.93
  Z
  M 258.50 54.99
  Q 259.10 54.99 259.49 55.00
  A 0.68 0.68 0.0 0 0 260.17 54.35
  Q 260.30 51.43 260.23 48.55
  Q 260.21 47.82 259.95 47.50
  Q 259.53 46.97 258.83 47.31
  Q 258.38 47.52 257.88 47.52
  Q 156.07 47.51 54.25 47.51
  Q 52.72 47.51 51.37 47.19
  A 0.64 0.63 6.9 0 0 50.59 47.80
  L 50.48 54.22
  A 0.78 0.78 0.0 0 0 51.46 54.98
  Q 52.38 54.73 53.50 54.73
  Q 156.00 54.53 258.50 54.99
  Z
  M 147.60 73.94
  Q 147.22 73.64 146.94 74.20
  A 0.83 0.82 41.4 0 0 147.00 75.07
  L 153.43 83.91
  Q 153.88 84.55 153.47 85.21
  L 148.39 93.41
  L 146.89 95.40
  A 0.91 0.91 0.0 0 0 147.51 96.85
  C 149.74 97.13 150.69 96.56 151.87 94.63
  Q 153.73 91.57 155.46 88.43
  A 0.75 0.75 0.0 0 1 156.72 88.34
  L 158.96 91.33
  Q 159.35 93.79 161.32 95.85
  Q 162.42 97.56 165.43 96.61
  A 0.71 0.71 0.0 0 0 165.80 95.53
  L 159.82 87.07
  Q 159.09 85.83 158.87 84.80
  Q 158.76 84.29 159.01 83.84
  L 160.74 80.65
  L 165.40 74.87
  Q 165.74 74.44 165.28 74.14
  Q 163.16 72.76 161.23 74.11
  Q 159.10 75.96 158.43 78.35
  L 156.76 80.81
  A 0.74 0.74 0.0 0 1 155.55 80.83
  Q 153.52 77.98 151.88 74.58
  Q 151.01 72.76 147.60 73.94
  Z"
/>
<path fill="#000000" d="
  M 159.10 19.71
  Q 157.97 19.64 157.43 20.40
  Q 157.14 20.79 157.41 21.21
  Q 158.61 23.11 160.33 24.39
  L 165.75 31.65
  A 0.87 0.87 0.0 0 1 165.24 33.02
  Q 162.37 33.68 161.37 32.36
  Q 160.88 28.63 157.79 26.30
  L 156.45 24.51
  A 0.55 0.55 0.0 0 0 155.52 24.57
  L 152.67 29.67
  Q 151.77 29.41 151.47 30.26
  Q 151.24 30.90 151.54 31.60
  C 150.81 32.73 148.17 34.12 146.88 32.87
  Q 146.46 32.46 146.71 32.06
  Q 149.63 29.66 151.58 25.93
  Q 151.67 25.76 151.64 25.61
  Q 151.61 25.39 151.48 25.30
  C 156.46 21.32 153.38 19.02 150.60 15.50
  Q 149.23 13.13 147.49 11.69
  A 0.91 0.91 0.0 0 1 147.95 10.08
  C 150.06 9.80 151.07 9.63 152.20 11.70
  Q 153.82 14.70 155.67 17.38
  A 0.47 0.47 0.0 0 0 156.44 17.38
  L 160.70 11.13
  Q 161.76 9.58 163.60 9.93
  L 164.37 10.08
  Q 165.86 10.36 164.97 11.60
  L 159.10 19.71
  Z"
/>
<path fill="#cd6421" d="
  M 150.60 15.50
  C 153.38 19.02 156.46 21.32 151.48 25.30
  C 152.09 22.92 154.51 21.71 152.48 19.05
  Q 151.25 17.45 150.60 15.50
  Z"
/>
<path fill="#166ab8" d="
  M 159.10 19.71
  C 158.13 21.13 159.93 22.88 160.33 24.39
  Q 158.61 23.11 157.41 21.21
  Q 157.14 20.79 157.43 20.40
  Q 157.97 19.64 159.10 19.71
  Z"
/>
<path fill="#cd6421" d="
  M 151.48 25.30
  Q 151.61 25.39 151.64 25.61
  Q 151.67 25.76 151.58 25.93
  Q 149.63 29.66 146.71 32.06
  L 151.48 25.30
  Z"
/>
<path fill="#cd6421" d="
  M 157.79 26.30
  Q 160.88 28.63 161.37 32.36
  Q 159.00 29.72 157.79 26.30
  Z"
/>
<path fill="#166ab8" d="
  M 152.67 29.67
  Q 152.47 30.71 151.54 31.60
  Q 151.24 30.90 151.47 30.26
  Q 151.77 29.41 152.67 29.67
  Z"
/>
<path fill="#000000" d="
  M 27.49 44.22
  Q 26.82 46.31 29.24 47.12
  Q 30.09 48.87 31.37 50.62
  Q 31.52 50.83 31.69 50.87
  Q 32.07 50.97 32.03 50.45
  Q 33.66 49.51 34.34 47.70
  A 1.57 1.53 82.1 0 1 34.88 46.97
  Q 36.16 46.01 36.07 44.13
  Q 37.01 42.37 41.07 43.39
  Q 36.42 47.21 33.04 53.14
  A 1.12 1.11 43.3 0 0 33.08 54.32
  Q 33.60 55.07 34.60 55.29
  L 36.36 58.32
  Q 37.56 63.24 41.60 66.00
  Q 39.59 65.92 38.15 66.43
  Q 36.25 62.18 33.49 59.46
  L 32.18 57.42
  Q 31.81 56.83 31.43 57.42
  L 29.30 60.72
  Q 26.19 61.80 26.56 65.36
  Q 25.65 66.42 23.02 66.18
  A 1.05 1.05 0.0 0 1 22.16 64.69
  Q 22.53 63.87 23.23 63.38
  Q 23.56 63.14 23.80 62.80
  L 26.16 59.32
  L 28.10 57.77
  A 1.09 1.09 0.0 0 0 28.52 56.93
  Q 28.53 55.99 29.32 55.43
  A 1.78 1.78 0.0 0 0 29.78 53.01
  L 23.41 43.27
  Q 26.44 42.30 27.49 44.22
  Z"
/>
<path fill="#cd6421" d="
  M 272.20 43.09
  Q 271.81 43.60 272.19 44.30
  C 272.59 45.05 273.48 45.18 273.92 46.13
  Q 275.61 49.83 278.35 52.80
  Q 278.67 53.15 278.72 53.63
  C 278.95 55.76 277.31 56.29 276.49 57.47
  Q 274.49 60.34 272.81 63.38
  A 1.96 1.91 -2.4 0 1 272.14 64.09
  Q 270.95 64.84 271.18 65.93
  Q 270.79 66.14 270.37 65.73
  A 0.69 0.69 0.0 0 1 270.27 64.83
  L 276.74 55.36
  Q 277.56 54.15 276.74 52.95
  Q 274.07 49.07 270.96 44.77
  Q 270.40 44.00 270.64 43.59
  Q 270.95 43.06 272.20 43.09
  Z"
/>
<path fill="#000000" d="
  M 272.20 43.09
  L 274.75 43.05
  Q 275.65 47.78 279.03 49.57
  Q 279.26 50.16 279.74 50.57
  A 0.81 0.81 0.0 0 0 281.05 50.15
  Q 281.56 48.16 282.41 47.37
  Q 285.10 46.05 285.50 43.15
  Q 291.65 42.80 288.18 45.06
  Q 284.67 47.97 281.98 52.01
  Q 281.42 52.86 281.32 53.63
  Q 281.06 55.62 282.89 55.04
  L 289.52 65.02
  A 0.71 0.70 -21.9 0 1 289.05 66.11
  Q 287.08 66.44 285.58 65.83
  Q 285.00 62.02 281.91 59.82
  L 280.61 57.42
  Q 280.30 56.84 279.85 57.32
  Q 279.06 58.18 278.61 59.24
  C 276.58 60.11 274.29 63.17 274.74 65.56
  Q 273.78 66.78 271.18 65.93
  Q 270.95 64.84 272.14 64.09
  A 1.96 1.91 -2.4 0 0 272.81 63.38
  Q 274.49 60.34 276.49 57.47
  C 277.31 56.29 278.95 55.76 278.72 53.63
  Q 278.67 53.15 278.35 52.80
  Q 275.61 49.83 273.92 46.13
  C 273.48 45.18 272.59 45.05 272.19 44.30
  Q 271.81 43.60 272.20 43.09
  Z"
/>
<path fill="#cd6421" d="
  M 23.41 43.27
  L 29.78 53.01
  A 1.78 1.78 0.0 0 1 29.32 55.43
  Q 28.53 55.99 28.52 56.93
  A 1.09 1.09 0.0 0 1 28.10 57.77
  L 26.16 59.32
  L 28.61 54.96
  A 1.96 1.95 -48.3 0 0 28.49 52.86
  L 22.49 44.45
  A 0.75 0.73 46.2 0 1 22.50 43.57
  Q 22.93 43.02 23.41 43.27
  Z"
/>
<path fill="#166ab8" d="
  M 274.75 43.05
  Q 277.69 45.67 279.03 49.57
  Q 275.65 47.78 274.75 43.05
  Z"
/>
<path fill="#cd6421" d="
  M 285.50 43.15
  Q 285.10 46.05 282.41 47.37
  Q 283.43 44.45 285.50 43.15
  Z"
/>
<path fill="#166ab8" d="
  M 41.07 43.39
  L 34.39 53.19
  Q 34.09 53.62 34.25 54.13
  L 34.60 55.29
  Q 33.60 55.07 33.08 54.32
  A 1.12 1.11 43.3 0 1 33.04 53.14
  Q 36.42 47.21 41.07 43.39
  Z"
/>
<path fill="#166ab8" d="
  M 27.49 44.22
  L 29.24 47.12
  Q 26.82 46.31 27.49 44.22
  Z"
/>
<path fill="#cd6421" d="
  M 36.07 44.13
  Q 36.16 46.01 34.88 46.97
  A 1.57 1.53 82.1 0 0 34.34 47.70
  Q 33.66 49.51 32.03 50.45
  Q 33.46 47.08 36.07 44.13
  Z"
/>
<path fill="#166ab8" d="
  M 288.18 45.06
  L 282.74 53.19
  Q 282.45 53.62 282.60 54.11
  L 282.89 55.04
  Q 281.06 55.62 281.32 53.63
  Q 281.42 52.86 281.98 52.01
  Q 284.67 47.97 288.18 45.06
  Z"
/>
<path fill="#000000" d="
  M 258.50 54.99
  Q 156.00 54.53 53.50 54.73
  Q 52.38 54.73 51.46 54.98
  A 0.78 0.78 0.0 0 1 50.48 54.22
  L 50.59 47.80
  A 0.64 0.63 6.9 0 1 51.37 47.19
  Q 52.72 47.51 54.25 47.51
  Q 156.07 47.51 257.88 47.52
  Q 258.38 47.52 258.83 47.31
  Q 259.53 46.97 259.95 47.50
  Q 260.21 47.82 260.23 48.55
  Q 260.30 51.43 260.17 54.35
  A 0.68 0.68 0.0 0 1 259.49 55.00
  Q 259.10 54.99 258.50 54.99
  Z"
/>
<path fill="#166ab8" d="
  M 36.36 58.32
  Q 39.69 61.86 41.60 66.00
  Q 37.56 63.24 36.36 58.32
  Z"
/>
<path fill="#166ab8" d="
  M 278.61 59.24
  L 274.74 65.56
  C 274.29 63.17 276.58 60.11 278.61 59.24
  Z"
/>
<path fill="#cd6421" d="
  M 33.49 59.46
  Q 36.25 62.18 38.15 66.43
  Q 34.74 64.60 33.49 59.46
  Z"
/>
<path fill="#cd6421" d="
  M 281.91 59.82
  Q 285.00 62.02 285.58 65.83
  Q 282.97 63.52 281.91 59.82
  Z"
/>
<path fill="#166ab8" d="
  M 29.30 60.72
  L 26.56 65.36
  Q 26.19 61.80 29.30 60.72
  Z"
/>
<path fill="#000000" d="
  M 158.43 78.35
  Q 160.57 76.84 161.23 74.11
  Q 163.16 72.76 165.28 74.14
  Q 165.74 74.44 165.40 74.87
  L 160.74 80.65
  L 157.44 83.61
  A 0.96 0.96 0.0 0 0 157.46 85.06
  L 159.82 87.07
  L 165.80 95.53
  A 0.71 0.71 0.0 0 1 165.43 96.61
  Q 162.42 97.56 161.32 95.85
  Q 161.04 93.35 158.96 91.33
  L 156.72 88.34
  A 0.75 0.75 0.0 0 0 155.46 88.43
  Q 153.73 91.57 151.87 94.63
  C 150.69 96.56 149.74 97.13 147.51 96.85
  A 0.91 0.91 0.0 0 1 146.89 95.40
  L 148.39 93.41
  Q 150.53 92.24 151.38 89.78
  Q 151.58 89.19 152.04 88.77
  Q 155.48 85.57 152.90 81.62
  A 0.28 0.27 58.8 0 0 152.54 81.53
  Q 152.39 81.61 152.31 81.47
  C 151.30 79.57 150.31 77.26 148.77 75.75
  Q 147.75 74.76 147.60 73.94
  Q 151.01 72.76 151.88 74.58
  Q 153.52 77.98 155.55 80.83
  A 0.74 0.74 0.0 0 0 156.76 80.81
  L 158.43 78.35
  Z"
/>
<path fill="#cd6421" d="
  M 147.60 73.94
  Q 147.75 74.76 148.77 75.75
  C 150.31 77.26 151.30 79.57 152.31 81.47
  Q 152.39 81.61 152.54 81.53
  A 0.28 0.27 58.8 0 1 152.90 81.62
  Q 155.48 85.57 152.04 88.77
  Q 151.58 89.19 151.38 89.78
  Q 150.53 92.24 148.39 93.41
  L 153.47 85.21
  Q 153.88 84.55 153.43 83.91
  L 147.00 75.07
  A 0.83 0.82 41.4 0 1 146.94 74.20
  Q 147.22 73.64 147.60 73.94
  Z"
/>
<path fill="#cd6421" d="
  M 161.23 74.11
  Q 160.57 76.84 158.43 78.35
  Q 159.10 75.96 161.23 74.11
  Z"
/>
<path fill="#166ab8" d="
  M 160.74 80.65
  L 159.01 83.84
  Q 158.76 84.29 158.87 84.80
  Q 159.09 85.83 159.82 87.07
  L 157.46 85.06
  A 0.96 0.96 0.0 0 1 157.44 83.61
  L 160.74 80.65
  Z"
/>
<path fill="#cd6421" d="
  M 158.96 91.33
  Q 161.04 93.35 161.32 95.85
  Q 159.35 93.79 158.96 91.33
  Z"
/>
</svg>
