<?xml version="1.0" encoding="UTF-8" standalone="no"?>
<!DOCTYPE svg PUBLIC "-//W3C//DTD SVG 1.1//EN" "http://www.w3.org/Graphics/SVG/1.1/DTD/svg11.dtd">
<svg xmlns="http://www.w3.org/2000/svg" version="1.1" viewBox="0.00 0.00 332.00 418.00">
<g stroke-width="2.00" fill="none" stroke-linecap="butt">
<path stroke="#818181" vector-effect="non-scaling-stroke" d="
  M 322.52 12.27
  A 1.26 1.26 0.0 0 0 321.26 11.01
  L 22.28 11.01
  A 1.26 1.26 0.0 0 0 21.02 12.27
  L 21.02 413.09
  A 1.26 1.26 0.0 0 0 22.28 414.35
  L 321.26 414.35
  A 1.26 1.26 0.0 0 0 322.52 413.09
  L 322.52 12.27"
/>
<path stroke="#3e413b" vector-effect="non-scaling-stroke" d="
  M 25.26 14.87
  L 24.96 254.48"
/>
<path stroke="#4b4d4d" vector-effect="non-scaling-stroke" d="
  M 24.96 254.48
  L 24.94 258.64"
/>
<path stroke="#3e413b" vector-effect="non-scaling-stroke" d="
  M 24.94 258.64
  Q 25.49 312.96 25.38 367.50
  C 25.36 378.00 25.78 396.01 25.22 410.30
  Q 25.20 410.81 25.67 411.02
  Q 26.09 411.20 26.67 410.91"
/>
<path stroke="#818181" vector-effect="non-scaling-stroke" d="
  M 26.67 410.91
  L 94.18 411.09
  A 1.34 1.33 -89.8 0 0 95.52 409.75
  L 95.35 376.71"
/>
<path stroke="#0d0e0d" vector-effect="non-scaling-stroke" d="
  M 95.35 376.71
  L 95.45 361.79
  Q 95.45 361.49 95.73 361.41
  L 98.72 360.53
  Q 98.96 360.46 98.96 360.71
  L 99.11 375.55"
/>
<path stroke="#818181" vector-effect="non-scaling-stroke" d="
  M 99.11 375.55
  L 98.97 409.83
  A 1.28 1.28 0.0 0 0 100.25 411.11
  L 168.97 411.02
  A 1.04 1.04 0.0 0 0 170.00 409.98
  L 170.01 377.28"
/>
<path stroke="#0d0e0d" vector-effect="non-scaling-stroke" d="
  M 170.01 377.28
  Q 170.83 374.80 173.81 377.03"
/>
<path stroke="#818181" vector-effect="non-scaling-stroke" d="
  M 173.81 377.03
  L 173.85 409.62
  Q 173.85 411.04 175.27 411.04
  L 243.70 411.07
  Q 245.19 411.07 245.19 409.58
  L 245.15 376.54"
/>
<path stroke="#0d0e0d" vector-effect="non-scaling-stroke" d="
  M 245.15 376.54
  L 245.34 353.55
  Q 245.35 353.02 245.81 352.75
  L 246.26 352.48
  Q 246.72 352.22 246.81 351.70
  Q 247.37 348.69 249.28 350.43"
/>
<path stroke="#818181" vector-effect="non-scaling-stroke" d="
  M 249.28 350.43
  L 249.15 409.56
  Q 249.14 410.98 250.57 410.98
  L 317.43 411.03"
/>
<path stroke="#4b4d4d" vector-effect="non-scaling-stroke" d="
  M 317.43 411.03
  Q 318.61 411.20 319.19 410.88
  Q 319.69 410.61 319.63 409.51
  Q 319.56 408.38 319.57 407.25
  Q 319.61 343.38 319.58 279.52
  C 319.58 272.83 320.15 264.17 319.98 256.47
  C 319.41 231.81 319.07 206.84 319.91 182.19
  C 320.20 173.60 319.71 161.89 319.67 156.44
  C 319.58 140.11 319.43 123.78 319.77 107.44
  Q 319.90 100.86 319.69 89.50
  Q 319.37 72.98 319.73 18.00
  Q 319.74 17.45 319.20 17.33
  Q 318.30 17.12 317.26 17.33"
/>
<path stroke="#818181" vector-effect="non-scaling-stroke" d="
  M 317.26 17.33
  C 316.83 17.10 316.37 16.86 315.88 16.87
  Q 285.57 17.29 255.25 17.01
  Q 252.52 16.98 250.28 17.21
  Q 249.27 17.31 249.28 18.32
  L 249.30 47.05"
/>
<path stroke="#0d0e0d" vector-effect="non-scaling-stroke" d="
  M 249.30 47.05
  L 245.71 46.15
  Q 245.38 46.06 245.38 45.72
  Q 245.34 40.47 245.35 35.25
  Q 245.36 34.68 245.92 27.28
  Q 246.31 22.17 244.98 17.44"
/>
<path stroke="#818181" vector-effect="non-scaling-stroke" d="
  M 244.98 17.44
  L 243.53 17.23
  Q 242.99 17.15 242.44 17.15
  L 175.48 17.04
  Q 173.95 17.03 173.95 18.56
  L 173.85 46.21"
/>
<path stroke="#0d0e0d" vector-effect="non-scaling-stroke" d="
  M 173.85 46.21
  Q 171.34 46.99 169.93 44.65"
/>
<path stroke="#818181" vector-effect="non-scaling-stroke" d="
  M 169.93 44.65
  L 169.81 17.72
  A 0.80 0.79 -0.0 0 0 169.01 16.93
  L 100.59 17.31
  Q 99.25 17.32 99.25 18.65
  L 99.23 41.44"
/>
<path stroke="#0d0e0d" vector-effect="non-scaling-stroke" d="
  M 99.23 41.44
  L 98.96 48.31
  A 0.23 0.22 -84.4 0 1 98.70 48.53
  L 95.72 48.02
  Q 95.45 47.97 95.45 47.70
  L 95.35 36.04"
/>
<path stroke="#818181" vector-effect="non-scaling-stroke" d="
  M 95.35 36.04
  L 95.31 17.85
  A 0.58 0.58 0.0 0 0 94.73 17.27
  L 67.22 17.15"
/>
<path stroke="#3e413b" vector-effect="non-scaling-stroke" d="
  M 67.22 17.15
  Q 63.53 16.82 65.79 15.84"
/>
<path stroke="#818181" vector-effect="non-scaling-stroke" d="
  M 65.79 15.84
  L 94.15 15.85
  A 0.52 0.52 0.0 0 0 94.65 15.21
  L 94.57 14.91
  Q 94.35 14.05 93.46 14.05
  Q 62.59 13.96 35.00 14.09
  Q 29.28 14.11 25.26 14.87"
/>
<path stroke="#bdbfb9" vector-effect="non-scaling-stroke" d="
  M 65.79 15.84
  Q 60.65 15.58 55.50 15.43
  Q 55.22 15.42 54.97 15.51
  Q 54.68 15.62 54.49 15.63
  Q 39.81 15.98 25.26 14.87"
/>
<path stroke="#bdbfb9" vector-effect="non-scaling-stroke" d="
  M 67.22 17.15
  L 28.25 17.09
  A 1.44 1.44 0.0 0 0 26.81 18.53
  L 26.92 95.13"
/>
<path stroke="#494c46" vector-effect="non-scaling-stroke" d="
  M 26.92 95.13
  Q 24.83 97.74 27.23 97.69"
/>
<path stroke="#bdbfb9" vector-effect="non-scaling-stroke" d="
  M 27.23 97.69
  L 26.87 101.84
  A 1.09 1.09 0.0 0 0 27.96 103.02
  L 63.23 102.99
  Q 63.38 102.99 63.43 103.13
  Q 63.49 103.30 63.72 103.23"
/>
<path stroke="#494c46" vector-effect="non-scaling-stroke" d="
  M 63.72 103.23
  Q 63.42 103.96 63.97 104.47"
/>
<path stroke="#bdbfb9" vector-effect="non-scaling-stroke" d="
  M 63.97 104.47
  L 27.58 104.80
  A 0.95 0.94 90.0 0 0 26.64 105.75
  L 26.70 170.42
  Q 26.70 170.91 27.04 171.26
  Q 27.48 171.69 27.95 171.86"
/>
<path stroke="#494c46" vector-effect="non-scaling-stroke" d="
  M 27.95 171.86
  Q 27.44 172.08 27.71 172.99"
/>
<path stroke="#bdbfb9" vector-effect="non-scaling-stroke" d="
  M 27.71 172.99
  Q 27.51 173.08 27.32 173.27
  Q 27.16 173.43 27.11 173.68
  Q 26.66 176.24 27.37 178.74"
/>
<path stroke="#494c46" vector-effect="non-scaling-stroke" d="
  M 27.37 178.74
  L 26.59 178.99
  Q 26.11 179.15 26.09 179.65
  Q 26.06 180.70 26.88 181.04"
/>
<path stroke="#bdbfb9" vector-effect="non-scaling-stroke" d="
  M 26.88 181.04
  L 26.84 254.89
  A 1.13 1.13 0.0 0 0 27.97 256.02
  L 64.22 256.06"
/>
<path stroke="#494c46" vector-effect="non-scaling-stroke" d="
  M 64.22 256.06
  Q 63.81 256.36 63.70 256.65
  Q 63.50 257.15 64.02 257.29
  L 64.72 257.47"
/>
<path stroke="#bdbfb9" vector-effect="non-scaling-stroke" d="
  M 64.72 257.47
  L 28.46 257.38
  Q 27.20 257.37 27.08 258.62
  L 26.73 262.32
  A 1.35 1.35 0.0 0 0 28.08 263.80
  L 63.96 263.71"
/>
<path stroke="#494c46" vector-effect="non-scaling-stroke" d="
  M 63.96 263.71
  Q 63.69 264.37 63.98 265.17"
/>
<path stroke="#bdbfb9" vector-effect="non-scaling-stroke" d="
  M 63.98 265.17
  L 27.81 264.96
  A 0.88 0.88 0.0 0 0 26.92 265.84
  L 26.67 410.91"
/>
<path stroke="#878c85" vector-effect="non-scaling-stroke" d="
  M 24.94 258.64
  Q 27.12 256.28 24.96 254.48"
/>
<path stroke="#8c8c8c" vector-effect="non-scaling-stroke" d="
  M 95.35 36.04
  L 95.35 94.65
  A 1.28 1.28 0.0 0 1 94.06 95.93
  Q 61.19 95.57 27.75 95.78
  Q 27.10 95.78 26.92 95.13"
/>
<path stroke="#8c8c8c" vector-effect="non-scaling-stroke" d="
  M 317.55 105.79
  Q 317.50 105.14 317.16 104.76
  Q 316.88 104.44 316.23 104.44
  Q 283.37 104.53 250.46 104.35
  A 1.13 1.12 -89.7 0 0 249.33 105.48
  L 249.28 170.78
  Q 249.28 171.92 250.42 171.92
  Q 281.19 171.86 312.50 171.88
  Q 314.40 171.88 316.30 172.19
  Q 316.83 172.28 317.14 171.84
  Q 317.38 171.48 317.48 171.03"
/>
<path stroke="#494c46" vector-effect="non-scaling-stroke" d="
  M 318.12 172.16
  Q 318.28 174.30 317.56 173.94"
/>
<path stroke="#8c8c8c" vector-effect="non-scaling-stroke" d="
  M 317.56 173.94
  Q 316.87 173.02 314.49 173.01
  Q 282.07 172.99 249.47 173.04
  Q 249.20 173.04 249.21 173.31
  L 249.37 178.82
  Q 249.38 179.05 249.61 179.05
  L 316.55 179.24
  Q 316.99 179.24 317.15 178.83
  Q 317.30 178.41 317.28 177.94"
/>
<path stroke="#494c46" vector-effect="non-scaling-stroke" d="
  M 317.28 177.94
  Q 318.08 177.78 318.13 178.98"
/>
<path stroke="#8c8c8c" vector-effect="non-scaling-stroke" d="
  M 317.53 181.47
  Q 316.92 180.27 314.00 180.29
  Q 282.09 180.50 250.22 180.55
  A 0.93 0.92 -0.0 0 0 249.29 181.47
  L 249.29 255.05
  Q 249.29 256.09 250.33 256.09
  L 317.32 256.09"
/>
<path stroke="#8c8c8c" vector-effect="non-scaling-stroke" d="
  M 317.41 258.27
  Q 317.04 257.24 316.50 257.24
  Q 283.22 257.45 250.13 257.34
  Q 249.20 257.34 249.22 258.26
  L 249.30 262.85
  A 0.98 0.98 0.0 0 0 250.28 263.81
  Q 283.21 263.84 316.39 263.84
  Q 317.30 263.84 317.66 262.65"
/>
<path stroke="#8c8c8c" vector-effect="non-scaling-stroke" d="
  M 317.57 265.80
  Q 317.17 264.99 316.75 264.99
  Q 283.26 265.04 250.07 265.00
  A 0.80 0.80 0.0 0 0 249.27 265.80
  L 249.28 350.43"
/>
<path stroke="#8c8c8c" vector-effect="non-scaling-stroke" d="
  M 245.15 376.54
  L 244.98 266.40
  A 1.38 1.38 0.0 0 0 243.60 265.02
  L 174.98 265.02
  A 1.22 1.22 0.0 0 0 173.76 266.24
  L 173.81 377.03"
/>
<path stroke="#8c8c8c" vector-effect="non-scaling-stroke" d="
  M 170.01 377.28
  L 169.88 266.12
  A 1.11 1.11 0.0 0 0 168.77 265.01
  L 99.99 265.03
  A 0.69 0.68 0.0 0 0 99.30 265.71
  L 99.11 375.55"
/>
<path stroke="#8c8c8c" vector-effect="non-scaling-stroke" d="
  M 95.35 376.71
  L 95.29 266.41
  A 1.35 1.35 0.0 0 0 93.93 265.06
  L 63.98 265.17"
/>
<path stroke="#8c8c8c" vector-effect="non-scaling-stroke" d="
  M 63.96 263.71
  L 94.33 263.78
  Q 95.18 263.78 95.19 262.93
  L 95.26 258.30
  Q 95.27 257.46 94.44 257.46
  L 64.72 257.47"
/>
<path stroke="#8c8c8c" vector-effect="non-scaling-stroke" d="
  M 64.22 256.06
  L 94.03 256.24
  A 1.18 1.18 0.0 0 0 95.22 255.05
  L 95.16 181.43
  A 0.80 0.79 0.4 0 0 94.37 180.64
  C 73.17 180.39 51.96 180.68 30.75 180.53
  Q 29.29 180.52 26.88 181.04"
/>
<path stroke="#8c8c8c" vector-effect="non-scaling-stroke" d="
  M 27.37 178.74
  Q 27.94 179.46 29.16 179.22
  Q 30.43 178.98 30.87 178.98
  Q 62.26 179.13 94.02 178.94
  A 1.28 1.28 0.0 0 0 95.29 177.67
  L 95.29 174.45
  A 1.40 1.40 0.0 0 0 93.89 173.05
  L 27.71 172.99"
/>
<path stroke="#8c8c8c" vector-effect="non-scaling-stroke" d="
  M 27.95 171.86
  L 93.95 171.88
  Q 95.27 171.88 95.27 170.56
  L 95.17 105.21
  A 0.74 0.74 0.0 0 0 94.43 104.47
  L 63.97 104.47"
/>
<path stroke="#8c8c8c" vector-effect="non-scaling-stroke" d="
  M 63.72 103.23
  L 94.09 103.19
  A 1.15 1.15 0.0 0 0 95.24 102.06
  L 95.31 98.95
  A 1.30 1.30 0.0 0 0 94.01 97.62
  L 27.23 97.69"
/>
<path stroke="#8c8c8c" vector-effect="non-scaling-stroke" d="
  M 169.93 44.65
  L 170.02 94.87
  A 0.97 0.96 -90.0 0 1 169.06 95.84
  L 100.44 95.76
  A 1.28 1.28 0.0 0 1 99.16 94.47
  L 99.23 41.44"
/>
<path stroke="#c9cccb" vector-effect="non-scaling-stroke" d="
  M 317.26 17.33
  C 318.44 18.48 317.58 20.61 317.58 21.89
  Q 317.49 58.36 317.53 94.76"
/>
<path stroke="#8c8c8c" vector-effect="non-scaling-stroke" d="
  M 317.53 94.76
  Q 317.57 95.12 317.38 95.42
  Q 317.14 95.83 316.66 95.83
  L 250.47 95.89
  A 1.25 1.25 0.0 0 1 249.22 94.63
  L 249.30 47.05"
/>
<path stroke="#8c8c8c" vector-effect="non-scaling-stroke" d="
  M 244.98 17.44
  L 245.08 94.44
  Q 245.08 95.88 243.65 95.87
  L 174.97 95.80
  A 1.09 1.09 0.0 0 1 173.88 94.71
  L 173.85 46.21"
/>
<path stroke="#c9cccb" vector-effect="non-scaling-stroke" d="
  M 317.43 411.03
  Q 318.37 408.03 318.12 404.72
  Q 317.71 399.33 317.71 399.26
  Q 317.40 332.52 317.57 265.80"
/>
<path stroke="#565958" vector-effect="non-scaling-stroke" d="
  M 317.57 265.80
  Q 318.13 265.88 318.17 264.99
  Q 318.25 263.15 317.66 262.65"
/>
<path stroke="#c9cccb" vector-effect="non-scaling-stroke" d="
  M 317.66 262.65
  L 317.41 258.27"
/>
<path stroke="#565958" vector-effect="non-scaling-stroke" d="
  M 317.41 258.27
  Q 319.07 256.79 317.32 256.09"
/>
<path stroke="#c9cccb" vector-effect="non-scaling-stroke" d="
  M 317.32 256.09
  L 317.53 181.47"
/>
<path stroke="#565958" vector-effect="non-scaling-stroke" d="
  M 317.53 181.47
  Q 318.93 181.64 318.13 178.98"
/>
<path stroke="#878c85" vector-effect="non-scaling-stroke" d="
  M 318.13 178.98
  Q 319.41 176.01 318.12 172.16"
/>
<path stroke="#565958" vector-effect="non-scaling-stroke" d="
  M 318.12 172.16
  Q 318.18 171.51 317.48 171.03"
/>
<path stroke="#c9cccb" vector-effect="non-scaling-stroke" d="
  M 317.48 171.03
  L 317.55 105.79"
/>
<path stroke="#565958" vector-effect="non-scaling-stroke" d="
  M 317.55 105.79
  Q 318.72 105.32 318.43 104.22
  Q 317.93 102.34 318.90 101.09
  Q 319.14 100.78 319.02 100.41
  L 318.26 98.12
  A 1.59 1.55 -50.1 0 1 318.20 97.34
  Q 318.44 95.83 317.53 94.76"
/>
<path stroke="#bdbfb9" vector-effect="non-scaling-stroke" d="
  M 317.28 177.94
  L 317.56 173.94"
/>
<path stroke="#818181" vector-effect="non-scaling-stroke" d="
  M 154.78 15.97
  Q 155.10 16.14 155.50 16.12
  Q 162.16 15.75 168.53 16.09
  Q 169.19 16.13 169.28 15.47
  L 169.33 15.00
  A 0.59 0.59 0.0 0 0 168.75 14.33
  L 100.26 13.94
  Q 99.70 13.93 99.66 14.49
  L 99.58 15.76
  Q 99.56 16.01 99.81 16.01
  L 154.15 15.81
  Q 154.48 15.81 154.78 15.97"
/>
<path stroke="#818181" vector-effect="non-scaling-stroke" d="
  M 184.50 15.89
  L 243.76 15.86
  A 0.56 0.55 80.3 0 0 244.28 15.12
  L 244.14 14.74
  Q 243.84 13.88 242.93 13.89
  L 173.75 14.42
  Q 173.57 14.42 173.66 14.58
  L 174.45 16.02
  Q 174.52 16.15 174.66 16.14
  Q 179.18 15.78 183.50 16.12
  Q 183.76 16.14 183.94 16.03
  Q 184.19 15.89 184.50 15.89"
/>
<path stroke="#4b4d4d" vector-effect="non-scaling-stroke" d="
  M 317.05 15.20
  Q 317.83 15.06 318.69 15.71
  A 0.49 0.48 -58.4 0 0 319.43 15.53
  Q 319.65 15.05 319.62 14.53
  A 0.48 0.48 0.0 0 0 319.08 14.08
  L 317.06 14.36"
/>
<path stroke="#818181" vector-effect="non-scaling-stroke" d="
  M 317.06 14.36
  L 250.29 14.04
  A 0.52 0.51 0.0 0 0 249.76 14.56
  L 249.76 14.94
  Q 249.76 15.78 250.60 15.80
  C 261.65 16.10 273.09 15.74 283.80 15.94
  Q 300.03 16.24 316.25 15.73
  Q 316.84 15.71 317.05 15.20"
/>
<path stroke="#c9cccb" vector-effect="non-scaling-stroke" d="
  M 317.06 14.36
  Q 317.22 14.75 317.05 15.20"
/>
<path stroke="#8c8c8c" vector-effect="non-scaling-stroke" d="
  M 169.90 98.63
  A 0.99 0.99 0.0 0 0 168.91 97.64
  L 100.25 97.64
  A 0.99 0.99 0.0 0 0 99.26 98.63
  L 99.26 102.23
  A 0.99 0.99 0.0 0 0 100.25 103.22
  L 168.91 103.22
  A 0.99 0.99 0.0 0 0 169.90 102.23
  L 169.90 98.63"
/>
<path stroke="#8c8c8c" vector-effect="non-scaling-stroke" d="
  M 245.15 98.82
  A 1.25 1.25 0.0 0 0 243.90 97.57
  L 175.04 97.57
  A 1.25 1.25 0.0 0 0 173.79 98.82
  L 173.79 102.00
  A 1.25 1.25 0.0 0 0 175.04 103.25
  L 243.90 103.25
  A 1.25 1.25 0.0 0 0 245.15 102.00
  L 245.15 98.82"
/>
<path stroke="#8c8c8c" vector-effect="non-scaling-stroke" d="
  M 317.57 98.48
  A 0.92 0.92 0.0 0 0 316.65 97.56
  L 250.17 97.56
  A 0.92 0.92 0.0 0 0 249.25 98.48
  L 249.25 102.32
  A 0.92 0.92 0.0 0 0 250.17 103.24
  L 316.65 103.24
  A 0.92 0.92 0.0 0 0 317.57 102.32
  L 317.57 98.48"
/>
<path stroke="#8c8c8c" vector-effect="non-scaling-stroke" d="
  M 169.87 105.19
  A 0.75 0.75 0.0 0 0 169.12 104.44
  L 100.04 104.44
  A 0.75 0.75 0.0 0 0 99.29 105.19
  L 99.29 171.11
  A 0.75 0.75 0.0 0 0 100.04 171.86
  L 169.12 171.86
  A 0.75 0.75 0.0 0 0 169.87 171.11
  L 169.87 105.19"
/>
<path stroke="#8c8c8c" vector-effect="non-scaling-stroke" d="
  M 244.96 105.51
  A 1.08 1.08 0.0 0 0 243.88 104.43
  L 174.96 104.43
  A 1.08 1.08 0.0 0 0 173.88 105.51
  L 173.88 170.81
  A 1.08 1.08 0.0 0 0 174.96 171.89
  L 243.88 171.89
  A 1.08 1.08 0.0 0 0 244.96 170.81
  L 244.96 105.51"
/>
<path stroke="#8c8c8c" vector-effect="non-scaling-stroke" d="
  M 169.94 174.12
  A 1.06 1.06 0.0 0 0 168.88 173.06
  L 100.34 173.06
  A 1.06 1.06 0.0 0 0 99.28 174.12
  L 99.28 177.96
  A 1.06 1.06 0.0 0 0 100.34 179.02
  L 168.88 179.02
  A 1.06 1.06 0.0 0 0 169.94 177.96
  L 169.94 174.12"
/>
<path stroke="#8c8c8c" vector-effect="non-scaling-stroke" d="
  M 245.03 174.69
  A 1.66 1.66 0.0 0 0 243.37 173.03
  L 175.35 173.03
  A 1.66 1.66 0.0 0 0 173.69 174.69
  L 173.69 177.41
  A 1.66 1.66 0.0 0 0 175.35 179.07
  L 243.37 179.07
  A 1.66 1.66 0.0 0 0 245.03 177.41
  L 245.03 174.69"
/>
<path stroke="#8c8c8c" vector-effect="non-scaling-stroke" d="
  M 169.8454 181.3584
  A 0.85 0.85 0.0 0 0 168.9939 180.5099
  L 100.0940 180.6302
  A 0.85 0.85 0.0 0 0 99.2455 181.4817
  L 99.3746 255.4216
  A 0.85 0.85 0.0 0 0 100.2261 256.2701
  L 169.1260 256.1498
  A 0.85 0.85 0.0 0 0 169.9745 255.2983
  L 169.8454 181.3584"
/>
<path stroke="#8c8c8c" vector-effect="non-scaling-stroke" d="
  M 244.8055 181.3981
  A 0.94 0.94 0.0 0 0 243.8639 180.4597
  L 174.7240 180.5804
  A 0.94 0.94 0.0 0 0 173.7856 181.5220
  L 173.9145 255.3419
  A 0.94 0.94 0.0 0 0 174.8561 256.2803
  L 243.9960 256.1596
  A 0.94 0.94 0.0 0 0 244.9344 255.2180
  L 244.8055 181.3981"
/>
<path stroke="#8c8c8c" vector-effect="non-scaling-stroke" d="
  M 169.8962 258.3984
  A 1.07 1.07 0.0 0 0 168.8243 257.3302
  L 100.3444 257.4498
  A 1.07 1.07 0.0 0 0 99.2763 258.5216
  L 99.2838 262.8216
  A 1.07 1.07 0.0 0 0 100.3557 263.8898
  L 168.8356 263.7702
  A 1.07 1.07 0.0 0 0 169.9037 262.6984
  L 169.8962 258.3984"
/>
<path stroke="#8c8c8c" vector-effect="non-scaling-stroke" d="
  M 245.06 258.71
  A 1.36 1.36 0.0 0 0 243.70 257.35
  L 175.18 257.35
  A 1.36 1.36 0.0 0 0 173.82 258.71
  L 173.82 262.49
  A 1.36 1.36 0.0 0 0 175.18 263.85
  L 243.70 263.85
  A 1.36 1.36 0.0 0 0 245.06 262.49
  L 245.06 258.71"
/>
</g>
<path fill="#ffffff" d="
  M 0.00 0.00
  L 332.00 0.00
  L 332.00 418.00
  L 0.00 418.00
  L 0.00 0.00
  Z
  M 322.52 12.27
  A 1.26 1.26 0.0 0 0 321.26 11.01
  L 22.28 11.01
  A 1.26 1.26 0.0 0 0 21.02 12.27
  L 21.02 413.09
  A 1.26 1.26 0.0 0 0 22.28 414.35
  L 321.26 414.35
  A 1.26 1.26 0.0 0 0 322.52 413.09
  L 322.52 12.27
  Z"
/>
<path fill="#020202" d="
  M 322.52 413.09
  A 1.26 1.26 0.0 0 1 321.26 414.35
  L 22.28 414.35
  A 1.26 1.26 0.0 0 1 21.02 413.09
  L 21.02 12.27
  A 1.26 1.26 0.0 0 1 22.28 11.01
  L 321.26 11.01
  A 1.26 1.26 0.0 0 1 322.52 12.27
  L 322.52 413.09
  Z
  M 25.26 14.87
  L 24.96 254.48
  L 24.94 258.64
  Q 25.49 312.96 25.38 367.50
  C 25.36 378.00 25.78 396.01 25.22 410.30
  Q 25.20 410.81 25.67 411.02
  Q 26.09 411.20 26.67 410.91
  L 94.18 411.09
  A 1.34 1.33 -89.8 0 0 95.52 409.75
  L 95.35 376.71
  L 95.45 361.79
  Q 95.45 361.49 95.73 361.41
  L 98.72 360.53
  Q 98.96 360.46 98.96 360.71
  L 99.11 375.55
  L 98.97 409.83
  A 1.28 1.28 0.0 0 0 100.25 411.11
  L 168.97 411.02
  A 1.04 1.04 0.0 0 0 170.00 409.98
  L 170.01 377.28
  Q 170.83 374.80 173.81 377.03
  L 173.85 409.62
  Q 173.85 411.04 175.27 411.04
  L 243.70 411.07
  Q 245.19 411.07 245.19 409.58
  L 245.15 376.54
  L 245.34 353.55
  Q 245.35 353.02 245.81 352.75
  L 246.26 352.48
  Q 246.72 352.22 246.81 351.70
  Q 247.37 348.69 249.28 350.43
  L 249.15 409.56
  Q 249.14 410.98 250.57 410.98
  L 317.43 411.03
  Q 318.61 411.20 319.19 410.88
  Q 319.69 410.61 319.63 409.51
  Q 319.56 408.38 319.57 407.25
  Q 319.61 343.38 319.58 279.52
  C 319.58 272.83 320.15 264.17 319.98 256.47
  C 319.41 231.81 319.07 206.84 319.91 182.19
  C 320.20 173.60 319.71 161.89 319.67 156.44
  C 319.58 140.11 319.43 123.78 319.77 107.44
  Q 319.90 100.86 319.69 89.50
  Q 319.37 72.98 319.73 18.00
  Q 319.74 17.45 319.20 17.33
  Q 318.30 17.12 317.26 17.33
  C 316.83 17.10 316.37 16.86 315.88 16.87
  Q 285.57 17.29 255.25 17.01
  Q 252.52 16.98 250.28 17.21
  Q 249.27 17.31 249.28 18.32
  L 249.30 47.05
  L 245.71 46.15
  Q 245.38 46.06 245.38 45.72
  Q 245.34 40.47 245.35 35.25
  Q 245.36 34.68 245.92 27.28
  Q 246.31 22.17 244.98 17.44
  L 243.53 17.23
  Q 242.99 17.15 242.44 17.15
  L 175.48 17.04
  Q 173.95 17.03 173.95 18.56
  L 173.85 46.21
  Q 171.34 46.99 169.93 44.65
  L 169.81 17.72
  A 0.80 0.79 -0.0 0 0 169.01 16.93
  L 100.59 17.31
  Q 99.25 17.32 99.25 18.65
  L 99.23 41.44
  L 98.96 48.31
  A 0.23 0.22 -84.4 0 1 98.70 48.53
  L 95.72 48.02
  Q 95.45 47.97 95.45 47.70
  L 95.35 36.04
  L 95.31 17.85
  A 0.58 0.58 0.0 0 0 94.73 17.27
  L 67.22 17.15
  Q 63.53 16.82 65.79 15.84
  L 94.15 15.85
  A 0.52 0.52 0.0 0 0 94.65 15.21
  L 94.57 14.91
  Q 94.35 14.05 93.46 14.05
  Q 62.59 13.96 35.00 14.09
  Q 29.28 14.11 25.26 14.87
  Z
  M 154.78 15.97
  Q 155.10 16.14 155.50 16.12
  Q 162.16 15.75 168.53 16.09
  Q 169.19 16.13 169.28 15.47
  L 169.33 15.00
  A 0.59 0.59 0.0 0 0 168.75 14.33
  L 100.26 13.94
  Q 99.70 13.93 99.66 14.49
  L 99.58 15.76
  Q 99.56 16.01 99.81 16.01
  L 154.15 15.81
  Q 154.48 15.81 154.78 15.97
  Z
  M 184.50 15.89
  L 243.76 15.86
  A 0.56 0.55 80.3 0 0 244.28 15.12
  L 244.14 14.74
  Q 243.84 13.88 242.93 13.89
  L 173.75 14.42
  Q 173.57 14.42 173.66 14.58
  L 174.45 16.02
  Q 174.52 16.15 174.66 16.14
  Q 179.18 15.78 183.50 16.12
  Q 183.76 16.14 183.94 16.03
  Q 184.19 15.89 184.50 15.89
  Z
  M 317.05 15.20
  Q 317.83 15.06 318.69 15.71
  A 0.49 0.48 -58.4 0 0 319.43 15.53
  Q 319.65 15.05 319.62 14.53
  A 0.48 0.48 0.0 0 0 319.08 14.08
  L 317.06 14.36
  L 250.29 14.04
  A 0.52 0.51 0.0 0 0 249.76 14.56
  L 249.76 14.94
  Q 249.76 15.78 250.60 15.80
  C 261.65 16.10 273.09 15.74 283.80 15.94
  Q 300.03 16.24 316.25 15.73
  Q 316.84 15.71 317.05 15.20
  Z"
/>
<path fill="#ffffff" d="
  M 65.79 15.84
  Q 60.65 15.58 55.50 15.43
  Q 55.22 15.42 54.97 15.51
  Q 54.68 15.62 54.49 15.63
  Q 39.81 15.98 25.26 14.87
  Q 29.28 14.11 35.00 14.09
  Q 62.59 13.96 93.46 14.05
  Q 94.35 14.05 94.57 14.91
  L 94.65 15.21
  A 0.52 0.52 0.0 0 1 94.15 15.85
  L 65.79 15.84
  Z"
/>
<path fill="#ffffff" d="
  M 154.15 15.81
  L 99.81 16.01
  Q 99.56 16.01 99.58 15.76
  L 99.66 14.49
  Q 99.70 13.93 100.26 13.94
  L 168.75 14.33
  A 0.59 0.59 0.0 0 1 169.33 15.00
  L 169.28 15.47
  Q 169.19 16.13 168.53 16.09
  Q 162.16 15.75 155.50 16.12
  Q 155.10 16.14 154.78 15.97
  Q 154.48 15.81 154.15 15.81
  Z"
/>
<path fill="#ffffff" d="
  M 183.94 16.03
  Q 183.76 16.14 183.50 16.12
  Q 179.18 15.78 174.66 16.14
  Q 174.52 16.15 174.45 16.02
  L 173.66 14.58
  Q 173.57 14.42 173.75 14.42
  L 242.93 13.89
  Q 243.84 13.88 244.14 14.74
  L 244.28 15.12
  A 0.56 0.55 80.3 0 1 243.76 15.86
  L 184.50 15.89
  Q 184.19 15.89 183.94 16.03
  Z"
/>
<path fill="#ffffff" d="
  M 317.06 14.36
  Q 317.22 14.75 317.05 15.20
  Q 316.84 15.71 316.25 15.73
  Q 300.03 16.24 283.80 15.94
  C 273.09 15.74 261.65 16.10 250.60 15.80
  Q 249.76 15.78 249.76 14.94
  L 249.76 14.56
  A 0.52 0.51 0.0 0 1 250.29 14.04
  L 317.06 14.36
  Z"
/>
<path fill="#939897" d="
  M 317.05 15.20
  Q 317.22 14.75 317.06 14.36
  L 319.08 14.08
  A 0.48 0.48 0.0 0 1 319.62 14.53
  Q 319.65 15.05 319.43 15.53
  A 0.49 0.48 -58.4 0 1 318.69 15.71
  Q 317.83 15.06 317.05 15.20
  Z"
/>
<path fill="#7a7f73" d="
  M 25.26 14.87
  Q 39.81 15.98 54.49 15.63
  Q 54.68 15.62 54.97 15.51
  Q 55.22 15.42 55.50 15.43
  Q 60.65 15.58 65.79 15.84
  Q 63.53 16.82 67.22 17.15
  L 28.25 17.09
  A 1.44 1.44 0.0 0 0 26.81 18.53
  L 26.92 95.13
  Q 24.83 97.74 27.23 97.69
  L 26.87 101.84
  A 1.09 1.09 0.0 0 0 27.96 103.02
  L 63.23 102.99
  Q 63.38 102.99 63.43 103.13
  Q 63.49 103.30 63.72 103.23
  Q 63.42 103.96 63.97 104.47
  L 27.58 104.80
  A 0.95 0.94 90.0 0 0 26.64 105.75
  L 26.70 170.42
  Q 26.70 170.91 27.04 171.26
  Q 27.48 171.69 27.95 171.86
  Q 27.44 172.08 27.71 172.99
  Q 27.51 173.08 27.32 173.27
  Q 27.16 173.43 27.11 173.68
  Q 26.66 176.24 27.37 178.74
  L 26.59 178.99
  Q 26.11 179.15 26.09 179.65
  Q 26.06 180.70 26.88 181.04
  L 26.84 254.89
  A 1.13 1.13 0.0 0 0 27.97 256.02
  L 64.22 256.06
  Q 63.81 256.36 63.70 256.65
  Q 63.50 257.15 64.02 257.29
  L 64.72 257.47
  L 28.46 257.38
  Q 27.20 257.37 27.08 258.62
  L 26.73 262.32
  A 1.35 1.35 0.0 0 0 28.08 263.80
  L 63.96 263.71
  Q 63.69 264.37 63.98 265.17
  L 27.81 264.96
  A 0.88 0.88 0.0 0 0 26.92 265.84
  L 26.67 410.91
  Q 26.09 411.20 25.67 411.02
  Q 25.20 410.81 25.22 410.30
  C 25.78 396.01 25.36 378.00 25.38 367.50
  Q 25.49 312.96 24.94 258.64
  Q 27.12 256.28 24.96 254.48
  L 25.26 14.87
  Z"
/>
<path fill="#ffffff" d="
  M 169.93 44.65
  L 170.02 94.87
  A 0.97 0.96 -90.0 0 1 169.06 95.84
  L 100.44 95.76
  A 1.28 1.28 0.0 0 1 99.16 94.47
  L 99.23 41.44
  L 99.25 18.65
  Q 99.25 17.32 100.59 17.31
  L 169.01 16.93
  A 0.80 0.79 -0.0 0 1 169.81 17.72
  L 169.93 44.65
  Z"
/>
<path fill="#ffffff" d="
  M 67.22 17.15
  L 94.73 17.27
  A 0.58 0.58 0.0 0 1 95.31 17.85
  L 95.35 36.04
  L 95.35 94.65
  A 1.28 1.28 0.0 0 1 94.06 95.93
  Q 61.19 95.57 27.75 95.78
  Q 27.10 95.78 26.92 95.13
  L 26.81 18.53
  A 1.44 1.44 0.0 0 1 28.25 17.09
  L 67.22 17.15
  Z"
/>
<path fill="#ffffff" d="
  M 244.98 17.44
  L 245.08 94.44
  Q 245.08 95.88 243.65 95.87
  L 174.97 95.80
  A 1.09 1.09 0.0 0 1 173.88 94.71
  L 173.85 46.21
  L 173.95 18.56
  Q 173.95 17.03 175.48 17.04
  L 242.44 17.15
  Q 242.99 17.15 243.53 17.23
  L 244.98 17.44
  Z"
/>
<path fill="#ffffff" d="
  M 317.26 17.33
  C 318.44 18.48 317.58 20.61 317.58 21.89
  Q 317.49 58.36 317.53 94.76
  Q 317.57 95.12 317.38 95.42
  Q 317.14 95.83 316.66 95.83
  L 250.47 95.89
  A 1.25 1.25 0.0 0 1 249.22 94.63
  L 249.30 47.05
  L 249.28 18.32
  Q 249.27 17.31 250.28 17.21
  Q 252.52 16.98 255.25 17.01
  Q 285.57 17.29 315.88 16.87
  C 316.37 16.86 316.83 17.10 317.26 17.33
  Z"
/>
<path fill="#939897" d="
  M 317.26 17.33
  Q 318.30 17.12 319.20 17.33
  Q 319.74 17.45 319.73 18.00
  Q 319.37 72.98 319.69 89.50
  Q 319.90 100.86 319.77 107.44
  C 319.43 123.78 319.58 140.11 319.67 156.44
  C 319.71 161.89 320.20 173.60 319.91 182.19
  C 319.07 206.84 319.41 231.81 319.98 256.47
  C 320.15 264.17 319.58 272.83 319.58 279.52
  Q 319.61 343.38 319.57 407.25
  Q 319.56 408.38 319.63 409.51
  Q 319.69 410.61 319.19 410.88
  Q 318.61 411.20 317.43 411.03
  Q 318.37 408.03 318.12 404.72
  Q 317.71 399.33 317.71 399.26
  Q 317.40 332.52 317.57 265.80
  Q 318.13 265.88 318.17 264.99
  Q 318.25 263.15 317.66 262.65
  L 317.41 258.27
  Q 319.07 256.79 317.32 256.09
  L 317.53 181.47
  Q 318.93 181.64 318.13 178.98
  Q 319.41 176.01 318.12 172.16
  Q 318.18 171.51 317.48 171.03
  L 317.55 105.79
  Q 318.72 105.32 318.43 104.22
  Q 317.93 102.34 318.90 101.09
  Q 319.14 100.78 319.02 100.41
  L 318.26 98.12
  A 1.59 1.55 -50.1 0 1 318.20 97.34
  Q 318.44 95.83 317.53 94.76
  Q 317.49 58.36 317.58 21.89
  C 317.58 20.61 318.44 18.48 317.26 17.33
  Z"
/>
<path fill="#181918" d="
  M 244.98 17.44
  Q 246.31 22.17 245.92 27.28
  Q 245.36 34.68 245.35 35.25
  Q 245.34 40.47 245.38 45.72
  Q 245.38 46.06 245.71 46.15
  L 249.30 47.05
  L 249.22 94.63
  A 1.25 1.25 0.0 0 0 250.47 95.89
  L 316.66 95.83
  Q 317.14 95.83 317.38 95.42
  Q 317.57 95.12 317.53 94.76
  Q 318.44 95.83 318.20 97.34
  A 1.59 1.55 -50.1 0 0 318.26 98.12
  L 319.02 100.41
  Q 319.14 100.78 318.90 101.09
  Q 317.93 102.34 318.43 104.22
  Q 318.72 105.32 317.55 105.79
  Q 317.50 105.14 317.16 104.76
  Q 316.88 104.44 316.23 104.44
  Q 283.37 104.53 250.46 104.35
  A 1.13 1.12 -89.7 0 0 249.33 105.48
  L 249.28 170.78
  Q 249.28 171.92 250.42 171.92
  Q 281.19 171.86 312.50 171.88
  Q 314.40 171.88 316.30 172.19
  Q 316.83 172.28 317.14 171.84
  Q 317.38 171.48 317.48 171.03
  Q 318.18 171.51 318.12 172.16
  Q 318.28 174.30 317.56 173.94
  Q 316.87 173.02 314.49 173.01
  Q 282.07 172.99 249.47 173.04
  Q 249.20 173.04 249.21 173.31
  L 249.37 178.82
  Q 249.38 179.05 249.61 179.05
  L 316.55 179.24
  Q 316.99 179.24 317.15 178.83
  Q 317.30 178.41 317.28 177.94
  Q 318.08 177.78 318.13 178.98
  Q 318.93 181.64 317.53 181.47
  Q 316.92 180.27 314.00 180.29
  Q 282.09 180.50 250.22 180.55
  A 0.93 0.92 -0.0 0 0 249.29 181.47
  L 249.29 255.05
  Q 249.29 256.09 250.33 256.09
  L 317.32 256.09
  Q 319.07 256.79 317.41 258.27
  Q 317.04 257.24 316.50 257.24
  Q 283.22 257.45 250.13 257.34
  Q 249.20 257.34 249.22 258.26
  L 249.30 262.85
  A 0.98 0.98 0.0 0 0 250.28 263.81
  Q 283.21 263.84 316.39 263.84
  Q 317.30 263.84 317.66 262.65
  Q 318.25 263.15 318.17 264.99
  Q 318.13 265.88 317.57 265.80
  Q 317.17 264.99 316.75 264.99
  Q 283.26 265.04 250.07 265.00
  A 0.80 0.80 0.0 0 0 249.27 265.80
  L 249.28 350.43
  Q 247.37 348.69 246.81 351.70
  Q 246.72 352.22 246.26 352.48
  L 245.81 352.75
  Q 245.35 353.02 245.34 353.55
  L 245.15 376.54
  L 244.98 266.40
  A 1.38 1.38 0.0 0 0 243.60 265.02
  L 174.98 265.02
  A 1.22 1.22 0.0 0 0 173.76 266.24
  L 173.81 377.03
  Q 170.83 374.80 170.01 377.28
  L 169.88 266.12
  A 1.11 1.11 0.0 0 0 168.77 265.01
  L 99.99 265.03
  A 0.69 0.68 0.0 0 0 99.30 265.71
  L 99.11 375.55
  L 98.96 360.71
  Q 98.96 360.46 98.72 360.53
  L 95.73 361.41
  Q 95.45 361.49 95.45 361.79
  L 95.35 376.71
  L 95.29 266.41
  A 1.35 1.35 0.0 0 0 93.93 265.06
  L 63.98 265.17
  Q 63.69 264.37 63.96 263.71
  L 94.33 263.78
  Q 95.18 263.78 95.19 262.93
  L 95.26 258.30
  Q 95.27 257.46 94.44 257.46
  L 64.72 257.47
  L 64.02 257.29
  Q 63.50 257.15 63.70 256.65
  Q 63.81 256.36 64.22 256.06
  L 94.03 256.24
  A 1.18 1.18 0.0 0 0 95.22 255.05
  L 95.16 181.43
  A 0.80 0.79 0.4 0 0 94.37 180.64
  C 73.17 180.39 51.96 180.68 30.75 180.53
  Q 29.29 180.52 26.88 181.04
  Q 26.06 180.70 26.09 179.65
  Q 26.11 179.15 26.59 178.99
  L 27.37 178.74
  Q 27.94 179.46 29.16 179.22
  Q 30.43 178.98 30.87 178.98
  Q 62.26 179.13 94.02 178.94
  A 1.28 1.28 0.0 0 0 95.29 177.67
  L 95.29 174.45
  A 1.40 1.40 0.0 0 0 93.89 173.05
  L 27.71 172.99
  Q 27.44 172.08 27.95 171.86
  L 93.95 171.88
  Q 95.27 171.88 95.27 170.56
  L 95.17 105.21
  A 0.74 0.74 0.0 0 0 94.43 104.47
  L 63.97 104.47
  Q 63.42 103.96 63.72 103.23
  L 94.09 103.19
  A 1.15 1.15 0.0 0 0 95.24 102.06
  L 95.31 98.95
  A 1.30 1.30 0.0 0 0 94.01 97.62
  L 27.23 97.69
  Q 24.83 97.74 26.92 95.13
  Q 27.10 95.78 27.75 95.78
  Q 61.19 95.57 94.06 95.93
  A 1.28 1.28 0.0 0 0 95.35 94.65
  L 95.35 36.04
  L 95.45 47.70
  Q 95.45 47.97 95.72 48.02
  L 98.70 48.53
  A 0.23 0.22 -84.4 0 0 98.96 48.31
  L 99.23 41.44
  L 99.16 94.47
  A 1.28 1.28 0.0 0 0 100.44 95.76
  L 169.06 95.84
  A 0.97 0.96 -90.0 0 0 170.02 94.87
  L 169.93 44.65
  Q 171.34 46.99 173.85 46.21
  L 173.88 94.71
  A 1.09 1.09 0.0 0 0 174.97 95.80
  L 243.65 95.87
  Q 245.08 95.88 245.08 94.44
  L 244.98 17.44
  Z
  M 169.90 98.63
  A 0.99 0.99 0.0 0 0 168.91 97.64
  L 100.25 97.64
  A 0.99 0.99 0.0 0 0 99.26 98.63
  L 99.26 102.23
  A 0.99 0.99 0.0 0 0 100.25 103.22
  L 168.91 103.22
  A 0.99 0.99 0.0 0 0 169.90 102.23
  L 169.90 98.63
  Z
  M 245.15 98.82
  A 1.25 1.25 0.0 0 0 243.90 97.57
  L 175.04 97.57
  A 1.25 1.25 0.0 0 0 173.79 98.82
  L 173.79 102.00
  A 1.25 1.25 0.0 0 0 175.04 103.25
  L 243.90 103.25
  A 1.25 1.25 0.0 0 0 245.15 102.00
  L 245.15 98.82
  Z
  M 317.57 98.48
  A 0.92 0.92 0.0 0 0 316.65 97.56
  L 250.17 97.56
  A 0.92 0.92 0.0 0 0 249.25 98.48
  L 249.25 102.32
  A 0.92 0.92 0.0 0 0 250.17 103.24
  L 316.65 103.24
  A 0.92 0.92 0.0 0 0 317.57 102.32
  L 317.57 98.48
  Z
  M 169.87 105.19
  A 0.75 0.75 0.0 0 0 169.12 104.44
  L 100.04 104.44
  A 0.75 0.75 0.0 0 0 99.29 105.19
  L 99.29 171.11
  A 0.75 0.75 0.0 0 0 100.04 171.86
  L 169.12 171.86
  A 0.75 0.75 0.0 0 0 169.87 171.11
  L 169.87 105.19
  Z
  M 244.96 105.51
  A 1.08 1.08 0.0 0 0 243.88 104.43
  L 174.96 104.43
  A 1.08 1.08 0.0 0 0 173.88 105.51
  L 173.88 170.81
  A 1.08 1.08 0.0 0 0 174.96 171.89
  L 243.88 171.89
  A 1.08 1.08 0.0 0 0 244.96 170.81
  L 244.96 105.51
  Z
  M 169.94 174.12
  A 1.06 1.06 0.0 0 0 168.88 173.06
  L 100.34 173.06
  A 1.06 1.06 0.0 0 0 99.28 174.12
  L 99.28 177.96
  A 1.06 1.06 0.0 0 0 100.34 179.02
  L 168.88 179.02
  A 1.06 1.06 0.0 0 0 169.94 177.96
  L 169.94 174.12
  Z
  M 245.03 174.69
  A 1.66 1.66 0.0 0 0 243.37 173.03
  L 175.35 173.03
  A 1.66 1.66 0.0 0 0 173.69 174.69
  L 173.69 177.41
  A 1.66 1.66 0.0 0 0 175.35 179.07
  L 243.37 179.07
  A 1.66 1.66 0.0 0 0 245.03 177.41
  L 245.03 174.69
  Z
  M 169.8454 181.3584
  A 0.85 0.85 0.0 0 0 168.9939 180.5099
  L 100.0940 180.6302
  A 0.85 0.85 0.0 0 0 99.2455 181.4817
  L 99.3746 255.4216
  A 0.85 0.85 0.0 0 0 100.2261 256.2701
  L 169.1260 256.1498
  A 0.85 0.85 0.0 0 0 169.9745 255.2983
  L 169.8454 181.3584
  Z
  M 244.8055 181.3981
  A 0.94 0.94 0.0 0 0 243.8639 180.4597
  L 174.7240 180.5804
  A 0.94 0.94 0.0 0 0 173.7856 181.5220
  L 173.9145 255.3419
  A 0.94 0.94 0.0 0 0 174.8561 256.2803
  L 243.9960 256.1596
  A 0.94 0.94 0.0 0 0 244.9344 255.2180
  L 244.8055 181.3981
  Z
  M 169.8962 258.3984
  A 1.07 1.07 0.0 0 0 168.8243 257.3302
  L 100.3444 257.4498
  A 1.07 1.07 0.0 0 0 99.2763 258.5216
  L 99.2838 262.8216
  A 1.07 1.07 0.0 0 0 100.3557 263.8898
  L 168.8356 263.7702
  A 1.07 1.07 0.0 0 0 169.9037 262.6984
  L 169.8962 258.3984
  Z
  M 245.06 258.71
  A 1.36 1.36 0.0 0 0 243.70 257.35
  L 175.18 257.35
  A 1.36 1.36 0.0 0 0 173.82 258.71
  L 173.82 262.49
  A 1.36 1.36 0.0 0 0 175.18 263.85
  L 243.70 263.85
  A 1.36 1.36 0.0 0 0 245.06 262.49
  L 245.06 258.71
  Z"
/>
<path fill="#ffffff" d="
  M 63.72 103.23
  Q 63.49 103.30 63.43 103.13
  Q 63.38 102.99 63.23 102.99
  L 27.96 103.02
  A 1.09 1.09 0.0 0 1 26.87 101.84
  L 27.23 97.69
  L 94.01 97.62
  A 1.30 1.30 0.0 0 1 95.31 98.95
  L 95.24 102.06
  A 1.15 1.15 0.0 0 1 94.09 103.19
  L 63.72 103.23
  Z"
/>
<rect fill="#ffffff" x="99.26" y="97.64" width="70.64" height="5.58" rx="0.99"/>
<rect fill="#ffffff" x="173.79" y="97.57" width="71.36" height="5.68" rx="1.25"/>
<rect fill="#ffffff" x="249.25" y="97.56" width="68.32" height="5.68" rx="0.92"/>
<rect fill="#ffffff" x="99.29" y="104.44" width="70.58" height="67.42" rx="0.75"/>
<rect fill="#ffffff" x="173.88" y="104.43" width="71.08" height="67.46" rx="1.08"/>
<path fill="#ffffff" d="
  M 317.55 105.79
  L 317.48 171.03
  Q 317.38 171.48 317.14 171.84
  Q 316.83 172.28 316.30 172.19
  Q 314.40 171.88 312.50 171.88
  Q 281.19 171.86 250.42 171.92
  Q 249.28 171.92 249.28 170.78
  L 249.33 105.48
  A 1.13 1.12 -89.7 0 1 250.46 104.35
  Q 283.37 104.53 316.23 104.44
  Q 316.88 104.44 317.16 104.76
  Q 317.50 105.14 317.55 105.79
  Z"
/>
<path fill="#ffffff" d="
  M 63.97 104.47
  L 94.43 104.47
  A 0.74 0.74 0.0 0 1 95.17 105.21
  L 95.27 170.56
  Q 95.27 171.88 93.95 171.88
  L 27.95 171.86
  Q 27.48 171.69 27.04 171.26
  Q 26.70 170.91 26.70 170.42
  L 26.64 105.75
  A 0.95 0.94 -90.0 0 1 27.58 104.80
  L 63.97 104.47
  Z"
/>
<path fill="#7a7f73" d="
  M 318.12 172.16
  Q 319.41 176.01 318.13 178.98
  Q 318.08 177.78 317.28 177.94
  L 317.56 173.94
  Q 318.28 174.30 318.12 172.16
  Z"
/>
<path fill="#ffffff" d="
  M 27.71 172.99
  L 93.89 173.05
  A 1.40 1.40 0.0 0 1 95.29 174.45
  L 95.29 177.67
  A 1.28 1.28 0.0 0 1 94.02 178.94
  Q 62.26 179.13 30.87 178.98
  Q 30.43 178.98 29.16 179.22
  Q 27.94 179.46 27.37 178.74
  Q 26.66 176.24 27.11 173.68
  Q 27.16 173.43 27.32 173.27
  Q 27.51 173.08 27.71 172.99
  Z"
/>
<rect fill="#ffffff" x="99.28" y="173.06" width="70.66" height="5.96" rx="1.06"/>
<rect fill="#ffffff" x="173.69" y="173.03" width="71.34" height="6.04" rx="1.66"/>
<path fill="#ffffff" d="
  M 317.56 173.94
  L 317.28 177.94
  Q 317.30 178.41 317.15 178.83
  Q 316.99 179.24 316.55 179.24
  L 249.61 179.05
  Q 249.38 179.05 249.37 178.82
  L 249.21 173.31
  Q 249.20 173.04 249.47 173.04
  Q 282.07 172.99 314.49 173.01
  Q 316.87 173.02 317.56 173.94
  Z"
/>
<path fill="#ffffff" d="
  M 64.22 256.06
  L 27.97 256.02
  A 1.13 1.13 0.0 0 1 26.84 254.89
  L 26.88 181.04
  Q 29.29 180.52 30.75 180.53
  C 51.96 180.68 73.17 180.39 94.37 180.64
  A 0.80 0.79 0.4 0 1 95.16 181.43
  L 95.22 255.05
  A 1.18 1.18 0.0 0 1 94.03 256.24
  L 64.22 256.06
  Z"
/>
<rect fill="#ffffff" x="-35.30" y="-37.82" transform="translate(134.61,218.39) rotate(-0.1)" width="70.60" height="75.64" rx="0.85"/>
<rect fill="#ffffff" x="-35.51" y="-37.85" transform="translate(209.36,218.37) rotate(-0.1)" width="71.02" height="75.70" rx="0.94"/>
<path fill="#ffffff" d="
  M 317.53 181.47
  L 317.32 256.09
  L 250.33 256.09
  Q 249.29 256.09 249.29 255.05
  L 249.29 181.47
  A 0.93 0.92 0.0 0 1 250.22 180.55
  Q 282.09 180.50 314.00 180.29
  Q 316.92 180.27 317.53 181.47
  Z"
/>
<path fill="#939897" d="
  M 24.96 254.48
  Q 27.12 256.28 24.94 258.64
  L 24.96 254.48
  Z"
/>
<path fill="#ffffff" d="
  M 64.72 257.47
  L 94.44 257.46
  Q 95.27 257.46 95.26 258.30
  L 95.19 262.93
  Q 95.18 263.78 94.33 263.78
  L 63.96 263.71
  L 28.08 263.80
  A 1.35 1.35 0.0 0 1 26.73 262.32
  L 27.08 258.62
  Q 27.20 257.37 28.46 257.38
  L 64.72 257.47
  Z"
/>
<rect fill="#ffffff" x="-35.31" y="-3.22" transform="translate(134.59,260.61) rotate(-0.1)" width="70.62" height="6.44" rx="1.07"/>
<rect fill="#ffffff" x="173.82" y="257.35" width="71.24" height="6.50" rx="1.36"/>
<path fill="#ffffff" d="
  M 317.41 258.27
  L 317.66 262.65
  Q 317.30 263.84 316.39 263.84
  Q 283.21 263.84 250.28 263.81
  A 0.98 0.98 0.0 0 1 249.30 262.85
  L 249.22 258.26
  Q 249.20 257.34 250.13 257.34
  Q 283.22 257.45 316.50 257.24
  Q 317.04 257.24 317.41 258.27
  Z"
/>
<path fill="#ffffff" d="
  M 63.98 265.17
  L 93.93 265.06
  A 1.35 1.35 0.0 0 1 95.29 266.41
  L 95.35 376.71
  L 95.52 409.75
  A 1.34 1.33 -89.8 0 1 94.18 411.09
  L 26.67 410.91
  L 26.92 265.84
  A 0.88 0.88 0.0 0 1 27.81 264.96
  L 63.98 265.17
  Z"
/>
<path fill="#ffffff" d="
  M 170.01 377.28
  L 170.00 409.98
  A 1.04 1.04 0.0 0 1 168.97 411.02
  L 100.25 411.11
  A 1.28 1.28 0.0 0 1 98.97 409.83
  L 99.11 375.55
  L 99.30 265.71
  A 0.69 0.68 -0.0 0 1 99.99 265.03
  L 168.77 265.01
  A 1.11 1.11 0.0 0 1 169.88 266.12
  L 170.01 377.28
  Z"
/>
<path fill="#ffffff" d="
  M 245.15 376.54
  L 245.19 409.58
  Q 245.19 411.07 243.70 411.07
  L 175.27 411.04
  Q 173.85 411.04 173.85 409.62
  L 173.81 377.03
  L 173.76 266.24
  A 1.22 1.22 0.0 0 1 174.98 265.02
  L 243.60 265.02
  A 1.38 1.38 0.0 0 1 244.98 266.40
  L 245.15 376.54
  Z"
/>
<path fill="#ffffff" d="
  M 317.57 265.80
  Q 317.40 332.52 317.71 399.26
  Q 317.71 399.33 318.12 404.72
  Q 318.37 408.03 317.43 411.03
  L 250.57 410.98
  Q 249.14 410.98 249.15 409.56
  L 249.28 350.43
  L 249.27 265.80
  A 0.80 0.80 0.0 0 1 250.07 265.00
  Q 283.26 265.04 316.75 264.99
  Q 317.17 264.99 317.57 265.80
  Z"
/>
</svg>
