<?xml version="1.0" encoding="UTF-8" standalone="no"?>
<!DOCTYPE svg PUBLIC "-//W3C//DTD SVG 1.1//EN" "http://www.w3.org/Graphics/SVG/1.1/DTD/svg11.dtd">
<svg xmlns="http://www.w3.org/2000/svg" version="1.1" viewBox="0.00 0.00 366.00 131.00">
<g stroke-width="2.00" fill="none" stroke-linecap="butt">
<path stroke="#e6e5e5" vector-effect="non-scaling-stroke" d="
  M 65.2404 0.7312
  A 0.27 0.27 0.0 0 0 64.9709 0.4607
  L 64.2309 0.4594
  A 0.27 0.27 0.0 0 0 63.9604 0.7289
  L 63.8596 58.5088
  A 0.27 0.27 0.0 0 0 64.1291 58.7793
  L 64.8691 58.7806
  A 0.27 0.27 0.0 0 0 65.1396 58.5111
  L 65.2404 0.7312"
/>
<path stroke="#e6e5e5" vector-effect="non-scaling-stroke" d="
  M 316.9803 0.7682
  A 0.26 0.26 0.0 0 0 316.7194 0.5091
  L 316.1194 0.5112
  A 0.26 0.26 0.0 0 0 315.8603 0.7721
  L 316.0597 57.9118
  A 0.26 0.26 0.0 0 0 316.3206 58.1709
  L 316.9206 58.1688
  A 0.26 0.26 0.0 0 0 317.1797 57.9079
  L 316.9803 0.7682"
/>
<path stroke="#808080" vector-effect="non-scaling-stroke" d="
  M 65.04 69.97
  A 2.17 2.10 -56.8 0 1 65.96 69.76
  L 315.08 69.75
  A 0.54 0.47 49.1 0 1 315.22 69.77
  L 317.10 70.24
  Q 317.85 70.43 317.86 69.65
  L 317.91 61.35
  A 0.63 0.63 0.0 0 0 317.14 60.73
  Q 315.49 61.10 313.50 61.10
  Q 189.63 61.17 65.75 60.96
  Q 64.79 60.96 64.22 60.77
  A 0.75 0.75 0.0 0 0 63.24 61.49
  L 63.28 69.59
  A 0.77 0.77 0.0 0 0 64.39 70.28
  L 65.04 69.97"
/>
<path stroke="#e6e5e5" vector-effect="non-scaling-stroke" d="
  M 65.1503 73.2290
  A 0.45 0.45 0.0 0 0 64.6995 72.7798
  L 64.3795 72.7803
  A 0.45 0.45 0.0 0 0 63.9303 73.2311
  L 64.0297 130.1910
  A 0.45 0.45 0.0 0 0 64.4805 130.6402
  L 64.8005 130.6397
  A 0.45 0.45 0.0 0 0 65.2497 130.1889
  L 65.1503 73.2290"
/>
<path stroke="#e6e5e5" vector-effect="non-scaling-stroke" d="
  M 317.1199 73.1810
  A 0.26 0.26 0.0 0 0 316.8603 72.9206
  L 316.2603 72.9195
  A 0.26 0.26 0.0 0 0 315.9999 73.1791
  L 315.9001 130.3390
  A 0.26 0.26 0.0 0 0 316.1597 130.5994
  L 316.7597 130.6005
  A 0.26 0.26 0.0 0 0 317.0201 130.3409
  L 317.1199 73.1810"
/>
<path stroke="#ecae89" vector-effect="non-scaling-stroke" d="
  M 181.18 93.05
  Q 180.39 93.23 180.22 93.55
  A 1.15 0.99 43.2 0 0 180.34 94.66
  L 187.88 105.32
  A 1.70 1.67 42.5 0 1 187.97 107.10
  Q 184.43 113.40 180.11 118.57
  Q 179.51 119.28 179.56 119.86
  Q 179.65 120.78 180.79 121.00"
/>
<path stroke="#808080" vector-effect="non-scaling-stroke" d="
  M 180.79 121.00
  L 183.89 121.13"
/>
<path stroke="#84b2de" vector-effect="non-scaling-stroke" d="
  M 183.89 121.13
  Q 188.59 117.28 190.52 111.16"
/>
<path stroke="#808080" vector-effect="non-scaling-stroke" d="
  M 190.52 111.16
  Q 190.70 110.51 191.27 110.06
  Q 191.53 109.85 191.77 109.90
  Q 192.04 109.96 192.23 110.25"
/>
<path stroke="#ecae89" vector-effect="non-scaling-stroke" d="
  M 192.23 110.25
  Q 193.91 115.71 197.93 120.15"
/>
<path stroke="#808080" vector-effect="non-scaling-stroke" d="
  M 197.93 120.15
  Q 199.00 121.74 202.26 120.91"
/>
<path stroke="#84b2de" vector-effect="non-scaling-stroke" d="
  M 202.26 120.91
  Q 204.14 120.34 203.33 119.25
  Q 197.77 111.72 195.45 107.88
  C 194.40 106.16 194.81 105.53 195.85 104.04
  Q 199.25 99.13 203.01 94.31
  Q 203.34 93.88 202.98 93.48
  Q 202.55 92.99 201.56 93.01"
/>
<path stroke="#808080" vector-effect="non-scaling-stroke" d="
  M 201.56 93.01
  Q 199.11 92.43 198.14 93.08"
/>
<path stroke="#ecae89" vector-effect="non-scaling-stroke" d="
  M 198.14 93.08
  Q 197.20 93.21 196.68 93.98
  Q 193.57 98.65 191.42 102.48"
/>
<path stroke="#808080" vector-effect="non-scaling-stroke" d="
  M 191.42 102.48
  L 190.60 101.36"
/>
<path stroke="#84b2de" vector-effect="non-scaling-stroke" d="
  M 190.60 101.36
  Q 188.68 96.55 185.37 92.87"
/>
<path stroke="#808080" vector-effect="non-scaling-stroke" d="
  M 185.37 92.87
  L 181.18 93.05"
/>
<path stroke="#05335f" vector-effect="non-scaling-stroke" d="
  M 185.37 92.87
  C 184.49 95.75 188.48 100.10 190.60 101.36"
/>
<path stroke="#6d2f09" vector-effect="non-scaling-stroke" d="
  M 191.42 102.48
  Q 193.84 100.61 196.13 97.29
  Q 197.64 95.11 198.14 93.08"
/>
<path stroke="#05335f" vector-effect="non-scaling-stroke" d="
  M 201.56 93.01
  L 194.88 103.14
  Q 194.63 103.52 194.23 103.75
  Q 193.34 104.24 192.64 105.01
  A 1.03 1.02 -47.9 0 0 192.71 106.47
  Q 195.00 108.47 196.21 111.51
  Q 196.46 112.13 197.62 113.16
  Q 197.97 113.48 198.06 113.94
  Q 198.39 115.59 199.54 116.73
  Q 199.85 117.03 200.07 117.40
  L 202.26 120.91"
/>
<path stroke="#6d2f09" vector-effect="non-scaling-stroke" d="
  M 197.93 120.15
  Q 196.61 114.62 192.23 110.25"
/>
<path stroke="#05335f" vector-effect="non-scaling-stroke" d="
  M 190.52 111.16
  Q 185.43 115.19 183.89 121.13"
/>
<path stroke="#6d2f09" vector-effect="non-scaling-stroke" d="
  M 180.79 121.00
  L 180.84 120.73
  Q 180.89 120.50 181.02 120.30
  L 189.50 106.70
  A 0.90 0.89 -56.9 0 0 189.25 105.50
  Q 188.78 105.18 188.85 104.66
  Q 188.91 104.16 188.62 103.75
  L 181.18 93.05"
/>
</g>
<path fill="#ffffff" d="
  M 0.00 0.00
  L 366.00 0.00
  L 366.00 131.00
  L 0.00 131.00
  L 0.00 0.00
  Z
  M 65.2404 0.7312
  A 0.27 0.27 0.0 0 0 64.9709 0.4607
  L 64.2309 0.4594
  A 0.27 0.27 0.0 0 0 63.9604 0.7289
  L 63.8596 58.5088
  A 0.27 0.27 0.0 0 0 64.1291 58.7793
  L 64.8691 58.7806
  A 0.27 0.27 0.0 0 0 65.1396 58.5111
  L 65.2404 0.7312
  Z
  M 316.9803 0.7682
  A 0.26 0.26 0.0 0 0 316.7194 0.5091
  L 316.1194 0.5112
  A 0.26 0.26 0.0 0 0 315.8603 0.7721
  L 316.0597 57.9118
  A 0.26 0.26 0.0 0 0 316.3206 58.1709
  L 316.9206 58.1688
  A 0.26 0.26 0.0 0 0 317.1797 57.9079
  L 316.9803 0.7682
  Z
  M 65.04 69.97
  A 2.17 2.10 -56.8 0 1 65.96 69.76
  L 315.08 69.75
  A 0.54 0.47 49.1 0 1 315.22 69.77
  L 317.10 70.24
  Q 317.85 70.43 317.86 69.65
  L 317.91 61.35
  A 0.63 0.63 0.0 0 0 317.14 60.73
  Q 315.49 61.10 313.50 61.10
  Q 189.63 61.17 65.75 60.96
  Q 64.79 60.96 64.22 60.77
  A 0.75 0.75 0.0 0 0 63.24 61.49
  L 63.28 69.59
  A 0.77 0.77 0.0 0 0 64.39 70.28
  L 65.04 69.97
  Z
  M 65.1503 73.2290
  A 0.45 0.45 0.0 0 0 64.6995 72.7798
  L 64.3795 72.7803
  A 0.45 0.45 0.0 0 0 63.9303 73.2311
  L 64.0297 130.1910
  A 0.45 0.45 0.0 0 0 64.4805 130.6402
  L 64.8005 130.6397
  A 0.45 0.45 0.0 0 0 65.2497 130.1889
  L 65.1503 73.2290
  Z
  M 317.1199 73.1810
  A 0.26 0.26 0.0 0 0 316.8603 72.9206
  L 316.2603 72.9195
  A 0.26 0.26 0.0 0 0 315.9999 73.1791
  L 315.9001 130.3390
  A 0.26 0.26 0.0 0 0 316.1597 130.5994
  L 316.7597 130.6005
  A 0.26 0.26 0.0 0 0 317.0201 130.3409
  L 317.1199 73.1810
  Z
  M 181.18 93.05
  Q 180.39 93.23 180.22 93.55
  A 1.15 0.99 43.2 0 0 180.34 94.66
  L 187.88 105.32
  A 1.70 1.67 42.5 0 1 187.97 107.10
  Q 184.43 113.40 180.11 118.57
  Q 179.51 119.28 179.56 119.86
  Q 179.65 120.78 180.79 121.00
  L 183.89 121.13
  Q 188.59 117.28 190.52 111.16
  Q 190.70 110.51 191.27 110.06
  Q 191.53 109.85 191.77 109.90
  Q 192.04 109.96 192.23 110.25
  Q 193.91 115.71 197.93 120.15
  Q 199.00 121.74 202.26 120.91
  Q 204.14 120.34 203.33 119.25
  Q 197.77 111.72 195.45 107.88
  C 194.40 106.16 194.81 105.53 195.85 104.04
  Q 199.25 99.13 203.01 94.31
  Q 203.34 93.88 202.98 93.48
  Q 202.55 92.99 201.56 93.01
  Q 199.11 92.43 198.14 93.08
  Q 197.20 93.21 196.68 93.98
  Q 193.57 98.65 191.42 102.48
  L 190.60 101.36
  Q 188.68 96.55 185.37 92.87
  L 181.18 93.05
  Z"
/>
<rect fill="#cccaca" x="-0.64" y="-29.16" transform="translate(64.55,29.62) rotate(0.1)" width="1.28" height="58.32" rx="0.27"/>
<rect fill="#cccaca" x="-0.56" y="-28.83" transform="translate(316.52,29.34) rotate(-0.2)" width="1.12" height="57.66" rx="0.26"/>
<path fill="#000000" d="
  M 65.04 69.97
  L 64.39 70.28
  A 0.77 0.77 0.0 0 1 63.28 69.59
  L 63.24 61.49
  A 0.75 0.75 0.0 0 1 64.22 60.77
  Q 64.79 60.96 65.75 60.96
  Q 189.63 61.17 313.50 61.10
  Q 315.49 61.10 317.14 60.73
  A 0.63 0.63 0.0 0 1 317.91 61.35
  L 317.86 69.65
  Q 317.85 70.43 317.10 70.24
  L 315.22 69.77
  A 0.54 0.47 49.1 0 0 315.08 69.75
  L 65.96 69.76
  A 2.17 2.10 -56.8 0 0 65.04 69.97
  Z"
/>
<rect fill="#cccaca" x="-0.61" y="-28.93" transform="translate(64.59,101.71) rotate(-0.1)" width="1.22" height="57.86" rx="0.45"/>
<rect fill="#cccaca" x="-0.56" y="-28.84" transform="translate(316.51,101.76) rotate(0.1)" width="1.12" height="57.68" rx="0.26"/>
<path fill="#000000" d="
  M 185.37 92.87
  C 184.49 95.75 188.48 100.10 190.60 101.36
  L 191.42 102.48
  Q 193.84 100.61 196.13 97.29
  Q 197.64 95.11 198.14 93.08
  Q 199.11 92.43 201.56 93.01
  L 194.88 103.14
  Q 194.63 103.52 194.23 103.75
  Q 193.34 104.24 192.64 105.01
  A 1.03 1.02 -47.9 0 0 192.71 106.47
  Q 195.00 108.47 196.21 111.51
  Q 196.46 112.13 197.62 113.16
  Q 197.97 113.48 198.06 113.94
  Q 198.39 115.59 199.54 116.73
  Q 199.85 117.03 200.07 117.40
  L 202.26 120.91
  Q 199.00 121.74 197.93 120.15
  Q 196.61 114.62 192.23 110.25
  Q 192.04 109.96 191.77 109.90
  Q 191.53 109.85 191.27 110.06
  Q 190.70 110.51 190.52 111.16
  Q 185.43 115.19 183.89 121.13
  L 180.79 121.00
  L 180.84 120.73
  Q 180.89 120.50 181.02 120.30
  L 189.50 106.70
  A 0.90 0.89 -56.9 0 0 189.25 105.50
  Q 188.78 105.18 188.85 104.66
  Q 188.91 104.16 188.62 103.75
  L 181.18 93.05
  L 185.37 92.87
  Z"
/>
<path fill="#0965bd" d="
  M 201.56 93.01
  Q 202.55 92.99 202.98 93.48
  Q 203.34 93.88 203.01 94.31
  Q 199.25 99.13 195.85 104.04
  C 194.81 105.53 194.40 106.16 195.45 107.88
  Q 197.77 111.72 203.33 119.25
  Q 204.14 120.34 202.26 120.91
  L 200.07 117.40
  Q 199.85 117.03 199.54 116.73
  Q 198.39 115.59 198.06 113.94
  Q 197.97 113.48 197.62 113.16
  Q 196.46 112.13 196.21 111.51
  Q 195.00 108.47 192.71 106.47
  A 1.03 1.02 -47.9 0 1 192.64 105.01
  Q 193.34 104.24 194.23 103.75
  Q 194.63 103.52 194.88 103.14
  L 201.56 93.01
  Z"
/>
<path fill="#d95d12" d="
  M 181.18 93.05
  L 188.62 103.75
  Q 188.91 104.16 188.85 104.66
  Q 188.78 105.18 189.25 105.50
  A 0.90 0.89 -56.9 0 1 189.50 106.70
  L 181.02 120.30
  Q 180.89 120.50 180.84 120.73
  L 180.79 121.00
  Q 179.65 120.78 179.56 119.86
  Q 179.51 119.28 180.11 118.57
  Q 184.43 113.40 187.97 107.10
  A 1.70 1.67 42.5 0 0 187.88 105.32
  L 180.34 94.66
  A 1.15 0.99 43.2 0 1 180.22 93.55
  Q 180.39 93.23 181.18 93.05
  Z"
/>
<path fill="#0965bd" d="
  M 185.37 92.87
  Q 188.68 96.55 190.60 101.36
  C 188.48 100.10 184.49 95.75 185.37 92.87
  Z"
/>
<path fill="#d95d12" d="
  M 198.14 93.08
  Q 197.64 95.11 196.13 97.29
  Q 193.84 100.61 191.42 102.48
  Q 193.57 98.65 196.68 93.98
  Q 197.20 93.21 198.14 93.08
  Z"
/>
<path fill="#d95d12" d="
  M 192.23 110.25
  Q 196.61 114.62 197.93 120.15
  Q 193.91 115.71 192.23 110.25
  Z"
/>
<path fill="#0965bd" d="
  M 190.52 111.16
  Q 188.59 117.28 183.89 121.13
  Q 185.43 115.19 190.52 111.16
  Z"
/>
</svg>
