<?xml version="1.0" standalone="no"?>
<!DOCTYPE svg PUBLIC "-//W3C//DTD SVG 1.1//EN" "http://www.w3.org/Graphics/SVG/1.1/DTD/svg11.dtd">
<svg version="1.1" xmlns="http://www.w3.org/2000/svg" 
     width="300.000000pt" height="300.000000pt" viewBox="0 0 300.000000 300.000000"
     preserveAspectRatio="xMidYMid meet">
  
  <style type="text/css">
    <![CDATA[
      @keyframes draw {
        to { stroke-dashoffset: 0; }
      }
      @keyframes glow {
        0% { filter: drop-shadow(0 0 5px rgba(100, 200, 255, 0.7)); }
        50% { filter: drop-shadow(0 0 15px rgba(100, 200, 255, 0.9)); }
        100% { filter: drop-shadow(0 0 5px rgba(100, 200, 255, 0.7)); }
      }
      @keyframes float {
        0% { transform: translate(0, 0); }
        50% { transform: translate(0, -5px); }
        100% { transform: translate(0, 0); }
      }
      @keyframes colorShift {
        0% { fill: #4a90e2; }
        25% { fill: #9b59b6; }
        50% { fill: #e74c3c; }
        75% { fill: #f39c12; }
        100% { fill: #4a90e2; }
      }
      
      .path-animation {
        stroke-dasharray: 1000;
        stroke-dashoffset: 1000;
        animation: draw 3s ease-in-out forwards, glow 4s ease-in-out infinite;
      }
      .float-animation {
        animation: float 6s ease-in-out infinite;
      }
      .color-animation {
        animation: colorShift 8s linear infinite;
      }
    ]]>
  </style>
  
  <metadata>
    Created by potrace 1.10, written by Peter Selinger 2001-2011
  </metadata>
  
  <g transform="translate(0.000000,300.000000) scale(0.100000,-0.100000)" 
     fill="#4a90e2" stroke="#000000" stroke-width="2">
    
    <!-- Main paths with animations -->
    <path class="path-animation float-animation" d="M700 1999 c-137 -13 -225 -43 -320 -110 -69 -48 -112 -100 -148 -177
-23 -50 -27 -70 -27 -157 0 -89 3 -106 28 -157 74 -151 250 -216 557 -205 85
4 167 9 183 13 l27 6 1 122 c2 148 8 180 34 184 44 6 67 13 62 18 -10 11 -427
9 -424 -1 2 -5 28 -11 59 -13 l55 -3 7 -52 c3 -29 6 -95 6 -148 0 -94 -1 -97
-24 -103 -36 -9 -124 11 -172 39 -53 31 -90 75 -123 145 -23 50 -26 67 -26
175 0 115 1 123 33 189 45 96 92 149 157 181 65 32 166 43 204 23 13 -7 45
-50 70 -95 67 -119 79 -112 64 40 -6 67 -6 67 -42 76 -56 14 -158 18 -241 10z
m-194 -134 c-51 -76 -73 -128 -87 -209 -23 -132 7 -261 83 -357 22 -28 38 -52
36 -54 -7 -7 -91 16 -131 36 -66 33 -105 66 -131 112 -91 155 -29 362 143 481
39 27 112 58 120 51 2 -3 -13 -29 -33 -60z m456 -485 c-2 -69 -7 -129 -12
-134 -5 -5 -31 -11 -58 -14 l-50 -4 -7 126 c-4 69 -5 132 -1 141 4 13 19 15
68 13 l63 -3 -3 -125z"/>
    
    <path class="path-animation float-animation" d="M1120 1983 c0 -8 12 -13 28 -13 62 0 60 9 68 -382 l7 -357 -39 -6
c-21 -4 -46 -10 -54 -13 -18 -8 150 -14 293 -10 99 3 111 10 35 23 l-38 6 0
149 c0 83 2 150 5 150 4 0 202 -150 316 -240 30 -23 55 -46 57 -51 3 -8 -20
-16 -66 -21 -12 -2 -23 -7 -22 -11 0 -9 370 -10 378 -2 3 2 -8 9 -24 15 -53
19 -69 32 -164 137 -90 99 -235 237 -308 294 l-34 26 149 110 c194 144 233
170 273 180 74 19 36 28 -123 28 -97 -1 -161 -5 -160 -10 1 -6 19 -12 39 -15
21 -3 39 -10 41 -16 2 -6 -74 -87 -169 -179 -151 -145 -173 -164 -177 -143 -2
13 0 91 4 175 l7 151 45 9 c88 16 39 24 -162 26 -158 2 -205 -1 -205 -10z
m276 -31 c6 -5 7 -61 2 -162 -6 -128 -4 -159 8 -177 20 -31 47 -29 87 7 19 17
38 30 42 30 31 0 423 -390 411 -409 -3 -4 -25 -8 -49 -9 -40 -3 -48 1 -99 50
-65 63 -289 234 -336 256 -30 15 -34 15 -52 -4 -16 -16 -19 -37 -22 -154 -2
-75 -7 -138 -13 -142 -5 -4 -29 -8 -52 -8 -73 0 -73 1 -73 258 -1 125 -3 279
-6 344 -6 108 -5 116 12 120 31 8 129 7 140 0z m454 -7 c-1 -5 -15 -18 -31
-29 -28 -18 -29 -18 -23 0 4 11 12 25 17 32 11 15 39 12 37 -3z"/>
    
    <path class="path-animation float-animation" d="M2404 1981 c-89 -22 -189 -76 -228 -124 -25 -31 -31 -49 -34 -101 -4
-62 -3 -65 34 -106 40 -44 97 -77 202 -116 190 -72 254 -142 205 -226 -52 -92
-281 -118 -357 -41 -14 14 -42 54 -61 89 -40 71 -66 79 -58 16 2 -20 7 -64 11
-97 l7 -59 45 -9 c81 -15 299 -12 373 6 154 38 247 121 247 222 0 84 -55 135
-245 225 -163 77 -205 115 -205 180 0 75 85 130 199 130 86 0 111 -17 165
-109 26 -44 52 -78 57 -75 10 6 12 81 3 147 l-6 45 -63 11 c-88 16 -209 12
-291 -8z m-96 -108 c-25 -91 33 -156 218 -244 137 -64 188 -98 210 -140 32
-63 6 -139 -65 -186 -46 -31 -63 -30 -51 3 14 36 12 81 -4 112 -31 59 -88 96
-254 162 -149 59 -204 118 -183 198 13 46 97 130 133 132 3 0 2 -17 -4 -37z"/>
    
    <!-- Smaller elements with color animation -->
    <path class="color-animation" d="M1025 1000 c-11 -5 -14 -9 -7 -9 9 -1 12 -26 12 -91 0 -89 0 -90 -25 -90 -22 0 -24 4 -27 58 -3 56 -4 57 -33 59 -22 1 -24 0 -7 -4 22 -4 23 -9 20 -64 l-3 -59 48 0 47 0 0 105 c0 58 -1 105 -2 104 -2 0 -12 -4 -23 -9z"/>
    <path class="color-animation" d="M1280 1002 c-12 -6 -15 -28 -15 -105 0 -94 1 -97 22 -97 20 0 21 3 13 26 -18 46 -10 50 24 12 18 -21 40 -38 49 -38 11 0 5 11 -21 34 -31 29 -35 38 -26 53 6 10 22 24 35 30 l24 13 -25 0 c-16 0 -29 -8 -35 -22 -20 -44 -31 -30 -27 37 2 36 3 65 1 64 -2 0 -11 -3 -19 -7z"/>
    <path class="color-animation" d="M2366 988 c10 -13 26 -28 34 -35 17 -13 15 -15 -25 -29 -58 -19 -59 -108 -1 -129 25 -8 31 -6 53 20 21 24 24 36 20 72 -2 24 -12 52 -21 62 -12 14 -13 20 -3 30 10 11 8 12 -9 7 -13 -4 -26 -1 -34 9 -7 8 -17 15 -23 15 -5 0 -2 -10 9 -22z m58 -105 c7 -25 5 -38 -8 -58 -9 -14 -21 -25 -26 -25 -17 0 -40 32 -40 56 0 67 56 88 74 27z"/>
    <path class="color-animation" d="M562 918 c-23 -23 -8 -78 22 -78 6 0 5 5 -2 12 -7 7 -12 25 -12 40 0 23 4 28 25 28 21 0 25 -5 25 -28 0 -15 -6 -34 -12 -41 -11 -11 -10 -13 1 -9 23 7 34 33 27 61 -5 21 -12 27 -34 27 -15 0 -33 -5 -40 -12z"/>
    <path class="color-animation" d="M670 905 c28 -30 40 -32 33 -5 -4 16 0 20 21 20 25 0 26 -2 26 -60 0 -59 0 -60 28 -59 16 1 20 3 10 6 -14 3 -18 15 -18 48 0 24 -3 50 -6 59 -7 18 -54 22 -71 5 -8 -8 -13 -8 -17 0 -4 6 -12 11 -18 11 -6 0 -1 -11 12 -25z"/>
    <path class="color-animation" d="M815 920 c-11 -5 -14 -9 -7 -9 10 -1 13 -15 10 -56 -2 -44 0 -55 12 -55 12 0 14 12 12 60 -4 59 -3 60 23 60 26 0 27 -1 23 -60 -2 -44 0 -60 10 -60 10 0 12 16 10 63 l-3 62 -35 2 c-19 1 -44 -2 -55 -7z"/>
    <path class="color-animation" d="M1097 924 c-11 -11 -8 -44 3 -44 6 0 10 8 8 18 -2 11 4 18 20 20 21 3 22 0 22 -52 0 -49 -3 -56 -19 -56 -30 0 -34 17 -9 39 24 23 18 27 -13 11 -11 -6 -19 -21 -19 -35 0 -24 3 -25 58 -24 31 1 49 3 40 6 -13 3 -18 18 -20 61 -3 55 -4 57 -33 60 -17 2 -34 0 -38 -4z"/>
    <path class="color-animation" d="M1414 905 c-35 -53 18 -131 72 -107 32 15 47 54 33 89 -13 34 -26 43 -61 43 -18 0 -33 -8 -44 -25z m84 -36 c2 -33 -2 -50 -13 -59 -35 -29 -75 33 -55 84 8 22 15 27 38 24 25 -3 27 -7 30 -49z"/>
    <path class="color-animation" d="M1563 924 c-8 -4 -9 -13 -3 -29 5 -13 6 -40 3 -59 -5 -32 -3 -36 17 -36 17 0 20 3 12 13 -6 6 -9 32 -8 57 2 38 6 46 24 48 25 4 37 -28 30 -83 -3 -27 0 -35 12 -35 12 0 14 11 10 62 l-5 63 -40 2 c-22 1 -45 0 -52 -3z"/>
    <path class="color-animation" d="M1688 919 c22 -8 24 -14 20 -64 -2 -44 0 -55 12 -55 12 0 15 10 12 43 -6 78 -10 87 -40 86 -27 0 -27 0 -4 -10z"/>
    <path class="color-animation" d="M1760 920 c0 -5 5 -10 10 -10 15 0 13 -163 -2 -178 -9 -9 -4 -12 23 -12 28 1 31 2 17 11 -11 6 -18 22 -18 40 0 26 3 29 20 24 28 -9 66 17 74 50 4 15 0 37 -9 55 -14 27 -20 30 -65 30 -28 0 -50 -4 -50 -10z m98 -52 c3 -39 0 -49 -18 -58 -31 -17 -50 4 -50 55 0 49 6 57 40 53 22 -3 25 -8 28 -50z"/>
    <path class="color-animation" d="M1916 914 c-9 -25 -7 -34 8 -34 9 0 12 7 9 20 -4 15 0 20 14 20 16 0 22 -9 27 -46 7 -53 3 -64 -25 -64 -24 0 -26 35 -3 44 9 4 14 9 10 13 -10 10 -46 -28 -46 -49 0 -16 8 -18 63 -17 34 1 54 3 45 6 -17 4 -23 25 -19 65 1 10 -3 26 -9 38 -13 25 -65 28 -74 4z"/>
    <path class="color-animation" d="M2044 924 c-8 -3 -9 -17 -3 -42 4 -20 6 -47 2 -59 -4 -18 -1 -23 13 -23 17 0 19 7 16 60 -4 59 -3 60 22 60 25 0 26 -2 26 -60 0 -41 4 -60 13 -60 9 0 11 16 7 62 l-5 63 -40 2 c-22 1 -45 0 -51 -3z"/>
    <path class="color-animation" d="M2195 924 c-16 -7 -6 -124 11 -124 11 0 14 16 14 65 0 62 -3 69 -25 59z"/>
    <path class="color-animation" d="M2269 928 c0 -2 -1 -31 -2 -66 -2 -49 1 -62 13 -62 12 0 14 12 12 65 -2 36 -8 65 -13 65 -5 0 -9 -1 -10 -2z"/>
    <path class="color-animation" d="M700 850 c-25 -25 -16 -50 19 -49 23 2 24 2 4 6 -29 6 -29 27 -1 47 12 9 17 16 10 16 -6 0 -21 -9 -32 -20z"/>
    <path class="color-animation" d="M543 819 c3 -12 0 -30 -6 -40 -31 -49 53 -80 97 -36 38 38 26 65 -33 69 -30 2 -45 7 -43 16 1 6 -3 12 -9 12 -7 0 -9 -9 -6 -21z m96 -43 c7 -39 -63 -62 -90 -30 -11 14 -10 19 11 36 29 24 73 20 79 -6z"/>
  </g>
  
  <!-- Glow effect -->
  <filter id="glow" x="-30%" y="-30%" width="160%" height="160%">
    <feGaussianBlur stdDeviation="4" result="blur"/>
    <feComposite in="SourceGraphic" in2="blur" operator="over"/>
  </filter>
</svg>