<?xml version="1.0" standalone="no"?>
<!DOCTYPE svg PUBLIC "-//W3C//DTD SVG 20010904//EN"
 "http://www.w3.org/TR/2001/REC-SVG-20010904/DTD/svg10.dtd">
<svg version="1.0" xmlns="http://www.w3.org/2000/svg"
 width="900.000000pt" height="471.000000pt" viewBox="0 0 900.000000 471.000000"
 preserveAspectRatio="xMidYMid meet">
<metadata>
Edited by Holmar Karl
</metadata>
<g transform="translate(0.000000,471.000000) scale(0.100000,-0.100000)"
fill="#000000" stroke="none">
<path d="M4200 4380 c-25 -5 -69 -9 -99 -9 -74 -1 -239 -38 -346 -78 -301
-111 -517 -284 -657 -524 -24 -41 -52 -94 -62 -119 -10 -25 -25 -59 -32 -77
-8 -17 -14 -39 -14 -48 0 -9 -4 -24 -9 -33 -35 -66 -54 -397 -30 -541 19 -121
62 -279 88 -329 5 -9 19 -37 31 -62 68 -142 194 -294 325 -391 76 -56 84 -60
175 -105 41 -20 83 -40 92 -45 38 -19 203 -65 323 -89 87 -18 416 -25 501 -10
38 6 101 15 139 20 39 4 90 13 115 18 75 18 143 33 195 42 28 6 73 16 100 23
l50 14 -1 89 c0 49 -2 193 -3 319 -1 127 3 313 9 414 6 102 7 188 2 193 -4 4
-163 7 -353 6 l-344 -3 0 -45 0 -45 58 -7 c32 -4 75 -12 95 -18 20 -5 52 -10
70 -10 42 0 97 -41 123 -92 18 -36 20 -60 20 -323 l0 -285 -28 -42 c-49 -73
-130 -114 -267 -138 -119 -20 -316 -8 -436 27 -180 52 -330 149 -440 283 -25
30 -48 57 -51 60 -3 3 -19 27 -35 55 -16 27 -34 59 -41 70 -7 11 -15 27 -18
35 -4 8 -12 29 -19 45 -37 84 -60 157 -92 295 -25 108 -25 455 0 561 35 146
50 191 95 289 79 172 228 324 391 397 149 68 226 83 425 83 167 0 251 -12 333
-46 18 -8 39 -14 47 -14 38 0 165 -89 216 -151 39 -48 93 -135 101 -164 18
-60 61 -162 73 -174 15 -15 49 -10 77 11 15 11 16 22 8 88 -19 151 -40 386
-40 437 0 28 -5 55 -11 59 -6 3 -36 10 -67 14 -32 4 -83 13 -114 19 -148 28
-181 33 -303 41 -248 17 -320 19 -365 10z"/>
<path d="M8095 4385 c-5 -2 -50 -9 -100 -14 -106 -12 -171 -29 -251 -67 -277
-131 -410 -396 -348 -694 8 -41 19 -79 25 -85 5 -5 9 -15 9 -23 0 -25 73 -126
140 -192 53 -53 208 -170 225 -170 2 0 23 -12 47 -27 69 -45 80 -51 133 -78
28 -15 64 -35 80 -45 17 -11 39 -24 50 -30 93 -47 221 -156 274 -234 51 -74
64 -121 68 -245 4 -118 2 -129 -46 -230 -23 -49 -120 -146 -167 -166 -148 -64
-311 -60 -462 12 -124 59 -245 197 -307 350 -12 29 -25 56 -29 60 -3 3 -6 16
-6 27 0 12 -7 32 -16 45 -13 18 -22 22 -47 17 -16 -3 -36 -11 -44 -17 -18 -15
-17 -94 3 -199 8 -47 22 -121 30 -165 28 -150 34 -169 61 -192 14 -11 38 -23
52 -26 14 -3 40 -9 56 -15 236 -83 532 -95 720 -31 17 6 44 14 60 18 39 10
137 64 197 107 51 38 140 131 160 169 80 150 88 180 88 350 0 156 -4 176 -63
294 -23 45 -56 86 -114 141 -109 104 -200 165 -409 275 -135 72 -152 81 -189
105 -16 11 -37 23 -45 27 -8 4 -21 12 -30 19 -138 112 -175 157 -215 258 -24
61 -21 251 5 317 37 93 87 146 190 203 30 17 56 20 176 20 118 1 147 -2 185
-19 65 -28 152 -98 192 -152 47 -66 107 -198 107 -238 0 -26 24 -55 44 -55 8
0 28 3 46 7 l33 6 -6 91 c-3 50 -10 123 -16 161 -6 39 -14 110 -17 158 -7 104
-16 114 -118 127 -35 4 -69 11 -75 14 -6 4 -57 11 -113 16 -57 5 -128 11 -158
14 -30 3 -59 4 -65 1z"/>
<path fill="#837552" d="M545 4370 c-116 -17 -213 -101 -260 -225 -18 -45 -19 -80 -20 -372 0
-247 3 -323 12 -323 7 0 41 26 75 58 35 32 79 72 98 88 58 48 489 482 585 588
50 55 105 115 123 133 61 64 65 63 -265 62 -164 -1 -321 -5 -348 -9z"/>
<path fill="#837552" d="M1495 4366 c-16 -8 -105 -88 -197 -178 -675 -660 -708 -693 -708
-715 0 -12 6 -26 12 -30 7 -4 31 -30 53 -58 48 -60 82 -100 115 -135 14 -14
43 -48 65 -75 22 -28 45 -55 50 -61 59 -63 153 -171 170 -195 13 -16 47 -56
77 -88 31 -32 81 -89 113 -127 32 -38 98 -112 146 -164 48 -52 134 -147 192
-210 107 -119 192 -200 236 -228 14 -9 28 -19 31 -23 11 -13 74 -39 94 -39 26
0 68 58 93 126 17 46 18 112 18 1000 l0 951 -35 68 c-39 74 -92 127 -165 164
-43 21 -65 24 -189 28 -109 3 -148 0 -171 -11z"/>
<path d="M6158 4329 c-19 -10 -24 -54 -9 -77 10 -16 71 -31 125 -32 50 0 106
-34 106 -64 0 -52 -129 -199 -475 -544 -268 -266 -327 -317 -417 -363 -41 -21
-59 -36 -64 -54 -9 -38 -1 -48 57 -69 74 -26 101 -49 210 -178 52 -61 114
-135 139 -163 25 -28 56 -65 69 -81 14 -16 54 -63 90 -105 36 -41 84 -97 106
-124 45 -55 110 -131 128 -150 7 -7 32 -37 57 -66 25 -29 65 -77 90 -105 25
-28 71 -81 104 -118 l58 -66 296 2 c278 3 297 4 300 21 10 50 -3 61 -95 81
-48 10 -104 25 -123 34 -47 23 -151 104 -191 150 -17 20 -78 87 -134 147 -56
61 -126 137 -156 171 -135 151 -191 215 -255 289 -113 130 -118 137 -131 150
-13 14 -68 78 -128 150 -22 27 -45 53 -50 59 -37 40 -65 79 -65 91 0 7 54 67
119 132 207 205 595 580 631 609 19 16 44 37 55 47 54 49 224 109 342 121 73
7 93 20 93 59 0 18 -5 38 -12 45 -16 16 -844 17 -870 1z"/>
<path fill="#837552" d="M266 3192 c-3 -9 -4 -233 -2 -497 3 -518 1 -496 58 -601 25 -45 91
-101 156 -131 l57 -27 418 -3 c361 -2 417 0 417 12 0 8 -8 23 -17 33 -10 10
-43 47 -73 82 -30 36 -62 71 -70 80 -8 8 -53 60 -100 115 -46 55 -87 102 -90
105 -3 3 -30 34 -60 70 -30 36 -59 70 -65 76 -5 6 -30 35 -55 64 -44 53 -105
124 -125 146 -5 6 -28 32 -50 59 -61 73 -177 209 -184 215 -4 3 -19 21 -35 40
-65 80 -141 162 -157 171 -13 7 -19 5 -23 -9z"/>
<path d="M3390 1262 c-19 -15 -50 -41 -69 -59 -30 -27 -33 -34 -22 -47 15 -18
56 -21 66 -6 3 6 14 10 24 10 10 0 24 7 31 15 7 8 20 15 30 15 9 0 25 9 35 19
16 19 16 21 -5 50 -26 38 -44 38 -90 3z"/>
<path d="M267 1094 c-4 -4 -7 -180 -7 -391 l0 -384 68 3 67 3 0 385 0 385 -60
3 c-34 2 -64 0 -68 -4z"/>
<path d="M5305 1088 c-3 -7 -4 -182 -3 -388 l3 -375 65 0 65 0 0 385 0 385
-63 3 c-44 2 -64 -1 -67 -10z"/>
<path d="M6809 1076 c-116 -21 -204 -91 -256 -204 -24 -52 -26 -68 -26 -177 0
-108 3 -126 26 -177 72 -158 221 -234 402 -206 90 14 152 37 181 69 17 19 19
38 20 163 1 78 -3 147 -9 154 -7 8 -47 12 -137 12 -133 0 -146 -4 -150 -45 -5
-43 -2 -45 70 -45 63 0 71 -2 86 -25 23 -36 15 -128 -14 -157 -35 -36 -123
-37 -195 -3 -108 51 -156 133 -157 262 0 137 55 223 170 266 60 22 110 21 195
-3 38 -11 72 -16 76 -12 7 7 12 52 10 79 -2 20 -37 33 -129 48 -48 8 -89 14
-92 14 -3 -1 -35 -7 -71 -13z"/>
<path d="M674 1058 c-5 -7 -7 -175 -4 -373 l5 -360 55 0 55 0 5 240 c4 211 7
240 21 243 9 2 19 -5 22 -15 4 -10 11 -25 16 -33 23 -36 101 -171 101 -175 0
-2 12 -21 26 -42 14 -21 30 -47 35 -58 5 -11 18 -33 29 -50 11 -16 24 -39 29
-50 28 -58 43 -66 111 -63 l65 3 0 370 0 370 -57 3 c-42 2 -58 -1 -58 -10 -1
-7 0 -119 0 -249 0 -129 -3 -238 -6 -242 -8 -7 -54 31 -54 44 0 4 -46 86 -103
181 -57 96 -107 180 -111 188 -40 81 -52 90 -116 90 -35 0 -61 -5 -66 -12z"/>
<path d="M1520 695 l0 -375 60 0 60 0 0 255 c0 151 4 255 9 255 12 0 39 -39
81 -115 18 -33 46 -79 61 -103 16 -24 29 -45 29 -48 0 -2 27 -49 60 -104 33
-55 60 -104 60 -109 0 -20 41 -32 98 -29 l57 3 0 370 0 370 -55 0 -55 0 -3
-247 c-3 -280 -6 -290 -64 -190 -18 31 -38 66 -45 77 -7 11 -17 29 -23 40 -6
11 -19 34 -30 50 -11 17 -23 37 -27 45 -4 8 -36 63 -70 123 l-64 107 -69 0
-70 0 0 -375z"/>
<path d="M2385 1057 c-3 -6 -4 -174 -3 -372 l3 -360 55 0 55 0 0 133 c0 119 2
135 19 147 13 10 25 11 45 4 32 -12 49 -30 131 -139 115 -151 113 -150 192
-150 77 0 85 10 42 51 -14 13 -47 51 -72 84 -25 33 -59 74 -75 90 -55 57 -54
61 13 95 41 21 68 43 87 71 23 35 26 50 27 127 0 81 -2 91 -30 132 -18 28 -49
56 -79 72 -49 27 -53 28 -228 28 -133 0 -179 -3 -182 -13z m332 -105 c40 -22
63 -66 63 -121 0 -44 -4 -55 -34 -84 -27 -27 -44 -35 -87 -40 -72 -9 -131 -8
-146 1 -20 13 -20 242 0 256 18 14 173 5 204 -12z"/>
<path d="M3155 1058 c-3 -7 -4 -175 -3 -373 l3 -360 248 -3 247 -2 0 44 c0 26
-6 48 -14 55 -10 9 -63 12 -179 10 -90 -1 -169 1 -175 5 -8 5 -12 38 -12 91 0
104 2 105 137 105 113 0 143 13 143 59 0 16 -6 33 -13 39 -8 7 -67 13 -138 14
l-124 3 -3 101 c-2 80 0 104 12 113 11 9 60 12 170 12 155 -2 155 -2 171 23 9
14 15 35 13 48 l-3 23 -238 3 c-186 2 -239 0 -242 -10z"/>
<path d="M3797 1063 c-13 -12 -7 -70 7 -82 10 -8 47 -12 110 -10 66 2 99 -1
110 -10 14 -12 16 -54 16 -327 l0 -314 55 0 c36 0 56 4 57 13 1 6 2 151 2 320
1 240 4 309 14 316 7 4 60 6 117 3 l104 -5 6 26 c4 14 5 36 3 48 l-3 24 -296
3 c-162 1 -298 -1 -302 -5z"/>
<path d="M4515 1055 c-3 -8 -7 -22 -10 -31 -3 -8 0 -24 6 -35 9 -18 20 -20
115 -18 70 1 109 -3 119 -11 13 -11 15 -60 15 -326 l0 -314 55 0 55 0 0 313
c0 171 4 318 9 326 7 10 37 14 122 15 l114 1 0 45 0 45 -298 3 c-259 2 -298 0
-302 -13z"/>
<path d="M5708 1064 c-7 -6 1 -712 7 -732 3 -9 22 -12 62 -10 l58 3 0 237 c0
130 4 240 8 244 9 9 40 -25 58 -61 5 -11 18 -33 29 -50 11 -16 23 -37 27 -45
4 -8 40 -70 80 -138 40 -68 73 -125 73 -128 0 -3 10 -18 22 -34 20 -28 26 -30
90 -30 l68 0 -2 373 -3 372 -57 3 -58 3 0 -250 c0 -138 -4 -252 -9 -255 -11
-7 -92 113 -141 209 -6 11 -19 34 -30 50 -11 17 -24 39 -30 50 -6 11 -19 34
-30 50 -11 17 -25 41 -31 55 -5 14 -22 40 -35 57 -24 31 -29 33 -88 33 -34 0
-65 -3 -68 -6z"/>
<path d="M7572 1057 c-11 -13 -37 -80 -52 -132 -4 -16 -18 -55 -30 -85 -12
-30 -26 -68 -30 -85 -9 -30 -19 -58 -60 -165 -12 -30 -24 -64 -27 -75 -2 -11
-9 -29 -14 -40 -13 -30 -40 -107 -46 -132 -5 -22 -3 -23 56 -23 60 0 62 1 75
33 8 17 22 61 33 97 l19 65 141 3 c107 2 143 -1 151 -11 6 -7 24 -51 39 -98
l28 -84 63 -3 c69 -3 70 -2 46 63 -8 22 -19 51 -24 65 -5 14 -18 50 -30 80
-12 30 -26 71 -32 90 -5 19 -14 40 -18 45 -4 6 -10 21 -13 35 -3 14 -12 43
-21 65 -47 124 -59 156 -78 215 -12 36 -26 71 -31 78 -13 16 -131 16 -145 -1z
m92 -149 c2 -7 21 -66 41 -130 20 -65 35 -125 31 -133 -5 -13 -22 -15 -93 -13
-100 3 -107 11 -80 77 8 20 24 66 36 104 29 93 55 131 65 95z"/>
<path d="M8185 1057 c-3 -6 -4 -174 -3 -372 l3 -360 60 0 60 0 5 135 c3 74 9
141 13 148 23 35 79 -8 182 -143 114 -149 108 -145 180 -145 35 0 67 5 70 10
4 6 -11 30 -32 53 -21 24 -56 65 -78 92 -22 27 -55 66 -72 86 -18 20 -33 39
-33 43 0 3 21 17 48 30 92 47 139 131 129 230 -9 88 -54 151 -132 187 -34 16
-67 19 -218 19 -133 0 -179 -3 -182 -13z m320 -100 c35 -13 59 -36 79 -76 20
-38 20 -54 0 -94 -29 -58 -61 -75 -150 -82 -123 -11 -124 -9 -124 127 0 141 4
147 98 141 37 -2 80 -10 97 -16z"/>
</g>
</svg>
